ChauncyItalic.ufo
<glyph name="exclam" format="2">
  <advance width="263"/>
  <unicode hex="0021"/>
  <outline>
    <contour>
      <point x="291" y="696" type="curve" smooth="yes"/>
      <point x="345" y="716" type="line" smooth="yes"/>
      <point x="357" y="719"/>
      <point x="366" y="723"/>
      <point x="374" y="723" type="curve" smooth="yes"/>
      <point x="385" y="723"/>
      <point x="392" y="714"/>
      <point x="388" y="702" type="curve" smooth="yes"/>
      <point x="387" y="697"/>
      <point x="384" y="689"/>
      <point x="382" y="684" type="curve" smooth="yes"/>
      <point x="227" y="229" type="line" smooth="yes"/>
      <point x="220" y="210"/>
      <point x="210" y="200"/>
      <point x="196" y="200" type="curve" smooth="yes"/>
      <point x="182" y="200"/>
      <point x="177" y="210"/>
      <point x="181" y="231" type="curve" smooth="yes"/>
      <point x="255" y="641" type="line" smooth="yes"/>
      <point x="257" y="650"/>
      <point x="259" y="659"/>
      <point x="261" y="666" type="curve" smooth="yes"/>
      <point x="264" y="680"/>
      <point x="276" y="691"/>
    </contour>
    <component base="period" xScale="0.9329999999999999" yScale="0.9329999999999999" xOffset="-7" yOffset="-1"/>
  </outline>
</glyph>
<glyph name="numbersign" format="2">
  <advance width="598"/>
  <unicode hex="0023"/>
  <outline>
    <contour>
      <point x="249" y="307" type="curve" smooth="yes"/>
      <point x="190" y="97"/>
      <point x="148" y="63"/>
      <point x="144" y="26" type="curve" smooth="yes"/>
      <point x="140" y="1"/>
      <point x="153" y="-16"/>
      <point x="175" y="-16" type="curve" smooth="yes"/>
      <point x="192" y="-16"/>
      <point x="216" y="-7"/>
      <point x="224" y="24" type="curve" smooth="yes"/>
      <point x="235" y="58"/>
      <point x="228" y="95"/>
      <point x="288" y="307" type="curve" smooth="yes"/>
      <point x="346" y="514"/>
      <point x="386" y="550"/>
      <point x="391" y="588" type="curve" smooth="yes"/>
      <point x="394" y="613"/>
      <point x="383" y="629"/>
      <point x="362" y="629" type="curve" smooth="yes"/>
      <point x="337" y="629"/>
      <point x="318" y="617"/>
      <point x="307" y="586" type="curve" smooth="yes"/>
      <point x="294" y="544"/>
      <point x="316" y="547"/>
    </contour>
    <contour>
      <point x="424" y="307" type="curve" smooth="yes"/>
      <point x="366" y="98"/>
      <point x="323" y="63"/>
      <point x="319" y="26" type="curve" smooth="yes"/>
      <point x="315" y="1"/>
      <point x="328" y="-16"/>
      <point x="350" y="-16" type="curve" smooth="yes"/>
      <point x="367" y="-16"/>
      <point x="391" y="-7"/>
      <point x="400" y="24" type="curve" smooth="yes"/>
      <point x="411" y="58"/>
      <point x="404" y="96"/>
      <point x="463" y="307" type="curve" smooth="yes"/>
      <point x="521" y="514"/>
      <point x="561" y="550"/>
      <point x="566" y="588" type="curve" smooth="yes"/>
      <point x="569" y="613"/>
      <point x="558" y="629"/>
      <point x="537" y="629" type="curve" smooth="yes"/>
      <point x="511" y="629"/>
      <point x="493" y="617"/>
      <point x="483" y="586" type="curve" smooth="yes"/>
      <point x="469" y="545"/>
      <point x="488" y="531"/>
    </contour>
    <contour>
      <point x="369" y="370" type="curve" smooth="yes"/>
      <point x="523" y="370"/>
      <point x="546" y="350"/>
      <point x="573" y="350" type="curve" smooth="yes"/>
      <point x="605" y="350"/>
      <point x="623" y="371"/>
      <point x="627" y="392" type="curve" smooth="yes"/>
      <point x="630" y="410"/>
      <point x="619" y="428"/>
      <point x="590" y="428" type="curve" smooth="yes"/>
      <point x="565" y="428"/>
      <point x="533" y="407"/>
      <point x="376" y="408" type="curve" smooth="yes"/>
      <point x="224" y="408"/>
      <point x="200" y="429"/>
      <point x="174" y="429" type="curve" smooth="yes"/>
      <point x="142" y="429"/>
      <point x="125" y="412"/>
      <point x="121" y="393" type="curve" smooth="yes"/>
      <point x="117" y="369"/>
      <point x="129" y="353"/>
      <point x="161" y="352" type="curve" smooth="yes"/>
      <point x="186" y="351"/>
      <point x="217" y="370"/>
    </contour>
    <contour>
      <point x="328" y="203" type="curve" smooth="yes"/>
      <point x="482" y="203"/>
      <point x="504" y="184"/>
      <point x="531" y="184" type="curve" smooth="yes"/>
      <point x="563" y="184"/>
      <point x="582" y="205"/>
      <point x="586" y="226" type="curve" smooth="yes"/>
      <point x="589" y="244"/>
      <point x="578" y="262"/>
      <point x="548" y="262" type="curve" smooth="yes"/>
      <point x="524" y="262"/>
      <point x="492" y="241"/>
      <point x="335" y="242" type="curve" smooth="yes"/>
      <point x="183" y="242"/>
      <point x="158" y="263"/>
      <point x="131" y="263" type="curve" smooth="yes"/>
      <point x="100" y="263"/>
      <point x="83" y="246"/>
      <point x="80" y="227" type="curve" smooth="yes"/>
      <point x="76" y="203"/>
      <point x="88" y="187"/>
      <point x="119" y="186" type="curve" smooth="yes"/>
      <point x="145" y="185"/>
      <point x="175" y="203"/>
    </contour>
  </outline>
</glyph>
<glyph name="dollar" format="2">
  <advance width="513"/>
  <unicode hex="0024"/>
  <outline>
    <contour>
      <point x="261" y="0" type="curve" smooth="yes"/>
      <point x="387" y="0"/>
      <point x="483" y="80"/>
      <point x="509" y="177" type="curve" smooth="yes"/>
      <point x="526" y="239"/>
      <point x="496" y="295"/>
      <point x="386" y="343" type="curve" smooth="yes"/>
      <point x="279" y="382"/>
      <point x="253" y="425"/>
      <point x="268" y="482" type="curve" smooth="yes"/>
      <point x="285" y="544"/>
      <point x="348" y="581"/>
      <point x="412" y="581" type="curve" smooth="yes"/>
      <point x="476" y="581"/>
      <point x="508" y="551"/>
      <point x="497" y="512" type="curve" smooth="yes"/>
      <point x="490" y="486" type="line" smooth="yes"/>
      <point x="482" y="456"/>
      <point x="500" y="435"/>
      <point x="527" y="435" type="curve" smooth="yes"/>
      <point x="553" y="435"/>
      <point x="582" y="459"/>
      <point x="590" y="489" type="curve" smooth="yes"/>
      <point x="611" y="566"/>
      <point x="548" y="629"/>
      <point x="449" y="629" type="curve" smooth="yes"/>
      <point x="315" y="629"/>
      <point x="202" y="549"/>
      <point x="176" y="453" type="curve" smooth="yes"/>
      <point x="155" y="372"/>
      <point x="193" y="316"/>
      <point x="303" y="274" type="curve" smooth="yes"/>
      <point x="406" y="232"/>
      <point x="433" y="195"/>
      <point x="420" y="145" type="curve" smooth="yes"/>
      <point x="404" y="84"/>
      <point x="355" y="48"/>
      <point x="299" y="48" type="curve" smooth="yes"/>
      <point x="218" y="48"/>
      <point x="177" y="82"/>
      <point x="189" y="127" type="curve" smooth="yes"/>
      <point x="196" y="153" type="line" smooth="yes"/>
      <point x="204" y="184"/>
      <point x="188" y="204"/>
      <point x="161" y="204" type="curve" smooth="yes"/>
      <point x="134" y="204"/>
      <point x="105" y="181"/>
      <point x="97" y="150" type="curve" smooth="yes"/>
      <point x="75" y="68"/>
      <point x="149" y="0"/>
    </contour>
    <contour>
      <point x="334" y="335" type="line"/>
      <point x="261" y="65"/>
      <point x="236" y="10"/>
      <point x="224" y="-34" type="curve" smooth="yes"/>
      <point x="217" y="-59"/>
      <point x="229" y="-70"/>
      <point x="245" y="-70" type="curve" smooth="yes"/>
      <point x="262" y="-70"/>
      <point x="276" y="-58"/>
      <point x="284" y="-34" type="curve" smooth="yes"/>
      <point x="297" y="10"/>
      <point x="299" y="63"/>
      <point x="372" y="335" type="curve"/>
    </contour>
    <contour>
      <point x="370" y="335" type="line"/>
      <point x="436" y="581"/>
      <point x="460" y="626"/>
      <point x="471" y="668" type="curve" smooth="yes"/>
      <point x="477" y="692"/>
      <point x="465" y="704"/>
      <point x="450" y="704" type="curve" smooth="yes"/>
      <point x="434" y="704"/>
      <point x="417" y="693"/>
      <point x="411" y="670" type="curve" smooth="yes"/>
      <point x="401" y="633"/>
      <point x="401" y="585"/>
      <point x="333" y="335" type="curve"/>
    </contour>
    <contour>
      <point x="261" y="0" type="curve" smooth="yes"/>
      <point x="387" y="0"/>
      <point x="483" y="80"/>
      <point x="509" y="177" type="curve" smooth="yes"/>
      <point x="526" y="239"/>
      <point x="496" y="295"/>
      <point x="386" y="343" type="curve" smooth="yes"/>
      <point x="279" y="382"/>
      <point x="253" y="425"/>
      <point x="268" y="482" type="curve" smooth="yes"/>
      <point x="285" y="544"/>
      <point x="348" y="581"/>
      <point x="412" y="581" type="curve" smooth="yes"/>
      <point x="476" y="581"/>
      <point x="508" y="551"/>
      <point x="497" y="512" type="curve" smooth="yes"/>
      <point x="490" y="486" type="line" smooth="yes"/>
      <point x="482" y="456"/>
      <point x="500" y="435"/>
      <point x="527" y="435" type="curve" smooth="yes"/>
      <point x="553" y="435"/>
      <point x="582" y="459"/>
      <point x="590" y="489" type="curve" smooth="yes"/>
      <point x="611" y="566"/>
      <point x="548" y="629"/>
      <point x="449" y="629" type="curve" smooth="yes"/>
      <point x="315" y="629"/>
      <point x="202" y="549"/>
      <point x="176" y="453" type="curve" smooth="yes"/>
      <point x="155" y="372"/>
      <point x="193" y="316"/>
      <point x="303" y="274" type="curve" smooth="yes"/>
      <point x="406" y="232"/>
      <point x="433" y="195"/>
      <point x="420" y="145" type="curve" smooth="yes"/>
      <point x="404" y="84"/>
      <point x="355" y="48"/>
      <point x="299" y="48" type="curve" smooth="yes"/>
      <point x="218" y="48"/>
      <point x="177" y="82"/>
      <point x="189" y="127" type="curve" smooth="yes"/>
      <point x="196" y="153" type="line" smooth="yes"/>
      <point x="204" y="184"/>
      <point x="188" y="204"/>
      <point x="161" y="204" type="curve" smooth="yes"/>
      <point x="134" y="204"/>
      <point x="105" y="181"/>
      <point x="97" y="150" type="curve" smooth="yes"/>
      <point x="75" y="68"/>
      <point x="149" y="0"/>
    </contour>
    <contour>
      <point x="334" y="335" type="line"/>
      <point x="261" y="65"/>
      <point x="236" y="10"/>
      <point x="224" y="-34" type="curve" smooth="yes"/>
      <point x="217" y="-59"/>
      <point x="229" y="-70"/>
      <point x="245" y="-70" type="curve" smooth="yes"/>
      <point x="262" y="-70"/>
      <point x="276" y="-58"/>
      <point x="284" y="-34" type="curve" smooth="yes"/>
      <point x="297" y="10"/>
      <point x="299" y="63"/>
      <point x="372" y="335" type="curve"/>
    </contour>
    <contour>
      <point x="370" y="335" type="line"/>
      <point x="436" y="581"/>
      <point x="460" y="626"/>
      <point x="471" y="668" type="curve" smooth="yes"/>
      <point x="477" y="692"/>
      <point x="465" y="704"/>
      <point x="450" y="704" type="curve" smooth="yes"/>
      <point x="434" y="704"/>
      <point x="417" y="693"/>
      <point x="411" y="670" type="curve" smooth="yes"/>
      <point x="401" y="633"/>
      <point x="401" y="585"/>
      <point x="333" y="335" type="curve"/>
    </contour>
    <contour>
      <point x="261" y="0" type="curve" smooth="yes"/>
      <point x="387" y="0"/>
      <point x="483" y="80"/>
      <point x="509" y="177" type="curve" smooth="yes"/>
      <point x="526" y="239"/>
      <point x="496" y="295"/>
      <point x="386" y="343" type="curve" smooth="yes"/>
      <point x="279" y="382"/>
      <point x="253" y="425"/>
      <point x="268" y="482" type="curve" smooth="yes"/>
      <point x="285" y="544"/>
      <point x="348" y="581"/>
      <point x="412" y="581" type="curve" smooth="yes"/>
      <point x="476" y="581"/>
      <point x="508" y="551"/>
      <point x="497" y="512" type="curve" smooth="yes"/>
      <point x="490" y="486" type="line" smooth="yes"/>
      <point x="482" y="456"/>
      <point x="500" y="435"/>
      <point x="527" y="435" type="curve" smooth="yes"/>
      <point x="553" y="435"/>
      <point x="582" y="459"/>
      <point x="590" y="489" type="curve" smooth="yes"/>
      <point x="611" y="566"/>
      <point x="548" y="629"/>
      <point x="449" y="629" type="curve" smooth="yes"/>
      <point x="315" y="629"/>
      <point x="202" y="549"/>
      <point x="176" y="453" type="curve" smooth="yes"/>
      <point x="155" y="372"/>
      <point x="193" y="316"/>
      <point x="303" y="274" type="curve" smooth="yes"/>
      <point x="406" y="232"/>
      <point x="433" y="195"/>
      <point x="420" y="145" type="curve" smooth="yes"/>
      <point x="404" y="84"/>
      <point x="355" y="48"/>
      <point x="299" y="48" type="curve" smooth="yes"/>
      <point x="218" y="48"/>
      <point x="177" y="82"/>
      <point x="189" y="127" type="curve" smooth="yes"/>
      <point x="196" y="153" type="line" smooth="yes"/>
      <point x="204" y="184"/>
      <point x="188" y="204"/>
      <point x="161" y="204" type="curve" smooth="yes"/>
      <point x="134" y="204"/>
      <point x="105" y="181"/>
      <point x="97" y="150" type="curve" smooth="yes"/>
      <point x="75" y="68"/>
      <point x="149" y="0"/>
    </contour>
    <contour>
      <point x="334" y="335" type="line"/>
      <point x="261" y="65"/>
      <point x="236" y="10"/>
      <point x="224" y="-34" type="curve" smooth="yes"/>
      <point x="217" y="-59"/>
      <point x="229" y="-70"/>
      <point x="245" y="-70" type="curve" smooth="yes"/>
      <point x="262" y="-70"/>
      <point x="276" y="-58"/>
      <point x="284" y="-34" type="curve" smooth="yes"/>
      <point x="297" y="10"/>
      <point x="299" y="63"/>
      <point x="372" y="335" type="curve"/>
    </contour>
    <contour>
      <point x="370" y="335" type="line"/>
      <point x="436" y="581"/>
      <point x="460" y="626"/>
      <point x="471" y="668" type="curve" smooth="yes"/>
      <point x="477" y="692"/>
      <point x="465" y="704"/>
      <point x="450" y="704" type="curve" smooth="yes"/>
      <point x="434" y="704"/>
      <point x="417" y="693"/>
      <point x="411" y="670" type="curve" smooth="yes"/>
      <point x="401" y="633"/>
      <point x="401" y="585"/>
      <point x="333" y="335" type="curve"/>
    </contour>
  </outline>
</glyph>
<glyph name="ampersand" format="2">
  <advance width="613"/>
  <unicode hex="0026"/>
  <outline>
    <contour>
      <point x="177" y="153" type="line" smooth="yes"/>
      <point x="41" y="46"/>
      <point x="-19" y="-73"/>
      <point x="-19" y="-169" type="curve" smooth="yes"/>
      <point x="-19" y="-218"/>
      <point x="6.0" y="-245.0"/>
      <point x="50" y="-245" type="curve" smooth="yes"/>
      <point x="82" y="-245"/>
      <point x="108.0" y="-219.0"/>
      <point x="108" y="-187" type="curve" smooth="yes"/>
      <point x="108" y="-140"/>
      <point x="57.0" y="-134.0"/>
      <point x="57" y="-80" type="curve" smooth="yes"/>
      <point x="57" y="-22"/>
      <point x="92" y="37"/>
      <point x="201" y="121" type="curve" smooth="yes"/>
      <point x="531" y="378" type="line" smooth="yes"/>
      <point x="655" y="474"/>
      <point x="699" y="536"/>
      <point x="699" y="629" type="curve" smooth="yes"/>
      <point x="699" y="683"/>
      <point x="659" y="717"/>
      <point x="617" y="717" type="curve" smooth="yes"/>
      <point x="581" y="717"/>
      <point x="554" y="688"/>
      <point x="554" y="663" type="curve" smooth="yes"/>
      <point x="554" y="634"/>
      <point x="612" y="616"/>
      <point x="612" y="569" type="curve" smooth="yes"/>
      <point x="612" y="513"/>
      <point x="579" y="469"/>
      <point x="506" y="412" type="curve" smooth="yes"/>
    </contour>
    <contour>
      <point x="566" y="171" type="curve" smooth="yes"/>
      <point x="566.0" y="121.87155963302752"/>
      <point x="492.1714285714286" y="52.0"/>
      <point x="396" y="52" type="curve" smooth="yes"/>
      <point x="286" y="52"/>
      <point x="220" y="117"/>
      <point x="220" y="221" type="curve" smooth="yes"/>
      <point x="220.0" y="332.43523316062175"/>
      <point x="305" y="424"/>
      <point x="385" y="422" type="curve" smooth="yes"/>
      <point x="440" y="421"/>
      <point x="459.0" y="389.4307692307692"/>
      <point x="459" y="349" type="curve" smooth="yes"/>
      <point x="459.0" y="341.0"/>
      <point x="402.9691832161476" y="279.12084515439113"/>
      <point x="414" y="287" type="curve" smooth="yes"/>
      <point x="441.0515279296935" y="308.35646941817913"/>
      <point x="464.0" y="327.0"/>
      <point x="486" y="327" type="curve" smooth="yes"/>
      <point x="517" y="327.0"/>
      <point x="537.0" y="348.0"/>
      <point x="537" y="375" type="curve" smooth="yes"/>
      <point x="537.0" y="433.4347826086956"/>
      <point x="488.0" y="480.0"/>
      <point x="419" y="480" type="curve" smooth="yes"/>
      <point x="280" y="480"/>
      <point x="148" y="325"/>
      <point x="148.0" y="178" type="curve" smooth="yes"/>
      <point x="148" y="61"/>
      <point x="221" y="-15"/>
      <point x="346" y="-15" type="curve" smooth="yes"/>
      <point x="503.0" y="-15.0"/>
      <point x="646.0" y="116.27196652719665"/>
      <point x="646" y="234" type="curve" smooth="yes"/>
      <point x="646.0" y="282.30882352941177"/>
      <point x="630.6938775510204" y="307.0"/>
      <point x="596" y="307" type="curve" smooth="yes"/>
      <point x="559.6379310344828" y="307.0"/>
      <point x="539.0" y="280.7358490566038"/>
      <point x="539" y="249" type="curve" smooth="yes"/>
      <point x="539.0" y="218.86363636363637"/>
      <point x="566.0" y="211.77272727272728"/>
    </contour>
  </outline>
</glyph>
<glyph name="parenleft" format="2">
  <advance width="395"/>
  <unicode hex="0028"/>
  <outline>
    <contour>
      <point x="168" y="287" type="curve" smooth="yes"/>
      <point x="106" y="56"/>
      <point x="186" y="-120"/>
      <point x="315" y="-172" type="curve" smooth="yes"/>
      <point x="318" y="-173"/>
      <point x="320" y="-173"/>
      <point x="323" y="-173" type="curve" smooth="yes"/>
      <point x="332" y="-173"/>
      <point x="340" y="-165"/>
      <point x="342" y="-155" type="curve" smooth="yes"/>
      <point x="344" y="-149"/>
      <point x="343" y="-141"/>
      <point x="335" y="-138" type="curve" smooth="yes"/>
      <point x="231" y="-83"/>
      <point x="198" y="71"/>
      <point x="256" y="287" type="curve" smooth="yes"/>
      <point x="314" y="504"/>
      <point x="429" y="658"/>
      <point x="563" y="712" type="curve" smooth="yes"/>
      <point x="573" y="716"/>
      <point x="578" y="723"/>
      <point x="580" y="730" type="curve" smooth="yes"/>
      <point x="582" y="739"/>
      <point x="578" y="748"/>
      <point x="569" y="748" type="curve" smooth="yes"/>
      <point x="566" y="748"/>
      <point x="564" y="748"/>
      <point x="561" y="747" type="curve" smooth="yes"/>
      <point x="404" y="694"/>
      <point x="230" y="519"/>
    </contour>
    <contour>
      <point x="168" y="287" type="curve" smooth="yes"/>
      <point x="106" y="56"/>
      <point x="186" y="-120"/>
      <point x="315" y="-172" type="curve" smooth="yes"/>
      <point x="318" y="-173"/>
      <point x="320" y="-173"/>
      <point x="323" y="-173" type="curve" smooth="yes"/>
      <point x="332" y="-173"/>
      <point x="340" y="-165"/>
      <point x="342" y="-155" type="curve" smooth="yes"/>
      <point x="344" y="-149"/>
      <point x="343" y="-141"/>
      <point x="335" y="-138" type="curve" smooth="yes"/>
      <point x="231" y="-83"/>
      <point x="198" y="71"/>
      <point x="256" y="287" type="curve" smooth="yes"/>
      <point x="314" y="504"/>
      <point x="429" y="658"/>
      <point x="563" y="712" type="curve" smooth="yes"/>
      <point x="573" y="716"/>
      <point x="578" y="723"/>
      <point x="580" y="730" type="curve" smooth="yes"/>
      <point x="582" y="739"/>
      <point x="578" y="748"/>
      <point x="569" y="748" type="curve" smooth="yes"/>
      <point x="566" y="748"/>
      <point x="564" y="748"/>
      <point x="561" y="747" type="curve" smooth="yes"/>
      <point x="404" y="694"/>
      <point x="230" y="519"/>
    </contour>
  </outline>
</glyph>
<glyph name="asterisk" format="2">
  <advance width="506"/>
  <unicode hex="002A"/>
  <outline>
    <contour>
      <point x="399" y="516" type="line"/>
      <point x="420" y="593"/>
      <point x="463" y="614"/>
      <point x="478" y="670" type="curve" smooth="yes"/>
      <point x="488" y="709"/>
      <point x="467" y="727"/>
      <point x="441" y="727" type="curve" smooth="yes"/>
      <point x="418" y="727"/>
      <point x="391" y="709"/>
      <point x="381" y="674" type="curve" smooth="yes"/>
      <point x="365" y="618"/>
      <point x="397" y="596"/>
      <point x="375" y="516" type="curve"/>
    </contour>
    <contour>
      <point x="393" y="528" type="line"/>
      <point x="327" y="552"/>
      <point x="329" y="594"/>
      <point x="281" y="611" type="curve" smooth="yes"/>
      <point x="247" y="623"/>
      <point x="217" y="604"/>
      <point x="202" y="579" type="curve" smooth="yes"/>
      <point x="189" y="557"/>
      <point x="192" y="531"/>
      <point x="222" y="519" type="curve" smooth="yes"/>
      <point x="270" y="501"/>
      <point x="311" y="530"/>
      <point x="381" y="506" type="curve"/>
    </contour>
    <contour>
      <point x="377" y="524" type="line"/>
      <point x="316" y="461"/>
      <point x="275" y="466"/>
      <point x="230" y="421" type="curve" smooth="yes"/>
      <point x="198" y="389"/>
      <point x="201" y="359"/>
      <point x="218" y="344" type="curve" smooth="yes"/>
      <point x="233" y="331"/>
      <point x="262" y="332"/>
      <point x="290" y="360" type="curve" smooth="yes"/>
      <point x="337" y="405"/>
      <point x="329" y="445"/>
      <point x="394" y="510" type="curve"/>
    </contour>
    <contour>
      <point x="373" y="508" type="line"/>
      <point x="403" y="446"/>
      <point x="374" y="407"/>
      <point x="395" y="362" type="curve" smooth="yes"/>
      <point x="409" y="330"/>
      <point x="442" y="331"/>
      <point x="467" y="346" type="curve" smooth="yes"/>
      <point x="488" y="360"/>
      <point x="503" y="387"/>
      <point x="491" y="416" type="curve" smooth="yes"/>
      <point x="472" y="462"/>
      <point x="427" y="458"/>
      <point x="397" y="522" type="curve"/>
    </contour>
    <contour>
      <point x="387" y="504" type="line"/>
      <point x="466" y="527"/>
      <point x="491" y="499"/>
      <point x="548" y="516" type="curve" smooth="yes"/>
      <point x="588" y="528"/>
      <point x="606" y="558"/>
      <point x="604" y="583" type="curve" smooth="yes"/>
      <point x="603" y="605"/>
      <point x="583" y="620"/>
      <point x="546" y="610" type="curve" smooth="yes"/>
      <point x="489" y="594"/>
      <point x="469" y="551"/>
      <point x="386" y="526" type="curve"/>
    </contour>
    <contour>
      <point x="399" y="516" type="line"/>
      <point x="420" y="593"/>
      <point x="463" y="614"/>
      <point x="478" y="670" type="curve" smooth="yes"/>
      <point x="488" y="709"/>
      <point x="467" y="727"/>
      <point x="441" y="727" type="curve" smooth="yes"/>
      <point x="418" y="727"/>
      <point x="391" y="709"/>
      <point x="381" y="674" type="curve" smooth="yes"/>
      <point x="365" y="618"/>
      <point x="397" y="596"/>
      <point x="375" y="516" type="curve"/>
    </contour>
    <contour>
      <point x="393" y="528" type="line"/>
      <point x="327" y="552"/>
      <point x="329" y="594"/>
      <point x="281" y="611" type="curve" smooth="yes"/>
      <point x="247" y="623"/>
      <point x="217" y="604"/>
      <point x="202" y="579" type="curve" smooth="yes"/>
      <point x="189" y="557"/>
      <point x="192" y="531"/>
      <point x="222" y="519" type="curve" smooth="yes"/>
      <point x="270" y="501"/>
      <point x="311" y="530"/>
      <point x="381" y="506" type="curve"/>
    </contour>
    <contour>
      <point x="377" y="524" type="line"/>
      <point x="316" y="461"/>
      <point x="275" y="466"/>
      <point x="230" y="421" type="curve" smooth="yes"/>
      <point x="198" y="389"/>
      <point x="201" y="359"/>
      <point x="218" y="344" type="curve" smooth="yes"/>
      <point x="233" y="331"/>
      <point x="262" y="332"/>
      <point x="290" y="360" type="curve" smooth="yes"/>
      <point x="337" y="405"/>
      <point x="329" y="445"/>
      <point x="394" y="510" type="curve"/>
    </contour>
    <contour>
      <point x="373" y="508" type="line"/>
      <point x="403" y="446"/>
      <point x="374" y="407"/>
      <point x="395" y="362" type="curve" smooth="yes"/>
      <point x="409" y="330"/>
      <point x="442" y="331"/>
      <point x="467" y="346" type="curve" smooth="yes"/>
      <point x="488" y="360"/>
      <point x="503" y="387"/>
      <point x="491" y="416" type="curve" smooth="yes"/>
      <point x="472" y="462"/>
      <point x="427" y="458"/>
      <point x="397" y="522" type="curve"/>
    </contour>
    <contour>
      <point x="387" y="504" type="line"/>
      <point x="466" y="527"/>
      <point x="491" y="499"/>
      <point x="548" y="516" type="curve" smooth="yes"/>
      <point x="588" y="528"/>
      <point x="606" y="558"/>
      <point x="604" y="583" type="curve" smooth="yes"/>
      <point x="603" y="605"/>
      <point x="583" y="620"/>
      <point x="546" y="610" type="curve" smooth="yes"/>
      <point x="489" y="594"/>
      <point x="469" y="551"/>
      <point x="386" y="526" type="curve"/>
    </contour>
  </outline>
</glyph>
<glyph name="comma" format="2">
  <advance width="284"/>
  <unicode hex="002C"/>
  <outline>
    <contour>
      <point x="123" y="-18" type="curve" smooth="yes"/>
      <point x="141" y="-18" type="line" smooth="yes"/>
      <point x="155" y="-18"/>
      <point x="159" y="-26"/>
      <point x="157" y="-40" type="curve" smooth="yes"/>
      <point x="146" y="-102"/>
      <point x="115" y="-137"/>
      <point x="76" y="-149" type="curve" smooth="yes"/>
      <point x="65" y="-151" type="line" smooth="yes"/>
      <point x="49" y="-156"/>
      <point x="41" y="-166"/>
      <point x="38" y="-179" type="curve" smooth="yes"/>
      <point x="36" y="-193"/>
      <point x="48" y="-205"/>
      <point x="71" y="-198" type="curve" smooth="yes"/>
      <point x="83" y="-195" type="line" smooth="yes"/>
      <point x="135" y="-181"/>
      <point x="196" y="-123"/>
      <point x="217" y="-4" type="curve" smooth="yes"/>
      <point x="232" y="77"/>
      <point x="202" y="113"/>
      <point x="153" y="113" type="curve" smooth="yes"/>
      <point x="116" y="113"/>
      <point x="80" y="84"/>
      <point x="74" y="49" type="curve" smooth="yes"/>
      <point x="67" y="10"/>
      <point x="88" y="-18"/>
    </contour>
  </outline>
</glyph>
<glyph name="hyphen" format="2">
  <advance width="395"/>
  <unicode hex="002D"/>
  <outline>
    <contour>
      <point x="93" y="242" type="curve" smooth="yes"/>
      <point x="89" y="221"/>
      <point x="95" y="207"/>
      <point x="111" y="207" type="curve" smooth="yes"/>
      <point x="355" y="207" type="line" smooth="yes"/>
      <point x="371" y="207"/>
      <point x="384" y="221"/>
      <point x="388" y="242" type="curve" smooth="yes"/>
      <point x="392" y="264"/>
      <point x="383" y="279"/>
      <point x="368" y="279" type="curve" smooth="yes"/>
      <point x="125" y="279" type="line" smooth="yes"/>
      <point x="110" y="279"/>
      <point x="97" y="264"/>
    </contour>
  </outline>
</glyph>
<glyph name="period" format="2">
  <advance width="272"/>
  <unicode hex="002E"/>
  <outline>
    <contour>
      <point x="133" y="-15" type="curve" smooth="yes"/>
      <point x="171" y="-15"/>
      <point x="207" y="16"/>
      <point x="214" y="54" type="curve" smooth="yes"/>
      <point x="220" y="92"/>
      <point x="196" y="122"/>
      <point x="158" y="122" type="curve" smooth="yes"/>
      <point x="120" y="122"/>
      <point x="84" y="92"/>
      <point x="78" y="54" type="curve" smooth="yes"/>
      <point x="71" y="16"/>
      <point x="95" y="-15"/>
    </contour>
  </outline>
</glyph>
<glyph name="zero" format="2">
  <advance width="566"/>
  <unicode hex="0030"/>
  <outline>
    <contour>
      <point x="397" y="651" type="curve" smooth="yes"/>
      <point x="254" y="651"/>
      <point x="125" y="513"/>
      <point x="92" y="323" type="curve" smooth="yes"/>
      <point x="57" y="127"/>
      <point x="136" y="-15"/>
      <point x="279" y="-15" type="curve" smooth="yes"/>
      <point x="423" y="-15"/>
      <point x="553" y="126"/>
      <point x="588" y="323" type="curve" smooth="yes"/>
      <point x="622" y="514"/>
      <point x="541" y="651"/>
    </contour>
    <contour>
      <point x="466" y="595"/>
      <point x="507" y="468"/>
      <point x="474" y="282" type="curve" smooth="yes"/>
      <point x="449" y="142"/>
      <point x="377" y="41"/>
      <point x="304" y="41" type="curve" smooth="yes"/>
      <point x="212" y="41"/>
      <point x="170" y="169"/>
      <point x="203" y="357" type="curve" smooth="yes"/>
      <point x="227" y="493"/>
      <point x="300" y="595"/>
      <point x="375" y="595" type="curve" smooth="yes"/>
    </contour>
  </outline>
</glyph>
<glyph name="one" format="2">
  <advance width="406"/>
  <unicode hex="0031"/>
  <outline>
    <contour>
      <point x="167" y="543" type="line" smooth="yes"/>
      <point x="148" y="543"/>
      <point x="141" y="553"/>
      <point x="143" y="567" type="curve" smooth="yes"/>
      <point x="145" y="581"/>
      <point x="159" y="592"/>
      <point x="179" y="592" type="curve" smooth="yes"/>
      <point x="200" y="592" type="line" smooth="yes"/>
      <point x="245" y="592"/>
      <point x="280" y="605"/>
      <point x="317" y="636" type="curve" smooth="yes"/>
      <point x="330" y="649"/>
      <point x="342" y="655"/>
      <point x="358" y="655" type="curve" smooth="yes"/>
      <point x="375" y="655"/>
      <point x="384" y="646"/>
      <point x="380" y="623" type="curve" smooth="yes"/>
      <point x="288" y="103" type="line" smooth="yes"/>
      <point x="283" y="75"/>
      <point x="301" y="56"/>
      <point x="328" y="52" type="curve" smooth="yes"/>
      <point x="376" y="48" type="line" smooth="yes"/>
      <point x="393" y="46"/>
      <point x="404" y="39"/>
      <point x="402" y="26" type="curve" smooth="yes"/>
      <point x="398" y="8"/>
      <point x="387" y="0"/>
      <point x="368" y="0" type="curve" smooth="yes"/>
      <point x="65" y="0" type="line" smooth="yes"/>
      <point x="46" y="0"/>
      <point x="36" y="8"/>
      <point x="40" y="26" type="curve" smooth="yes"/>
      <point x="42" y="41"/>
      <point x="55" y="49"/>
      <point x="75" y="51" type="curve" smooth="yes"/>
      <point x="122" y="55" type="line" smooth="yes"/>
      <point x="154" y="58"/>
      <point x="184" y="74"/>
      <point x="189" y="103" type="curve" smooth="yes"/>
      <point x="257" y="486" type="line" smooth="yes"/>
      <point x="264" y="526"/>
      <point x="247" y="543"/>
      <point x="214" y="543" type="curve" smooth="yes"/>
    </contour>
  </outline>
</glyph>
<glyph name="two" format="2">
  <advance width="515"/>
  <unicode hex="0032"/>
  <outline>
    <contour>
      <point x="183" y="168" type="curve" smooth="yes"/>
      <point x="64" y="69" type="line" smooth="yes"/>
      <point x="43" y="51"/>
      <point x="30" y="36"/>
      <point x="28" y="24" type="curve" smooth="yes"/>
      <point x="25" y="7"/>
      <point x="39" y="0"/>
      <point x="58" y="0" type="curve" smooth="yes"/>
      <point x="410" y="0" type="line" smooth="yes"/>
      <point x="445" y="0"/>
      <point x="468" y="10"/>
      <point x="473" y="39" type="curve" smooth="yes"/>
      <point x="498" y="180" type="line" smooth="yes"/>
      <point x="503" y="210"/>
      <point x="461" y="207"/>
      <point x="454" y="187" type="curve" smooth="yes"/>
      <point x="441" y="152" type="line" smooth="yes"/>
      <point x="420" y="104"/>
      <point x="392" y="86"/>
      <point x="348" y="86" type="curve" smooth="yes"/>
      <point x="139" y="86" type="line"/>
      <point x="142" y="66" type="line"/>
      <point x="212" y="122" type="line" smooth="yes"/>
      <point x="444" y="309"/>
      <point x="514" y="387"/>
      <point x="531" y="480" type="curve" smooth="yes"/>
      <point x="550" y="588"/>
      <point x="493" y="651"/>
      <point x="374" y="651" type="curve" smooth="yes"/>
      <point x="238" y="651"/>
      <point x="130" y="553"/>
      <point x="117" y="483" type="curve" smooth="yes"/>
      <point x="110" y="445"/>
      <point x="127" y="423"/>
      <point x="159" y="423" type="curve" smooth="yes"/>
      <point x="191" y="423"/>
      <point x="222" y="448"/>
      <point x="228" y="483" type="curve" smooth="yes"/>
      <point x="236" y="527" type="line" smooth="yes"/>
      <point x="243" y="565"/>
      <point x="269" y="592"/>
      <point x="329" y="592" type="curve" smooth="yes"/>
      <point x="394" y="592"/>
      <point x="440" y="548"/>
      <point x="423" y="454" type="curve" smooth="yes"/>
      <point x="409" y="374"/>
      <point x="349" y="304"/>
    </contour>
  </outline>
</glyph>
<glyph name="three" format="2">
  <advance width="514"/>
  <unicode hex="0033"/>
  <outline>
    <contour>
      <point x="71" y="131" type="curve" smooth="yes"/>
      <point x="57" y="50"/>
      <point x="135" y="-16"/>
      <point x="231" y="-16" type="curve" smooth="yes"/>
      <point x="369" y="-16"/>
      <point x="479" y="64"/>
      <point x="500" y="179" type="curve" smooth="yes"/>
      <point x="514" y="263"/>
      <point x="463" y="332"/>
      <point x="359" y="332" type="curve"/>
      <point x="350" y="318" type="line"/>
      <point x="435" y="318"/>
      <point x="521" y="401"/>
      <point x="536" y="499" type="curve" smooth="yes"/>
      <point x="551" y="595"/>
      <point x="489" y="650"/>
      <point x="386" y="650" type="curve" smooth="yes"/>
      <point x="261" y="650"/>
      <point x="139" y="555"/>
      <point x="126" y="483" type="curve" smooth="yes"/>
      <point x="119" y="445"/>
      <point x="138" y="423"/>
      <point x="169" y="423" type="curve" smooth="yes"/>
      <point x="200" y="423"/>
      <point x="232" y="448"/>
      <point x="238" y="483" type="curve" smooth="yes"/>
      <point x="247" y="531" type="line" smooth="yes"/>
      <point x="253" y="566"/>
      <point x="286" y="592"/>
      <point x="346" y="592" type="curve" smooth="yes"/>
      <point x="404" y="592"/>
      <point x="446" y="555"/>
      <point x="432" y="475" type="curve" smooth="yes"/>
      <point x="416" y="386"/>
      <point x="358" y="341"/>
      <point x="288" y="341" type="curve" smooth="yes"/>
      <point x="258" y="341" type="line" smooth="yes"/>
      <point x="241" y="341"/>
      <point x="227" y="329"/>
      <point x="224" y="313" type="curve" smooth="yes"/>
      <point x="222" y="298"/>
      <point x="233" y="288"/>
      <point x="251" y="288" type="curve" smooth="yes"/>
      <point x="301" y="288" type="line" smooth="yes"/>
      <point x="392" y="288"/>
      <point x="417" y="230"/>
      <point x="404" y="159" type="curve" smooth="yes"/>
      <point x="392" y="89"/>
      <point x="342" y="39"/>
      <point x="275" y="39" type="curve" smooth="yes"/>
      <point x="217" y="39"/>
      <point x="178" y="67"/>
      <point x="184" y="104" type="curve" smooth="yes"/>
      <point x="189" y="130" type="line" smooth="yes"/>
      <point x="195" y="167"/>
      <point x="173" y="193"/>
      <point x="140" y="193" type="curve" smooth="yes"/>
      <point x="109" y="193"/>
      <point x="77" y="167"/>
    </contour>
  </outline>
</glyph>
<glyph name="four" format="2">
  <advance width="502"/>
  <unicode hex="0034"/>
  <outline>
    <contour>
      <point x="500" y="215" type="curve" smooth="yes"/>
      <point x="78" y="215" type="line"/>
      <point x="89" y="185" type="line"/>
      <point x="403" y="587" type="line"/>
      <point x="385" y="592" type="line"/>
      <point x="298" y="99" type="line" smooth="yes"/>
      <point x="294" y="71"/>
      <point x="279" y="56"/>
      <point x="252" y="51" type="curve" smooth="yes"/>
      <point x="205" y="44" type="line" smooth="yes"/>
      <point x="185" y="41"/>
      <point x="174" y="35"/>
      <point x="172" y="20" type="curve" smooth="yes"/>
      <point x="169" y="6"/>
      <point x="177" y="0"/>
      <point x="200" y="0" type="curve" smooth="yes"/>
      <point x="445" y="0" type="line" smooth="yes"/>
      <point x="467" y="0"/>
      <point x="478" y="6"/>
      <point x="481" y="20" type="curve" smooth="yes"/>
      <point x="483" y="35"/>
      <point x="473" y="41"/>
      <point x="455" y="44" type="curve" smooth="yes"/>
      <point x="426" y="49" type="line" smooth="yes"/>
      <point x="401" y="52"/>
      <point x="391" y="68"/>
      <point x="396" y="96" type="curve" smooth="yes"/>
      <point x="487" y="615" type="line" smooth="yes"/>
      <point x="490" y="632"/>
      <point x="486" y="647"/>
      <point x="469" y="647" type="curve" smooth="yes"/>
      <point x="416" y="647" type="line" smooth="yes"/>
      <point x="394" y="647"/>
      <point x="383" y="638"/>
      <point x="371" y="624" type="curve" smooth="yes"/>
      <point x="66" y="239" type="line" smooth="yes"/>
      <point x="46" y="214"/>
      <point x="42" y="202"/>
      <point x="40" y="193" type="curve" smooth="yes"/>
      <point x="37" y="174"/>
      <point x="47" y="163"/>
      <point x="69" y="163" type="curve" smooth="yes"/>
      <point x="491" y="163" type="line" smooth="yes"/>
      <point x="510" y="163"/>
      <point x="521" y="172"/>
      <point x="524" y="192" type="curve" smooth="yes"/>
      <point x="526" y="208"/>
      <point x="516" y="215"/>
    </contour>
  </outline>
</glyph>
<glyph name="five" format="2">
  <advance width="494"/>
  <unicode hex="0035"/>
  <outline>
    <contour>
      <point x="61" y="127" type="curve" smooth="yes"/>
      <point x="48" y="50"/>
      <point x="119" y="-15"/>
      <point x="222" y="-15" type="curve" smooth="yes"/>
      <point x="354" y="-15"/>
      <point x="470" y="75"/>
      <point x="494" y="211" type="curve" smooth="yes"/>
      <point x="515" y="328"/>
      <point x="449" y="407"/>
      <point x="328" y="407" type="curve" smooth="yes"/>
      <point x="262" y="407"/>
      <point x="202" y="380"/>
      <point x="152" y="319" type="curve"/>
      <point x="179" y="309" type="line"/>
      <point x="225" y="565" type="line"/>
      <point x="190" y="535" type="line"/>
      <point x="494" y="535" type="line" smooth="yes"/>
      <point x="517" y="535"/>
      <point x="534" y="548"/>
      <point x="537" y="569" type="curve" smooth="yes"/>
      <point x="554" y="661" type="line" smooth="yes"/>
      <point x="556" y="676"/>
      <point x="548" y="681"/>
      <point x="538" y="681" type="curve" smooth="yes"/>
      <point x="524" y="680"/>
      <point x="515" y="672"/>
      <point x="511" y="662" type="curve" smooth="yes"/>
      <point x="497" y="638"/>
      <point x="486" y="626"/>
      <point x="462" y="626" type="curve" smooth="yes"/>
      <point x="215" y="626" type="line" smooth="yes"/>
      <point x="195" y="626"/>
      <point x="175" y="611"/>
      <point x="171" y="589" type="curve" smooth="yes"/>
      <point x="120" y="301" type="line" smooth="yes"/>
      <point x="117" y="285"/>
      <point x="128" y="272"/>
      <point x="142" y="272" type="curve" smooth="yes"/>
      <point x="155" y="272"/>
      <point x="170" y="280"/>
      <point x="185" y="297" type="curve" smooth="yes"/>
      <point x="219" y="333"/>
      <point x="255" y="346"/>
      <point x="293" y="346" type="curve" smooth="yes"/>
      <point x="373" y="346"/>
      <point x="410" y="287"/>
      <point x="391" y="182" type="curve" smooth="yes"/>
      <point x="375" y="89"/>
      <point x="319" y="36"/>
      <point x="255" y="36" type="curve" smooth="yes"/>
      <point x="197" y="36"/>
      <point x="167" y="64"/>
      <point x="173" y="94" type="curve" smooth="yes"/>
      <point x="178" y="126" type="line" smooth="yes"/>
      <point x="185" y="164"/>
      <point x="163" y="189"/>
      <point x="130" y="189" type="curve" smooth="yes"/>
      <point x="99" y="189"/>
      <point x="68" y="162"/>
    </contour>
  </outline>
</glyph>
<glyph name="six" format="2">
  <advance width="519"/>
  <unicode hex="0036"/>
  <outline>
    <contour>
      <point x="509" y="651" type="line" smooth="yes"/>
      <point x="307" y="651"/>
      <point x="126" y="481"/>
      <point x="89" y="272" type="curve" smooth="yes"/>
      <point x="57" y="89"/>
      <point x="136" y="-15"/>
      <point x="253" y="-15" type="curve" smooth="yes"/>
      <point x="382" y="-15"/>
      <point x="498" y="90"/>
      <point x="521" y="219" type="curve" smooth="yes"/>
      <point x="542" y="339"/>
      <point x="481" y="405"/>
      <point x="377" y="405" type="curve" smooth="yes"/>
      <point x="263" y="405"/>
      <point x="158" y="322"/>
      <point x="140" y="222" type="curve"/>
      <point x="168" y="208" type="line"/>
      <point x="181" y="285"/>
      <point x="251" y="340"/>
      <point x="327" y="340" type="curve" smooth="yes"/>
      <point x="392" y="340"/>
      <point x="438" y="288"/>
      <point x="420" y="186" type="curve" smooth="yes"/>
      <point x="404" y="95"/>
      <point x="354" y="44"/>
      <point x="288" y="44" type="curve" smooth="yes"/>
      <point x="212" y="44"/>
      <point x="165" y="136"/>
      <point x="194" y="302" type="curve" smooth="yes"/>
      <point x="226" y="481"/>
      <point x="354" y="587"/>
      <point x="502" y="597" type="curve" smooth="yes"/>
      <point x="531" y="599" type="line" smooth="yes"/>
      <point x="543" y="600"/>
      <point x="556" y="609"/>
      <point x="559" y="624" type="curve" smooth="yes"/>
      <point x="562" y="639"/>
      <point x="553" y="651"/>
      <point x="539" y="651" type="curve" smooth="yes"/>
    </contour>
  </outline>
</glyph>
<glyph name="seven" format="2">
  <advance width="455"/>
  <unicode hex="0037"/>
  <outline>
    <contour>
      <point x="243" y="-9" type="line" smooth="yes"/>
      <point x="254" y="-9"/>
      <point x="266" y="3"/>
      <point x="268" y="15" type="curve" smooth="yes"/>
      <point x="294" y="166"/>
      <point x="330" y="286"/>
      <point x="527" y="539" type="curve" smooth="yes"/>
      <point x="548" y="567"/>
      <point x="559" y="583"/>
      <point x="562" y="599" type="curve" smooth="yes"/>
      <point x="564" y="614"/>
      <point x="551" y="622"/>
      <point x="536" y="622" type="curve" smooth="yes"/>
      <point x="215" y="622" type="line" smooth="yes"/>
      <point x="196" y="622"/>
      <point x="184" y="626"/>
      <point x="178" y="635" type="curve" smooth="yes"/>
      <point x="171" y="644"/>
      <point x="166" y="650"/>
      <point x="157" y="650" type="curve" smooth="yes"/>
      <point x="145" y="650"/>
      <point x="133" y="640"/>
      <point x="129" y="618" type="curve" smooth="yes"/>
      <point x="105" y="480" type="line" smooth="yes"/>
      <point x="102" y="467"/>
      <point x="109" y="457"/>
      <point x="122" y="457" type="curve" smooth="yes"/>
      <point x="135" y="457"/>
      <point x="143" y="467"/>
      <point x="151" y="483" type="curve" smooth="yes"/>
      <point x="163" y="507" type="line" smooth="yes"/>
      <point x="174" y="528"/>
      <point x="191" y="536"/>
      <point x="209" y="536" type="curve" smooth="yes"/>
      <point x="492" y="536" type="line"/>
      <point x="480" y="556" type="line"/>
      <point x="427" y="490" type="line" smooth="yes"/>
      <point x="223" y="232"/>
      <point x="179" y="146"/>
      <point x="155" y="14" type="curve" smooth="yes"/>
      <point x="154" y="3"/>
      <point x="161" y="-9"/>
      <point x="174" y="-9" type="curve" smooth="yes"/>
    </contour>
  </outline>
</glyph>
<glyph name="eight" format="2">
  <advance width="482"/>
  <unicode hex="0038"/>
  <outline>
    <contour>
      <point x="231" y="-15" type="curve" smooth="yes"/>
      <point x="347" y="-15"/>
      <point x="451" y="55"/>
      <point x="468" y="154" type="curve" smooth="yes"/>
      <point x="481" y="225"/>
      <point x="447" y="289"/>
      <point x="335" y="334" type="curve" smooth="yes"/>
      <point x="225" y="375"/>
      <point x="203" y="430"/>
      <point x="214" y="495" type="curve" smooth="yes"/>
      <point x="224" y="552"/>
      <point x="274" y="593"/>
      <point x="345" y="593" type="curve" smooth="yes"/>
      <point x="412" y="593"/>
      <point x="449" y="548"/>
      <point x="436" y="475" type="curve" smooth="yes"/>
      <point x="426" y="418"/>
      <point x="382" y="354"/>
      <point x="326" y="324" type="curve"/>
      <point x="332" y="302" type="line"/>
      <point x="431" y="325"/>
      <point x="515" y="408"/>
      <point x="529" y="489" type="curve" smooth="yes"/>
      <point x="545" y="577"/>
      <point x="491" y="651"/>
      <point x="379" y="651" type="curve" smooth="yes"/>
      <point x="251" y="651"/>
      <point x="140" y="566"/>
      <point x="122" y="463" type="curve" smooth="yes"/>
      <point x="105" y="371"/>
      <point x="147" y="308"/>
      <point x="259" y="263" type="curve" smooth="yes"/>
      <point x="361" y="223"/>
      <point x="382" y="184"/>
      <point x="372" y="127" type="curve" smooth="yes"/>
      <point x="362" y="70"/>
      <point x="325" y="38"/>
      <point x="259" y="38" type="curve" smooth="yes"/>
      <point x="187" y="38"/>
      <point x="154" y="87"/>
      <point x="167" y="160" type="curve" smooth="yes"/>
      <point x="175" y="205"/>
      <point x="203" y="251"/>
      <point x="258" y="288" type="curve"/>
      <point x="254" y="302" type="line"/>
      <point x="158" y="284"/>
      <point x="88" y="226"/>
      <point x="73" y="142" type="curve" smooth="yes"/>
      <point x="57" y="49"/>
      <point x="108" y="-15"/>
    </contour>
  </outline>
</glyph>
<glyph name="less" format="2">
  <advance width="549"/>
  <unicode hex="003C"/>
  <outline>
    <contour>
      <point x="94" y="241" type="curve" smooth="yes"/>
      <point x="97" y="226"/>
      <point x="108" y="221"/>
      <point x="124" y="226" type="curve" smooth="yes"/>
      <point x="546" y="370" type="line" smooth="yes"/>
      <point x="562" y="375"/>
      <point x="570" y="388"/>
      <point x="568" y="402" type="curve" smooth="yes"/>
      <point x="565" y="418"/>
      <point x="552" y="424"/>
      <point x="537" y="419" type="curve" smooth="yes"/>
      <point x="115" y="275" type="line" smooth="yes"/>
      <point x="101" y="270"/>
      <point x="92" y="256"/>
    </contour>
    <contour>
      <point x="97" y="257" type="curve" smooth="yes"/>
      <point x="90" y="242"/>
      <point x="93" y="228"/>
      <point x="106" y="223" type="curve" smooth="yes"/>
      <point x="477" y="79" type="line" smooth="yes"/>
      <point x="490" y="74"/>
      <point x="505" y="80"/>
      <point x="514" y="96" type="curve" smooth="yes"/>
      <point x="521" y="110"/>
      <point x="518" y="123"/>
      <point x="504" y="128" type="curve" smooth="yes"/>
      <point x="132" y="272" type="line" smooth="yes"/>
      <point x="118" y="277"/>
      <point x="105" y="272"/>
    </contour>
  </outline>
</glyph>
<glyph name="question" format="2">
  <advance width="471"/>
  <unicode hex="003F"/>
  <outline>
    <contour>
      <point x="152" y="287" type="line" smooth="yes"/>
      <point x="152" y="305"/>
      <point x="162" y="325"/>
      <point x="187" y="334" type="curve" smooth="yes"/>
      <point x="290" y="372" type="line" smooth="yes"/>
      <point x="372" y="403"/>
      <point x="419" y="459"/>
      <point x="430" y="520" type="curve" smooth="yes"/>
      <point x="448" y="622"/>
      <point x="406" y="668"/>
      <point x="329" y="668" type="curve" smooth="yes"/>
      <point x="292" y="668"/>
      <point x="268" y="651"/>
      <point x="261" y="612" type="curve" smooth="yes"/>
      <point x="254" y="575" type="line" smooth="yes"/>
      <point x="248" y="541"/>
      <point x="217" y="515"/>
      <point x="185" y="515" type="curve" smooth="yes"/>
      <point x="155" y="515"/>
      <point x="139" y="537"/>
      <point x="145" y="575" type="curve" smooth="yes"/>
      <point x="157" y="642"/>
      <point x="252" y="713"/>
      <point x="359" y="713" type="curve" smooth="yes"/>
      <point x="486" y="713"/>
      <point x="555" y="656"/>
      <point x="536" y="549" type="curve" smooth="yes"/>
      <point x="518" y="449"/>
      <point x="439" y="372"/>
      <point x="301" y="325" type="curve" smooth="yes"/>
      <point x="245" y="305" type="line" smooth="yes"/>
      <point x="229" y="299"/>
      <point x="220" y="284"/>
      <point x="215" y="269" type="curve" smooth="yes"/>
      <point x="200" y="218" type="line" smooth="yes"/>
      <point x="195" y="199"/>
      <point x="186" y="190"/>
      <point x="170" y="190" type="curve" smooth="yes"/>
      <point x="153" y="190"/>
      <point x="149" y="203"/>
      <point x="150" y="219" type="curve" smooth="yes"/>
    </contour>
    <component base="period" xScale="0.9329999999999999" yxScale="0.16451307300099782" yScale="0.9329999999999999" xOffset="-5" yOffset="2"/>
  </outline>
</glyph>
<glyph name="at" format="2">
  <advance width="778"/>
  <unicode hex="0040"/>
  <outline>
    <contour>
      <point x="533" y="241" type="curve"/>
      <point x="534" y="270" type="line"/>
      <point x="510" y="279"/>
      <point x="485" y="286"/>
      <point x="447" y="286" type="curve" smooth="yes"/>
      <point x="342" y="286"/>
      <point x="287" y="238"/>
      <point x="278" y="188" type="curve" smooth="yes"/>
      <point x="268" y="128"/>
      <point x="308" y="91"/>
      <point x="378" y="91" type="curve" smooth="yes"/>
      <point x="431" y="91"/>
      <point x="487" y="115"/>
      <point x="527" y="158" type="curve"/>
      <point x="510" y="186" type="line"/>
      <point x="486" y="153"/>
      <point x="451" y="139"/>
      <point x="418" y="139" type="curve" smooth="yes"/>
      <point x="380" y="139"/>
      <point x="356" y="161"/>
      <point x="363" y="199" type="curve" smooth="yes"/>
      <point x="368" y="227"/>
      <point x="394" y="251"/>
      <point x="440" y="251" type="curve" smooth="yes"/>
      <point x="478" y="251"/>
      <point x="507" y="247"/>
    </contour>
    <contour>
      <point x="324" y="363" type="curve" smooth="yes"/>
      <point x="320" y="342"/>
      <point x="332" y="328"/>
      <point x="350" y="328" type="curve" smooth="yes"/>
      <point x="380" y="328"/>
      <point x="403" y="349"/>
      <point x="407" y="377" type="curve" smooth="yes"/>
      <point x="410" y="393" type="line" smooth="yes"/>
      <point x="414" y="415"/>
      <point x="434" y="425"/>
      <point x="460" y="425" type="curve" smooth="yes"/>
      <point x="500" y="425"/>
      <point x="516" y="402"/>
      <point x="513" y="350" type="curve" smooth="yes"/>
      <point x="500" y="193" type="line" smooth="yes"/>
      <point x="495" y="120"/>
      <point x="530" y="91"/>
      <point x="583" y="91" type="curve" smooth="yes"/>
      <point x="677" y="91"/>
      <point x="759" y="180"/>
      <point x="782" y="311" type="curve" smooth="yes"/>
      <point x="812" y="484"/>
      <point x="700" y="614"/>
      <point x="516" y="614" type="curve" smooth="yes"/>
      <point x="308" y="614"/>
      <point x="130" y="472"/>
      <point x="96" y="277" type="curve" smooth="yes"/>
      <point x="59" y="66"/>
      <point x="179" y="-83"/>
      <point x="390" y="-83" type="curve" smooth="yes"/>
      <point x="514" y="-83"/>
      <point x="630" y="-36"/>
      <point x="704" y="30" type="curve" smooth="yes"/>
      <point x="737" y="59"/>
      <point x="721" y="90"/>
      <point x="685" y="59" type="curve" smooth="yes"/>
      <point x="612" y="-1"/>
      <point x="507" y="-36"/>
      <point x="400" y="-36" type="curve" smooth="yes"/>
      <point x="221" y="-36"/>
      <point x="116" y="102"/>
      <point x="147" y="277" type="curve" smooth="yes"/>
      <point x="176" y="445"/>
      <point x="328" y="567"/>
      <point x="502" y="567" type="curve" smooth="yes"/>
      <point x="658" y="567"/>
      <point x="755" y="456"/>
      <point x="730" y="310" type="curve" smooth="yes"/>
      <point x="711" y="205"/>
      <point x="665" y="134"/>
      <point x="611" y="134" type="curve" smooth="yes"/>
      <point x="576" y="134"/>
      <point x="566" y="158"/>
      <point x="569" y="201" type="curve" smooth="yes"/>
      <point x="579" y="367" type="line" smooth="yes"/>
      <point x="583" y="429"/>
      <point x="553" y="461"/>
      <point x="493" y="461" type="curve" smooth="yes"/>
      <point x="458" y="461"/>
      <point x="429" y="450"/>
      <point x="397" y="433" type="curve" smooth="yes"/>
      <point x="352" y="408"/>
      <point x="328" y="385"/>
    </contour>
  </outline>
</glyph>
<glyph name="A" format="2">
  <advance width="608"/>
  <unicode hex="0041"/>
  <outline>
    <contour>
      <point x="230" y="254" type="line"/>
      <point x="216" y="211" type="line"/>
      <point x="504" y="211" type="line"/>
      <point x="515" y="254" type="line"/>
    </contour>
    <contour>
      <point x="121" y="121" type="line" smooth="yes"/>
      <point x="100" y="90"/>
      <point x="70" y="64"/>
      <point x="42" y="54" type="curve" smooth="yes"/>
      <point x="16" y="45"/>
      <point x="3" y="35"/>
      <point x="3" y="22" type="curve" smooth="yes"/>
      <point x="3" y="8"/>
      <point x="12.0" y="0"/>
      <point x="28" y="0" type="curve" smooth="yes"/>
      <point x="197" y="0" type="line" smooth="yes"/>
      <point x="221" y="0"/>
      <point x="235" y="7"/>
      <point x="235" y="22" type="curve" smooth="yes"/>
      <point x="235.0" y="33.85294117647059"/>
      <point x="218.5245574809287" y="44.08197909784411"/>
      <point x="194" y="53" type="curve" smooth="yes"/>
      <point x="171.8684440866551" y="61.66017405304801"/>
      <point x="164" y="71"/>
      <point x="164" y="82" type="curve" smooth="yes"/>
      <point x="164" y="91"/>
      <point x="167" y="101"/>
      <point x="179" y="118" type="curve" smooth="yes"/>
      <point x="296" y="287" type="line" smooth="yes"/>
      <point x="467" y="534"/>
      <point x="536" y="638"/>
      <point x="591" y="638" type="curve"/>
      <point x="513" y="650" type="line"/>
      <point x="498" y="446"/>
      <point x="473" y="262"/>
      <point x="448" y="113" type="curve" smooth="yes"/>
      <point x="443" y="82"/>
      <point x="421" y="63"/>
      <point x="402" y="56" type="curve" smooth="yes"/>
      <point x="374" y="46" type="line" smooth="yes"/>
      <point x="359" y="41"/>
      <point x="342" y="35"/>
      <point x="342" y="21" type="curve" smooth="yes"/>
      <point x="342" y="5"/>
      <point x="347" y="0"/>
      <point x="371" y="0" type="curve" smooth="yes"/>
      <point x="566" y="0" type="line" smooth="yes"/>
      <point x="598" y="0"/>
      <point x="614" y="10"/>
      <point x="614" y="21" type="curve" smooth="yes"/>
      <point x="614" y="33"/>
      <point x="606" y="38"/>
      <point x="583" y="51" type="curve" smooth="yes"/>
      <point x="556" y="66"/>
      <point x="549" y="83"/>
      <point x="552" y="115" type="curve" smooth="yes"/>
      <point x="566" y="271"/>
      <point x="585" y="440"/>
      <point x="611" y="606" type="curve" smooth="yes"/>
      <point x="616" y="636"/>
      <point x="665" y="650"/>
      <point x="665" y="676" type="curve" smooth="yes"/>
      <point x="665" y="691"/>
      <point x="660" y="700"/>
      <point x="643" y="700" type="curve" smooth="yes"/>
      <point x="610" y="700" type="line" smooth="yes"/>
      <point x="528" y="700"/>
      <point x="433" y="578"/>
      <point x="247" y="305" type="curve" smooth="yes"/>
    </contour>
  </outline>
</glyph>
<glyph name="B" format="2">
  <advance width="655"/>
  <unicode hex="0042"/>
  <outline>
    <contour>
      <point x="663" y="172" type="curve" smooth="yes"/>
      <point x="691" y="276"/>
      <point x="614" y="345"/>
      <point x="472" y="345" type="curve" smooth="yes"/>
      <point x="461" y="345"/>
      <point x="454" y="349"/>
      <point x="443" y="346" type="curve"/>
      <point x="431" y="335" type="line"/>
      <point x="572" y="335"/>
      <point x="684" y="403"/>
      <point x="711" y="505" type="curve" smooth="yes"/>
      <point x="743" y="624"/>
      <point x="655" y="700"/>
      <point x="485" y="700" type="curve" smooth="yes"/>
      <point x="256" y="700" type="line" smooth="yes"/>
      <point x="236" y="700"/>
      <point x="224" y="693"/>
      <point x="221" y="681" type="curve" smooth="yes"/>
      <point x="218" y="670"/>
      <point x="226" y="661"/>
      <point x="243" y="658" type="curve" smooth="yes"/>
      <point x="266" y="652" type="line" smooth="yes"/>
      <point x="288" y="647"/>
      <point x="297" y="630"/>
      <point x="291" y="607" type="curve" smooth="yes"/>
      <point x="155" y="92" type="line" smooth="yes"/>
      <point x="149" y="70"/>
      <point x="131" y="52"/>
      <point x="105" y="48" type="curve" smooth="yes"/>
      <point x="79" y="42" type="line" smooth="yes"/>
      <point x="60" y="38"/>
      <point x="48" y="30"/>
      <point x="45" y="19" type="curve" smooth="yes"/>
      <point x="42" y="7"/>
      <point x="51" y="0"/>
      <point x="71" y="0" type="curve" smooth="yes"/>
      <point x="358" y="0" type="line" smooth="yes"/>
      <point x="516" y="0"/>
      <point x="636" y="67"/>
    </contour>
    <contour>
      <point x="417" y="308" type="line" smooth="yes"/>
      <point x="526" y="308"/>
      <point x="585" y="258"/>
      <point x="565" y="180" type="curve" smooth="yes"/>
      <point x="544" y="103"/>
      <point x="467" y="49"/>
      <point x="380" y="49" type="curve" smooth="yes"/>
      <point x="304" y="49" type="line" smooth="yes"/>
      <point x="271" y="49"/>
      <point x="253" y="67"/>
      <point x="260" y="96" type="curve" smooth="yes"/>
      <point x="406" y="646" type="line"/>
      <point x="467" y="646" type="line" smooth="yes"/>
      <point x="578" y="646"/>
      <point x="635" y="593"/>
      <point x="613" y="513" type="curve" smooth="yes"/>
      <point x="589" y="421"/>
      <point x="507" y="356"/>
      <point x="417" y="356" type="curve" smooth="yes"/>
      <point x="327" y="356" type="line"/>
      <point x="303" y="308" type="line"/>
    </contour>
  </outline>
</glyph>
<glyph name="C" format="2">
  <advance width="636"/>
  <unicode hex="0043"/>
  <outline>
    <contour>
      <point x="663" y="190" type="curve" smooth="yes"/>
      <point x="663" y="200"/>
      <point x="658" y="206"/>
      <point x="651" y="206" type="curve" smooth="yes"/>
      <point x="641" y="206"/>
      <point x="631" y="195"/>
      <point x="615" y="172" type="curve" smooth="yes"/>
      <point x="559" y="93"/>
      <point x="499" y="59.0"/>
      <point x="409" y="59" type="curve" smooth="yes"/>
      <point x="310" y="59"/>
      <point x="242.0" y="146.0"/>
      <point x="242" y="278" type="curve" smooth="yes"/>
      <point x="242" y="462"/>
      <point x="391" y="666"/>
      <point x="544" y="666" type="curve" smooth="yes"/>
      <point x="618" y="666"/>
      <point x="651" y="641"/>
      <point x="683" y="583" type="curve" smooth="yes"/>
      <point x="708" y="538" type="line" smooth="yes"/>
      <point x="716" y="523"/>
      <point x="724" y="512"/>
      <point x="738" y="512" type="curve" smooth="yes"/>
      <point x="751" y="512"/>
      <point x="761" y="520"/>
      <point x="760" y="540" type="curve" smooth="yes"/>
      <point x="755" y="679" type="line" smooth="yes"/>
      <point x="754" y="699"/>
      <point x="745" y="711"/>
      <point x="730" y="711" type="curve" smooth="yes"/>
      <point x="713" y="711"/>
      <point x="699" y="685"/>
      <point x="680" y="685" type="curve" smooth="yes"/>
      <point x="656" y="685"/>
      <point x="614" y="715"/>
      <point x="551" y="715" type="curve" smooth="yes"/>
      <point x="338" y="715"/>
      <point x="134" y="460"/>
      <point x="134" y="229" type="curve" smooth="yes"/>
      <point x="134.0" y="83.0"/>
      <point x="220.7038626609442" y="-15.0"/>
      <point x="356" y="-15" type="curve" smooth="yes"/>
      <point x="501.4035087719298" y="-15.0"/>
      <point x="610.7185825275901" y="64.38911816964684"/>
      <point x="652" y="154" type="curve" smooth="yes"/>
      <point x="658" y="167"/>
      <point x="663.0" y="178.3"/>
    </contour>
  </outline>
</glyph>
<glyph name="D" format="2">
  <advance width="721"/>
  <unicode hex="0044"/>
  <outline>
    <contour>
      <point x="63" y="19" type="curve" smooth="yes"/>
      <point x="60" y="6"/>
      <point x="67" y="0"/>
      <point x="89" y="0" type="curve" smooth="yes"/>
      <point x="376" y="0" type="line" smooth="yes"/>
      <point x="557" y="0"/>
      <point x="726" y="123"/>
      <point x="769" y="290" type="curve" smooth="yes"/>
      <point x="833" y="529"/>
      <point x="706" y="700"/>
      <point x="498" y="700" type="curve" smooth="yes"/>
      <point x="273" y="700" type="line" smooth="yes"/>
      <point x="251" y="700"/>
      <point x="241" y="694"/>
      <point x="238" y="681" type="curve" smooth="yes"/>
      <point x="234" y="667"/>
      <point x="243" y="661"/>
      <point x="260" y="658" type="curve" smooth="yes"/>
      <point x="283" y="652" type="line" smooth="yes"/>
      <point x="303" y="647"/>
      <point x="307" y="634"/>
      <point x="304" y="607" type="curve" smooth="yes"/>
      <point x="285" y="470"/>
      <point x="253" y="316"/>
      <point x="168" y="92" type="curve" smooth="yes"/>
      <point x="159" y="67"/>
      <point x="147" y="53"/>
      <point x="123" y="48" type="curve" smooth="yes"/>
      <point x="97" y="42" type="line" smooth="yes"/>
      <point x="78" y="38"/>
      <point x="67" y="33"/>
    </contour>
    <contour>
      <point x="394" y="54" type="curve" smooth="yes"/>
      <point x="344" y="54" type="line" smooth="yes"/>
      <point x="300" y="54"/>
      <point x="287" y="82"/>
      <point x="294" y="136" type="curve" smooth="yes"/>
      <point x="316" y="305"/>
      <point x="359" y="452"/>
      <point x="415" y="595" type="curve" smooth="yes"/>
      <point x="428" y="629"/>
      <point x="440" y="646"/>
      <point x="471" y="646" type="curve" smooth="yes"/>
      <point x="502" y="646" type="line" smooth="yes"/>
      <point x="634" y="646"/>
      <point x="716" y="502"/>
      <point x="665" y="310" type="curve" smooth="yes"/>
      <point x="626" y="160"/>
      <point x="510" y="54"/>
    </contour>
  </outline>
</glyph>
<glyph name="E" format="2">
  <advance width="610"/>
  <unicode hex="0045"/>
  <outline>
    <contour>
      <point x="311" y="360" type="line"/>
      <point x="293" y="314" type="line"/>
      <point x="460" y="314" type="line" smooth="yes"/>
      <point x="489" y="314"/>
      <point x="509" y="301"/>
      <point x="513" y="289" type="curve" smooth="yes"/>
      <point x="521" y="267" type="line" smooth="yes"/>
      <point x="525" y="255"/>
      <point x="532" y="248"/>
      <point x="542" y="248" type="curve" smooth="yes"/>
      <point x="557" y="248"/>
      <point x="566" y="259"/>
      <point x="569" y="273" type="curve" smooth="yes"/>
      <point x="604" y="405" type="line" smooth="yes"/>
      <point x="607" y="419"/>
      <point x="605" y="431"/>
      <point x="591" y="431" type="curve" smooth="yes"/>
      <point x="575" y="431"/>
      <point x="565" y="420"/>
      <point x="549" y="402" type="curve" smooth="yes"/>
      <point x="533" y="382" type="line" smooth="yes"/>
      <point x="519" y="367"/>
      <point x="494" y="360"/>
      <point x="468" y="360" type="curve" smooth="yes"/>
    </contour>
    <contour>
      <point x="223" y="679" type="curve" smooth="yes"/>
      <point x="219" y="665"/>
      <point x="230" y="659"/>
      <point x="248" y="655" type="curve" smooth="yes"/>
      <point x="277" y="649" type="line" smooth="yes"/>
      <point x="290" y="646"/>
      <point x="295" y="632"/>
      <point x="291" y="613" type="curve"/>
      <point x="262" y="437"/>
      <point x="212" y="266"/>
      <point x="156" y="104" type="curve"/>
      <point x="148" y="74"/>
      <point x="135" y="58"/>
      <point x="110" y="52" type="curve" smooth="yes"/>
      <point x="89" y="47" type="line" smooth="yes"/>
      <point x="65" y="40"/>
      <point x="53" y="35"/>
      <point x="50" y="21" type="curve" smooth="yes"/>
      <point x="46" y="7"/>
      <point x="56" y="0"/>
      <point x="75" y="0" type="curve" smooth="yes"/>
      <point x="457" y="0" type="line" smooth="yes"/>
      <point x="552" y="0"/>
      <point x="620" y="57"/>
      <point x="627" y="128" type="curve" smooth="yes"/>
      <point x="629" y="157"/>
      <point x="616" y="172"/>
      <point x="591" y="172" type="curve" smooth="yes"/>
      <point x="573" y="172"/>
      <point x="553" y="162"/>
      <point x="538" y="136" type="curve" smooth="yes"/>
      <point x="517" y="101" type="line" smooth="yes"/>
      <point x="494" y="63"/>
      <point x="464" y="52"/>
      <point x="428" y="52" type="curve" smooth="yes"/>
      <point x="327" y="52" type="line" smooth="yes"/>
      <point x="282" y="52"/>
      <point x="263" y="75"/>
      <point x="272" y="110" type="curve"/>
      <point x="297" y="263"/>
      <point x="340" y="443"/>
      <point x="415" y="650" type="curve"/>
      <point x="552" y="650" type="line" smooth="yes"/>
      <point x="594" y="650"/>
      <point x="625" y="634"/>
      <point x="643" y="602" type="curve" smooth="yes"/>
      <point x="661" y="568" type="line" smooth="yes"/>
      <point x="671" y="548"/>
      <point x="678" y="541"/>
      <point x="693" y="541" type="curve" smooth="yes"/>
      <point x="704" y="541"/>
      <point x="716" y="552"/>
      <point x="716" y="573" type="curve" smooth="yes"/>
      <point x="714" y="702" type="line" smooth="yes"/>
      <point x="714" y="720"/>
      <point x="711" y="727"/>
      <point x="695" y="727" type="curve" smooth="yes"/>
      <point x="685" y="727"/>
      <point x="675" y="722"/>
      <point x="664" y="713" type="curve" smooth="yes"/>
      <point x="655" y="705"/>
      <point x="641" y="700"/>
      <point x="631" y="700" type="curve" smooth="yes"/>
      <point x="259" y="700" type="line" smooth="yes"/>
      <point x="239" y="700"/>
      <point x="227" y="693"/>
    </contour>
  </outline>
</glyph>
<glyph name="F" format="2">
  <advance width="570"/>
  <unicode hex="0046"/>
  <outline>
    <contour>
      <point x="311" y="347" type="line"/>
      <point x="293" y="306" type="line"/>
      <point x="450" y="306" type="line" smooth="yes"/>
      <point x="479" y="306"/>
      <point x="499" y="293"/>
      <point x="503" y="281" type="curve" smooth="yes"/>
      <point x="511" y="259" type="line" smooth="yes"/>
      <point x="515" y="247"/>
      <point x="522" y="240"/>
      <point x="532" y="240" type="curve" smooth="yes"/>
      <point x="547" y="240"/>
      <point x="555" y="251"/>
      <point x="559" y="265" type="curve" smooth="yes"/>
      <point x="594" y="392" type="line" smooth="yes"/>
      <point x="598" y="406"/>
      <point x="595" y="418"/>
      <point x="581" y="418" type="curve" smooth="yes"/>
      <point x="565" y="418"/>
      <point x="554" y="408"/>
      <point x="539" y="389" type="curve" smooth="yes"/>
      <point x="523" y="369" type="line" smooth="yes"/>
      <point x="510" y="353"/>
      <point x="484.0" y="347.0"/>
      <point x="458" y="347" type="curve" smooth="yes"/>
    </contour>
    <contour>
      <point x="223" y="679" type="curve" smooth="yes"/>
      <point x="219" y="665"/>
      <point x="230" y="659"/>
      <point x="248" y="655" type="curve" smooth="yes"/>
      <point x="277" y="649" type="line" smooth="yes"/>
      <point x="290" y="646"/>
      <point x="295" y="632"/>
      <point x="291" y="613" type="curve"/>
      <point x="258" y="437"/>
      <point x="210" y="266"/>
      <point x="156" y="104" type="curve"/>
      <point x="148" y="74"/>
      <point x="135" y="58"/>
      <point x="110" y="52" type="curve" smooth="yes"/>
      <point x="89" y="47" type="line" smooth="yes"/>
      <point x="65" y="40"/>
      <point x="53" y="35"/>
      <point x="50" y="21" type="curve" smooth="yes"/>
      <point x="46" y="7"/>
      <point x="56" y="0"/>
      <point x="75" y="0" type="curve" smooth="yes"/>
      <point x="310" y="0" type="line" smooth="yes"/>
      <point x="341.0" y="0"/>
      <point x="349.0" y="10.35"/>
      <point x="349" y="23" type="curve" smooth="yes"/>
      <point x="349.0" y="36.351351351351354"/>
      <point x="338.6174904052632" y="41.09272959872407"/>
      <point x="306" y="49" type="curve" smooth="yes"/>
      <point x="284.8179009861877" y="54.043356908050555"/>
      <point x="261.7205415161382" y="70.0243281183152"/>
      <point x="272" y="110" type="curve"/>
      <point x="302.2140239525918" y="264.0915221582182"/>
      <point x="348.55607431958754" y="445.6076876387064"/>
      <point x="415" y="654" type="curve"/>
      <point x="542" y="654" type="line" smooth="yes"/>
      <point x="584.0" y="654"/>
      <point x="614.9345783481409" y="636.1235742312894"/>
      <point x="633" y="602" type="curve" smooth="yes"/>
      <point x="651" y="568" type="line" smooth="yes"/>
      <point x="661" y="548"/>
      <point x="668" y="541"/>
      <point x="683" y="541" type="curve" smooth="yes"/>
      <point x="694" y="541"/>
      <point x="706" y="552"/>
      <point x="706" y="573" type="curve" smooth="yes"/>
      <point x="704" y="702" type="line" smooth="yes"/>
      <point x="704" y="720"/>
      <point x="701" y="727"/>
      <point x="685" y="727" type="curve" smooth="yes"/>
      <point x="675" y="727"/>
      <point x="665" y="722"/>
      <point x="654" y="713" type="curve" smooth="yes"/>
      <point x="645" y="705"/>
      <point x="631.0" y="700.0"/>
      <point x="621" y="700" type="curve" smooth="yes"/>
      <point x="259" y="700" type="line" smooth="yes"/>
      <point x="239" y="700"/>
      <point x="227" y="693"/>
    </contour>
  </outline>
</glyph>
<glyph name="G" format="2">
  <advance width="744"/>
  <unicode hex="0047"/>
  <outline>
    <contour>
      <point x="584" y="-15"/>
      <point x="649" y="11"/>
      <point x="663" y="91" type="curve" smooth="yes"/>
      <point x="682" y="201" type="line" smooth="yes"/>
      <point x="686" y="224"/>
      <point x="698" y="240"/>
      <point x="715" y="245" type="curve" smooth="yes"/>
      <point x="732" y="251" type="line" smooth="yes"/>
      <point x="755" y="258"/>
      <point x="762" y="263"/>
      <point x="764" y="274" type="curve" smooth="yes"/>
      <point x="766" y="286"/>
      <point x="756" y="293"/>
      <point x="737" y="293" type="curve" smooth="yes"/>
      <point x="515" y="293" type="line" smooth="yes"/>
      <point x="495" y="293"/>
      <point x="482" y="286"/>
      <point x="480" y="274" type="curve" smooth="yes"/>
      <point x="478" y="261"/>
      <point x="487" y="253"/>
      <point x="504" y="251" type="curve" smooth="yes"/>
      <point x="537" y="245" type="line" smooth="yes"/>
      <point x="565" y="242"/>
      <point x="579" y="224"/>
      <point x="575" y="201" type="curve" smooth="yes"/>
      <point x="556" y="89" type="line" smooth="yes"/>
      <point x="550" y="57"/>
      <point x="526" y="40"/>
      <point x="480" y="40" type="curve" smooth="yes"/>
      <point x="289" y="40"/>
      <point x="183" y="173"/>
      <point x="217" y="370" type="curve" smooth="yes"/>
      <point x="249" y="549"/>
      <point x="362" y="659"/>
      <point x="495" y="659" type="curve" smooth="yes"/>
      <point x="569" y="659"/>
      <point x="627" y="631"/>
      <point x="680" y="563" type="curve" smooth="yes"/>
      <point x="702" y="535" type="line" smooth="yes"/>
      <point x="717" y="517"/>
      <point x="723" y="510"/>
      <point x="734" y="510" type="curve" smooth="yes"/>
      <point x="747" y="510"/>
      <point x="756" y="518"/>
      <point x="758" y="530" type="curve" smooth="yes"/>
      <point x="760" y="540"/>
      <point x="760" y="550"/>
      <point x="758" y="564" type="curve" smooth="yes"/>
      <point x="737" y="685" type="line" smooth="yes"/>
      <point x="732" y="706"/>
      <point x="729" y="713"/>
      <point x="718" y="713" type="curve" smooth="yes"/>
      <point x="701" y="713"/>
      <point x="685" y="684"/>
      <point x="665" y="684" type="curve" smooth="yes"/>
      <point x="643" y="684"/>
      <point x="607" y="713"/>
      <point x="518" y="713" type="curve" smooth="yes"/>
      <point x="313" y="713"/>
      <point x="134" y="549"/>
      <point x="96" y="336" type="curve" smooth="yes"/>
      <point x="60" y="132"/>
      <point x="191" y="-15"/>
      <point x="404" y="-15" type="curve" smooth="yes"/>
    </contour>
  </outline>
</glyph>
<glyph name="H" format="2">
  <advance width="763"/>
  <unicode hex="0048"/>
  <outline>
    <contour>
      <point x="221" y="369" type="line"/>
      <point x="212" y="316" type="line"/>
      <point x="596" y="316" type="line"/>
      <point x="605" y="369" type="line"/>
    </contour>
    <component base="I" xOffset="4"/>
    <component base="I" xOffset="393"/>
  </outline>
</glyph>
<glyph name="I" format="2">
  <advance width="371"/>
  <unicode hex="0049"/>
  <outline>
    <contour>
      <point x="281" y="92" type="curve" smooth="yes"/>
      <point x="320" y="296"/>
      <point x="360" y="457"/>
      <point x="417" y="607" type="curve" smooth="yes"/>
      <point x="427" y="633"/>
      <point x="438" y="647"/>
      <point x="461" y="652" type="curve" smooth="yes"/>
      <point x="488" y="658" type="line" smooth="yes"/>
      <point x="506" y="661"/>
      <point x="518" y="667"/>
      <point x="522" y="681" type="curve" smooth="yes"/>
      <point x="525" y="694"/>
      <point x="516" y="700"/>
      <point x="495" y="700" type="curve" smooth="yes"/>
      <point x="273" y="700" type="line" smooth="yes"/>
      <point x="251" y="700"/>
      <point x="241" y="694"/>
      <point x="238" y="681" type="curve" smooth="yes"/>
      <point x="234" y="667"/>
      <point x="243" y="661"/>
      <point x="260" y="658" type="curve" smooth="yes"/>
      <point x="283" y="652" type="line" smooth="yes"/>
      <point x="302" y="647"/>
      <point x="308" y="634"/>
      <point x="303" y="607" type="curve" smooth="yes"/>
      <point x="275" y="446"/>
      <point x="231" y="276"/>
      <point x="167" y="92" type="curve" smooth="yes"/>
      <point x="158" y="67"/>
      <point x="146" y="53"/>
      <point x="123" y="48" type="curve" smooth="yes"/>
      <point x="97" y="42" type="line" smooth="yes"/>
      <point x="78" y="38"/>
      <point x="67" y="33"/>
      <point x="63" y="19" type="curve" smooth="yes"/>
      <point x="60" y="6"/>
      <point x="67" y="0"/>
      <point x="89" y="0" type="curve" smooth="yes"/>
      <point x="311" y="0" type="line" smooth="yes"/>
      <point x="332" y="0"/>
      <point x="344" y="6"/>
      <point x="347" y="19" type="curve" smooth="yes"/>
      <point x="351" y="33"/>
      <point x="341" y="38"/>
      <point x="325" y="42" type="curve" smooth="yes"/>
      <point x="301" y="48" type="line" smooth="yes"/>
      <point x="282" y="53"/>
      <point x="276" y="66"/>
    </contour>
  </outline>
</glyph>
<glyph name="J" format="2">
  <advance width="436"/>
  <unicode hex="004A"/>
  <outline>
    <contour>
      <point x="385" y="146" type="curve" smooth="yes"/>
      <point x="400" y="202"/>
      <point x="386" y="254"/>
      <point x="398" y="298" type="curve" smooth="yes"/>
      <point x="473" y="588" type="line" smooth="yes"/>
      <point x="483" y="625"/>
      <point x="498" y="646"/>
      <point x="517" y="651" type="curve" smooth="yes"/>
      <point x="543" y="657" type="line" smooth="yes"/>
      <point x="562" y="660"/>
      <point x="573" y="666"/>
      <point x="577" y="680" type="curve" smooth="yes"/>
      <point x="581" y="693"/>
      <point x="573" y="699"/>
      <point x="552" y="699" type="curve" smooth="yes"/>
      <point x="330" y="699" type="line" smooth="yes"/>
      <point x="308" y="699"/>
      <point x="298" y="693"/>
      <point x="294" y="680" type="curve" smooth="yes"/>
      <point x="290" y="666"/>
      <point x="299" y="660"/>
      <point x="316" y="657" type="curve" smooth="yes"/>
      <point x="340" y="651" type="line" smooth="yes"/>
      <point x="368" y="645"/>
      <point x="381" y="633"/>
      <point x="374" y="606" type="curve" smooth="yes"/>
      <point x="280" y="252" type="line" smooth="yes"/>
      <point x="268" y="205"/>
      <point x="302" y="144"/>
      <point x="289" y="94" type="curve" smooth="yes"/>
      <point x="276" y="48"/>
      <point x="237" y="28"/>
      <point x="199" y="28" type="curve" smooth="yes"/>
      <point x="165" y="28"/>
      <point x="158" y="46"/>
      <point x="165" y="74" type="curve" smooth="yes"/>
      <point x="175" y="109" type="line" smooth="yes"/>
      <point x="184" y="143"/>
      <point x="174" y="169"/>
      <point x="140" y="169" type="curve" smooth="yes"/>
      <point x="99" y="169"/>
      <point x="71" y="144"/>
      <point x="61" y="106" type="curve" smooth="yes"/>
      <point x="42" y="36"/>
      <point x="81" y="-15"/>
      <point x="176" y="-15" type="curve" smooth="yes"/>
      <point x="280" y="-15"/>
      <point x="359" y="49"/>
    </contour>
  </outline>
</glyph>
<glyph name="K" format="2">
  <advance width="698"/>
  <unicode hex="004B"/>
  <outline>
    <contour>
      <point x="230" y="201" type="line"/>
      <point x="273" y="189" type="line"/>
      <point x="718" y="584" type="line" smooth="yes"/>
      <point x="750" y="613"/>
      <point x="778" y="629"/>
      <point x="816" y="645" type="curve" smooth="yes"/>
      <point x="839" y="655"/>
      <point x="859" y="661"/>
      <point x="862" y="680" type="curve" smooth="yes"/>
      <point x="864" y="691"/>
      <point x="859" y="700"/>
      <point x="838" y="700" type="curve" smooth="yes"/>
      <point x="666" y="700" type="line" smooth="yes"/>
      <point x="649" y="700"/>
      <point x="636" y="694"/>
      <point x="633" y="682" type="curve" smooth="yes"/>
      <point x="630" y="669"/>
      <point x="637" y="663"/>
      <point x="646" y="657" type="curve" smooth="yes"/>
      <point x="668" y="641" type="line" smooth="yes"/>
      <point x="679" y="632"/>
      <point x="686" y="629"/>
      <point x="683" y="619" type="curve" smooth="yes"/>
      <point x="681" y="610"/>
      <point x="677" y="603"/>
      <point x="664" y="592" type="curve" smooth="yes"/>
    </contour>
    <contour>
      <point x="417" y="341" type="line"/>
      <point x="509" y="111" type="line" smooth="yes"/>
      <point x="514" y="96"/>
      <point x="518" y="88"/>
      <point x="513" y="72" type="curve" smooth="yes"/>
      <point x="509" y="59"/>
      <point x="503" y="51"/>
      <point x="483" y="41" type="curve" smooth="yes"/>
      <point x="468" y="34"/>
      <point x="456" y="30"/>
      <point x="453" y="18" type="curve" smooth="yes"/>
      <point x="450" y="6"/>
      <point x="459" y="0"/>
      <point x="477" y="0" type="curve" smooth="yes"/>
      <point x="668" y="0" type="line" smooth="yes"/>
      <point x="689" y="0"/>
      <point x="700" y="8"/>
      <point x="704" y="21" type="curve" smooth="yes"/>
      <point x="707" y="33"/>
      <point x="699" y="37"/>
      <point x="687" y="42" type="curve" smooth="yes"/>
      <point x="668" y="52"/>
      <point x="651" y="60"/>
      <point x="640" y="88" type="curve" smooth="yes"/>
      <point x="500" y="411" type="line"/>
    </contour>
    <component base="I" yxScale="0.087488663525924"/>
  </outline>
</glyph>
<glyph name="L" format="2">
  <advance width="541"/>
  <unicode hex="004C"/>
  <outline>
    <contour>
      <point x="306" y="613" type="curve" smooth="yes"/>
      <point x="273" y="440"/>
      <point x="227" y="266"/>
      <point x="171" y="104" type="curve"/>
      <point x="163" y="74"/>
      <point x="150" y="58"/>
      <point x="125" y="52" type="curve" smooth="yes"/>
      <point x="104" y="47" type="line" smooth="yes"/>
      <point x="80" y="40"/>
      <point x="68" y="35"/>
      <point x="65" y="21" type="curve" smooth="yes"/>
      <point x="61" y="7"/>
      <point x="71" y="0"/>
      <point x="90" y="0" type="curve" smooth="yes"/>
      <point x="382" y="0" type="line" smooth="yes"/>
      <point x="493.375" y="0"/>
      <point x="580.0" y="68.0"/>
      <point x="580" y="140" type="curve" smooth="yes"/>
      <point x="580" y="164"/>
      <point x="567" y="177"/>
      <point x="546" y="177" type="curve" smooth="yes"/>
      <point x="528" y="177"/>
      <point x="507" y="168"/>
      <point x="493" y="141" type="curve" smooth="yes"/>
      <point x="472" y="101" type="line" smooth="yes"/>
      <point x="448.38244273383896" y="56.01417663588378"/>
      <point x="418.95959595959596" y="41"/>
      <point x="383" y="41" type="curve" smooth="yes"/>
      <point x="342" y="41" type="line" smooth="yes"/>
      <point x="297" y="41"/>
      <point x="280" y="65"/>
      <point x="287" y="105" type="curve" smooth="yes"/>
      <point x="313" y="247"/>
      <point x="347" y="414"/>
      <point x="418" y="606" type="curve" smooth="yes"/>
      <point x="427" y="632"/>
      <point x="439" y="646"/>
      <point x="462" y="651" type="curve" smooth="yes"/>
      <point x="488" y="657" type="line" smooth="yes"/>
      <point x="507" y="660"/>
      <point x="519" y="666"/>
      <point x="522" y="680" type="curve" smooth="yes"/>
      <point x="526" y="693"/>
      <point x="517" y="699"/>
      <point x="496" y="699" type="curve" smooth="yes"/>
      <point x="274" y="699" type="line" smooth="yes"/>
      <point x="252" y="699"/>
      <point x="242" y="693"/>
      <point x="238" y="680" type="curve" smooth="yes"/>
      <point x="235" y="666"/>
      <point x="244" y="660"/>
      <point x="260" y="657" type="curve" smooth="yes"/>
      <point x="284" y="651" type="line" smooth="yes"/>
      <point x="302" y="646"/>
      <point x="309" y="632"/>
    </contour>
  </outline>
</glyph>
<glyph name="M" format="2">
  <advance width="915"/>
  <unicode hex="004D"/>
  <outline>
    <contour>
      <point x="525" y="188" type="line"/>
      <point x="366" y="667" type="line" smooth="yes"/>
      <point x="358" y="690"/>
      <point x="348" y="700"/>
      <point x="327" y="700" type="curve" smooth="yes"/>
      <point x="220" y="700" type="line" smooth="yes"/>
      <point x="201" y="700"/>
      <point x="188" y="694"/>
      <point x="186" y="681" type="curve" smooth="yes"/>
      <point x="184" y="669"/>
      <point x="192" y="660"/>
      <point x="209" y="652" type="curve" smooth="yes"/>
      <point x="227" y="645" type="line" smooth="yes"/>
      <point x="244" y="637"/>
      <point x="256" y="626"/>
      <point x="252" y="606" type="curve" smooth="yes"/>
      <point x="134" y="113" type="line" smooth="yes"/>
      <point x="127" y="86"/>
      <point x="110" y="72"/>
      <point x="84" y="62" type="curve" smooth="yes"/>
      <point x="65" y="54" type="line" smooth="yes"/>
      <point x="39" y="44"/>
      <point x="28" y="35"/>
      <point x="26" y="21" type="curve" smooth="yes"/>
      <point x="23" y="5"/>
      <point x="35" y="0"/>
      <point x="53" y="0" type="curve" smooth="yes"/>
      <point x="229" y="0" type="line" smooth="yes"/>
      <point x="250" y="0"/>
      <point x="265" y="8"/>
      <point x="268" y="22" type="curve" smooth="yes"/>
      <point x="271" y="38"/>
      <point x="265" y="45"/>
      <point x="250" y="50" type="curve" smooth="yes"/>
      <point x="215" y="64" type="line" smooth="yes"/>
      <point x="189" y="75"/>
      <point x="179" y="91"/>
      <point x="185" y="113" type="curve" smooth="yes"/>
      <point x="300" y="592" type="line"/>
      <point x="272" y="585" type="line"/>
      <point x="433" y="102" type="line" smooth="yes"/>
      <point x="440" y="83"/>
      <point x="447" y="72"/>
      <point x="459" y="72" type="curve" smooth="yes"/>
      <point x="480" y="72"/>
      <point x="496" y="89"/>
      <point x="521" y="132" type="curve" smooth="yes"/>
      <point x="815" y="608" type="line"/>
      <point x="781" y="607" type="line"/>
      <point x="736" y="92" type="line" smooth="yes"/>
      <point x="735" y="66"/>
      <point x="720" y="51"/>
      <point x="701" y="48" type="curve" smooth="yes"/>
      <point x="675" y="42" type="line" smooth="yes"/>
      <point x="657" y="38"/>
      <point x="646" y="33"/>
      <point x="643" y="19" type="curve" smooth="yes"/>
      <point x="641" y="6"/>
      <point x="649" y="0"/>
      <point x="671" y="0" type="curve" smooth="yes"/>
      <point x="874" y="0" type="line" smooth="yes"/>
      <point x="896" y="0"/>
      <point x="906" y="6"/>
      <point x="908" y="19" type="curve" smooth="yes"/>
      <point x="911" y="33"/>
      <point x="900" y="36"/>
      <point x="884" y="42" type="curve" smooth="yes"/>
      <point x="869" y="48" type="line" smooth="yes"/>
      <point x="847" y="56"/>
      <point x="839" y="66"/>
      <point x="841" y="92" type="curve" smooth="yes"/>
      <point x="885" y="607" type="line" smooth="yes"/>
      <point x="888" y="633"/>
      <point x="901" y="648"/>
      <point x="920" y="652" type="curve" smooth="yes"/>
      <point x="948" y="658" type="line" smooth="yes"/>
      <point x="967" y="661"/>
      <point x="978" y="667"/>
      <point x="980" y="681" type="curve" smooth="yes"/>
      <point x="982" y="694"/>
      <point x="974" y="700"/>
      <point x="952" y="700" type="curve" smooth="yes"/>
      <point x="952" y="700"/>
      <point x="862" y="700"/>
      <point x="846" y="700" type="curve" smooth="yes"/>
      <point x="823" y="700"/>
      <point x="807" y="686"/>
      <point x="793" y="664" type="curve" smooth="yes"/>
      <point x="494" y="184" type="line"/>
    </contour>
  </outline>
</glyph>
<glyph name="N" format="2">
  <advance width="692"/>
  <unicode hex="004E"/>
  <outline>
    <contour>
      <point x="646" y="510" type="curve" smooth="yes"/>
      <point x="575" y="104" type="line" smooth="yes"/>
      <point x="567.6096272766102" y="61.739558793010964"/>
      <point x="596.0338534936994" y="54.99635026345647"/>
      <point x="590" y="20" type="curve" smooth="yes"/>
      <point x="587" y="8"/>
      <point x="575" y="0"/>
      <point x="561" y="0" type="curve" smooth="yes"/>
      <point x="491" y="0" type="line" smooth="yes"/>
      <point x="474" y="0"/>
      <point x="466" y="10"/>
      <point x="469" y="28" type="curve" smooth="yes"/>
      <point x="471" y="41"/>
      <point x="466" y="54"/>
      <point x="444" y="129" type="curve" smooth="yes"/>
      <point x="408" y="253"/>
      <point x="345" y="389"/>
      <point x="255" y="539" type="curve"/>
      <point x="279" y="545" type="line"/>
      <point x="220" y="204" type="line" smooth="yes"/>
      <point x="193.84314616408895" y="52.82225155854803"/>
      <point x="150.0" y="0.0"/>
      <point x="80" y="0" type="curve" smooth="yes"/>
      <point x="40.794117647058826" y="0.0"/>
      <point x="18.86445256626515" y="16.421897349394037"/>
      <point x="18" y="51" type="curve" smooth="yes"/>
      <point x="16.83365247369443" y="76.6596455787226"/>
      <point x="34.53687074919095" y="99.65802246496575"/>
      <point x="74" y="107" type="curve" smooth="yes"/>
      <point x="117" y="115" type="line" smooth="yes"/>
      <point x="141" y="119"/>
      <point x="160" y="141"/>
      <point x="171" y="205" type="curve" smooth="yes"/>
      <point x="229" y="539" type="line" smooth="yes"/>
      <point x="235" y="575"/>
      <point x="224" y="596"/>
      <point x="195" y="618" type="curve" smooth="yes"/>
      <point x="156" y="648" type="line" smooth="yes"/>
      <point x="143" y="658"/>
      <point x="135" y="668"/>
      <point x="135" y="678" type="curve" smooth="yes"/>
      <point x="135.0" y="693.0"/>
      <point x="151.625" y="700"/>
      <point x="173" y="700" type="curve" smooth="yes"/>
      <point x="264" y="700" type="line" smooth="yes"/>
      <point x="295" y="700"/>
      <point x="318" y="688"/>
      <point x="333" y="651" type="curve" smooth="yes"/>
      <point x="415" y="443"/>
      <point x="491" y="280"/>
      <point x="562" y="156" type="curve"/>
      <point x="537" y="149" type="line"/>
      <point x="600.0" y="510.0" type="line" smooth="yes"/>
      <point x="626.3761695872605" y="661.1396384285877"/>
      <point x="670.0" y="714.0"/>
      <point x="740.0" y="714.0" type="curve" smooth="yes"/>
      <point x="779.2058823529412" y="714.0"/>
      <point x="801.1694186243839" y="698.223255024648"/>
      <point x="802.0" y="665.0" type="curve" smooth="yes"/>
      <point x="803.1479440316359" y="636.3013992091014"/>
      <point x="783.9729515810931" y="613.7622952772034"/>
      <point x="742.0" y="603.0" type="curve" smooth="yes"/>
      <point x="703.0" y="593.0" type="line" smooth="yes"/>
      <point x="675.0015986837133" y="585.8209227394136"/>
      <point x="655.924144402001" y="566.7493327776396"/>
    </contour>
  </outline>
</glyph>
<glyph name="O" format="2">
  <advance width="693"/>
  <unicode hex="004F"/>
  <outline>
    <contour>
      <point x="570" y="714" type="curve" smooth="yes"/>
      <point x="330.0" y="714.0"/>
      <point x="130" y="456"/>
      <point x="130" y="217" type="curve" smooth="yes"/>
      <point x="130" y="79"/>
      <point x="211" y="-15"/>
      <point x="338" y="-15" type="curve" smooth="yes"/>
      <point x="554" y="-15.0"/>
      <point x="778.0" y="213"/>
      <point x="778" y="485" type="curve" smooth="yes"/>
      <point x="778" y="620"/>
      <point x="699" y="714"/>
    </contour>
    <contour>
      <point x="664.0" y="238.0"/>
      <point x="515.3436293436293" y="38.0"/>
      <point x="385" y="38" type="curve" smooth="yes"/>
      <point x="299.17391304347825" y="38.0"/>
      <point x="244.0" y="122.0"/>
      <point x="244" y="247" type="curve" smooth="yes"/>
      <point x="244.0" y="465.94230769230774"/>
      <point x="391.49808429118775" y="661.0"/>
      <point x="525" y="661" type="curve" smooth="yes"/>
      <point x="608.9245283018868" y="661.0"/>
      <point x="664.0" y="580.7980295566502"/>
      <point x="664" y="460" type="curve" smooth="yes"/>
    </contour>
  </outline>
</glyph>
<glyph name="P" format="2">
  <advance width="629"/>
  <unicode hex="0050"/>
  <outline>
    <contour>
      <point x="729" y="446" type="curve" smooth="yes"/>
      <point x="768" y="598"/>
      <point x="672" y="700"/>
      <point x="488" y="700" type="curve" smooth="yes"/>
      <point x="256" y="700" type="line" smooth="yes"/>
      <point x="236" y="700"/>
      <point x="224" y="693"/>
      <point x="221" y="681" type="curve" smooth="yes"/>
      <point x="218" y="669"/>
      <point x="225" y="661"/>
      <point x="243" y="658" type="curve" smooth="yes"/>
      <point x="266" y="652" type="line" smooth="yes"/>
      <point x="289" y="647"/>
      <point x="297" y="630"/>
      <point x="291" y="607" type="curve" smooth="yes"/>
      <point x="155" y="92" type="line" smooth="yes"/>
      <point x="149" y="70"/>
      <point x="132" y="53"/>
      <point x="106" y="48" type="curve" smooth="yes"/>
      <point x="80" y="42" type="line" smooth="yes"/>
      <point x="60" y="38"/>
      <point x="49" y="31"/>
      <point x="46" y="19" type="curve" smooth="yes"/>
      <point x="43" y="7"/>
      <point x="52" y="0"/>
      <point x="72" y="0" type="curve" smooth="yes"/>
      <point x="294" y="0" type="line" smooth="yes"/>
      <point x="313" y="0"/>
      <point x="327" y="7"/>
      <point x="330" y="19" type="curve" smooth="yes"/>
      <point x="333" y="31"/>
      <point x="325" y="38"/>
      <point x="308" y="42" type="curve" smooth="yes"/>
      <point x="284" y="48" type="line" smooth="yes"/>
      <point x="262" y="53"/>
      <point x="253" y="70"/>
      <point x="259" y="92" type="curve" smooth="yes"/>
      <point x="406" y="646" type="line"/>
      <point x="470" y="646" type="line" smooth="yes"/>
      <point x="588" y="646"/>
      <point x="652" y="570"/>
      <point x="624" y="464" type="curve" smooth="yes"/>
      <point x="594" y="352"/>
      <point x="501" y="278"/>
      <point x="392" y="278" type="curve" smooth="yes"/>
      <point x="314" y="278"/>
      <point x="278" y="291"/>
      <point x="244" y="313" type="curve"/>
      <point x="222" y="268" type="line"/>
      <point x="257" y="245"/>
      <point x="294" y="230"/>
      <point x="383" y="230" type="curve" smooth="yes"/>
      <point x="555" y="230"/>
      <point x="695" y="317"/>
    </contour>
  </outline>
</glyph>
<glyph name="Q" format="2">
  <advance width="693"/>
  <unicode hex="0051"/>
  <outline>
    <contour>
      <point x="383.0" y="77" type="curve" smooth="yes"/>
      <point x="383" y="-44"/>
      <point x="459.0" y="-150.0"/>
      <point x="549" y="-150.0" type="curve" smooth="yes"/>
      <point x="581" y="-150"/>
      <point x="607" y="-133"/>
      <point x="628" y="-97" type="curve" smooth="yes"/>
      <point x="641" y="-74"/>
      <point x="645.0" y="-64"/>
      <point x="645" y="-54" type="curve" smooth="yes"/>
      <point x="645.0" y="-46"/>
      <point x="640.0" y="-39.0"/>
      <point x="629" y="-39" type="curve" smooth="yes"/>
      <point x="612.4285714285714" y="-39.0"/>
      <point x="596" y="-54"/>
      <point x="571" y="-54" type="curve" smooth="yes"/>
      <point x="492" y="-54"/>
      <point x="433.0" y="30"/>
      <point x="433.0" y="124" type="curve" smooth="yes"/>
      <point x="433.0" y="152.89473684210526"/>
      <point x="437.0" y="172.1578947368421"/>
      <point x="437.0" y="185" type="curve" smooth="yes"/>
      <point x="437.0" y="195.83333333333334"/>
      <point x="433" y="205"/>
      <point x="422" y="205.0" type="curve" smooth="yes"/>
      <point x="401.0" y="205.0"/>
      <point x="383.0" y="161.0"/>
    </contour>
    <component base="O"/>
  </outline>
</glyph>
<glyph name="R" format="2">
  <advance width="663"/>
  <unicode hex="0052"/>
  <outline>
    <contour>
      <point x="703" y="460" type="curve" smooth="yes"/>
      <point x="742" y="605"/>
      <point x="638" y="700"/>
      <point x="469" y="700" type="curve" smooth="yes"/>
      <point x="256" y="700" type="line" smooth="yes"/>
      <point x="236" y="700"/>
      <point x="224" y="693"/>
      <point x="221" y="681" type="curve" smooth="yes"/>
      <point x="218" y="669"/>
      <point x="225" y="661"/>
      <point x="243" y="658" type="curve" smooth="yes"/>
      <point x="266" y="652" type="line" smooth="yes"/>
      <point x="289" y="647"/>
      <point x="297" y="630"/>
      <point x="291" y="607" type="curve" smooth="yes"/>
      <point x="155" y="92" type="line" smooth="yes"/>
      <point x="149" y="70"/>
      <point x="132" y="53"/>
      <point x="106" y="48" type="curve" smooth="yes"/>
      <point x="80" y="42" type="line" smooth="yes"/>
      <point x="60" y="38"/>
      <point x="49" y="31"/>
      <point x="46" y="19" type="curve" smooth="yes"/>
      <point x="43" y="7"/>
      <point x="52" y="0"/>
      <point x="72" y="0" type="curve" smooth="yes"/>
      <point x="285" y="0" type="line" smooth="yes"/>
      <point x="304" y="0"/>
      <point x="317" y="7"/>
      <point x="320" y="19" type="curve" smooth="yes"/>
      <point x="323" y="30"/>
      <point x="315" y="35"/>
      <point x="299" y="40" type="curve" smooth="yes"/>
      <point x="274" y="48" type="line" smooth="yes"/>
      <point x="259" y="52"/>
      <point x="253" y="67"/>
      <point x="259" y="92" type="curve" smooth="yes"/>
      <point x="406" y="646" type="line"/>
      <point x="450" y="646" type="line" smooth="yes"/>
      <point x="566" y="646"/>
      <point x="629" y="578"/>
      <point x="602" y="478" type="curve" smooth="yes"/>
      <point x="575" y="372"/>
      <point x="492" y="299"/>
      <point x="398" y="299" type="curve" smooth="yes"/>
      <point x="328" y="299"/>
      <point x="290" y="309"/>
      <point x="250" y="334" type="curve"/>
      <point x="228" y="287" type="line"/>
      <point x="271" y="259"/>
      <point x="309" y="249"/>
      <point x="388" y="249" type="curve" smooth="yes"/>
      <point x="545" y="249"/>
      <point x="670" y="333"/>
    </contour>
    <contour>
      <point x="391" y="272" type="line"/>
      <point x="473" y="94" type="line" smooth="yes"/>
      <point x="479" y="83"/>
      <point x="480" y="74"/>
      <point x="478" y="63" type="curve" smooth="yes"/>
      <point x="475" y="53"/>
      <point x="468" y="47"/>
      <point x="453" y="39" type="curve" smooth="yes"/>
      <point x="443" y="35"/>
      <point x="437" y="29"/>
      <point x="434" y="18" type="curve" smooth="yes"/>
      <point x="431" y="6"/>
      <point x="440" y="0"/>
      <point x="458" y="0" type="curve" smooth="yes"/>
      <point x="631" y="0" type="line" smooth="yes"/>
      <point x="653" y="0"/>
      <point x="663" y="8"/>
      <point x="667" y="21" type="curve" smooth="yes"/>
      <point x="670" y="32"/>
      <point x="662" y="35"/>
      <point x="651" y="39" type="curve" smooth="yes"/>
      <point x="624" y="52"/>
      <point x="609" y="65"/>
      <point x="598" y="88" type="curve" smooth="yes"/>
      <point x="498" y="283" type="line"/>
    </contour>
  </outline>
</glyph>
<glyph name="S" format="2">
  <advance width="528"/>
  <unicode hex="0053"/>
  <outline>
    <contour>
      <point x="281" y="-15" type="curve" smooth="yes"/>
      <point x="423" y="-15"/>
      <point x="526" y="79"/>
      <point x="526" y="185" type="curve" smooth="yes"/>
      <point x="526" y="265"/>
      <point x="486" y="316"/>
      <point x="401" y="373" type="curve" smooth="yes"/>
      <point x="328" y="422"/>
      <point x="287" y="467"/>
      <point x="287" y="523" type="curve" smooth="yes"/>
      <point x="287.0" y="599.2666666666667"/>
      <point x="342.0" y="666.0"/>
      <point x="428" y="666" type="curve" smooth="yes"/>
      <point x="479.0" y="666.0"/>
      <point x="517" y="642"/>
      <point x="538" y="593" type="curve" smooth="yes"/>
      <point x="558" y="547" type="line" smooth="yes"/>
      <point x="566" y="528"/>
      <point x="575.6129032258063" y="518.0"/>
      <point x="597" y="518" type="curve" smooth="yes"/>
      <point x="630.7142857142857" y="518.0"/>
      <point x="656.0" y="549.7027027027027"/>
      <point x="656" y="587" type="curve" smooth="yes"/>
      <point x="656.0" y="649.4793388429753"/>
      <point x="588.0" y="713.0"/>
      <point x="464" y="713" type="curve" smooth="yes"/>
      <point x="296" y="713.0"/>
      <point x="193" y="590.0"/>
      <point x="193" y="481" type="curve" smooth="yes"/>
      <point x="193" y="421"/>
      <point x="231" y="362"/>
      <point x="323" y="300" type="curve" smooth="yes"/>
      <point x="396" y="250"/>
      <point x="429" y="213"/>
      <point x="429" y="160" type="curve" smooth="yes"/>
      <point x="429.0" y="83"/>
      <point x="375" y="32"/>
      <point x="295" y="32" type="curve" smooth="yes"/>
      <point x="228" y="32"/>
      <point x="184" y="62"/>
      <point x="163" y="128" type="curve" smooth="yes"/>
      <point x="149" y="173" type="line" smooth="yes"/>
      <point x="141" y="200"/>
      <point x="131.64" y="206.0"/>
      <point x="118" y="206" type="curve" smooth="yes"/>
      <point x="106.89655172413794" y="206.0"/>
      <point x="96.6992640889056" y="194.47618071130256"/>
      <point x="95" y="175" type="curve" smooth="yes"/>
      <point x="82" y="26" type="line" smooth="yes"/>
      <point x="82" y="21"/>
      <point x="82" y="17"/>
      <point x="82" y="14" type="curve" smooth="yes"/>
      <point x="82" y="-6"/>
      <point x="86" y="-15"/>
      <point x="99" y="-15" type="curve" smooth="yes"/>
      <point x="116" y="-15"/>
      <point x="133" y="15"/>
      <point x="146" y="15" type="curve" smooth="yes"/>
      <point x="174" y="15"/>
      <point x="203" y="-15"/>
    </contour>
  </outline>
</glyph>
<glyph name="T" format="2">
  <advance width="562"/>
  <unicode hex="0054"/>
  <outline>
    <contour>
      <point x="342" y="715" type="curve" smooth="yes"/>
      <point x="234.57894736842104" y="715.0"/>
      <point x="185.0" y="659.0"/>
      <point x="185" y="591" type="curve" smooth="yes"/>
      <point x="185" y="539"/>
      <point x="212" y="509"/>
      <point x="252" y="509" type="curve" smooth="yes"/>
      <point x="282" y="509"/>
      <point x="301" y="531"/>
      <point x="301" y="553" type="curve" smooth="yes"/>
      <point x="301.0" y="587.0"/>
      <point x="265.0" y="608.0"/>
      <point x="265" y="634" type="curve" smooth="yes"/>
      <point x="265.0" y="658.0"/>
      <point x="283.6842105263158" y="674.0"/>
      <point x="336" y="674" type="curve" smooth="yes"/>
      <point x="391" y="674"/>
      <point x="564.7951826393912" y="643.4056222933957"/>
      <point x="598" y="640" type="curve" smooth="yes"/>
      <point x="642.2269740849279" y="635.7879072300069"/>
      <point x="636.0" y="587.0"/>
      <point x="677" y="587" type="curve" smooth="yes"/>
      <point x="720.0" y="587.0"/>
      <point x="770.0" y="647.1284403669725"/>
      <point x="770" y="700" type="curve" smooth="yes"/>
      <point x="770" y="721"/>
      <point x="762" y="730.0"/>
      <point x="748" y="730" type="curve" smooth="yes"/>
      <point x="720.0" y="730.0"/>
      <point x="692" y="686.0"/>
      <point x="623" y="686.0" type="curve" smooth="yes"/>
      <point x="562.1934426229508" y="686.0"/>
      <point x="412.01967213114756" y="715.0"/>
    </contour>
    <contour>
      <point x="442" y="677" type="line"/>
      <point x="401" y="493"/>
      <point x="346" y="306"/>
      <point x="278" y="92" type="curve" smooth="yes"/>
      <point x="270" y="67"/>
      <point x="257" y="53"/>
      <point x="234" y="48" type="curve" smooth="yes"/>
      <point x="208" y="42" type="line" smooth="yes"/>
      <point x="189" y="38"/>
      <point x="178" y="33"/>
      <point x="174" y="19" type="curve" smooth="yes"/>
      <point x="171" y="6"/>
      <point x="178" y="0"/>
      <point x="200" y="0" type="curve" smooth="yes"/>
      <point x="422" y="0" type="line" smooth="yes"/>
      <point x="443" y="0"/>
      <point x="455" y="6"/>
      <point x="458" y="19" type="curve" smooth="yes"/>
      <point x="462" y="33"/>
      <point x="452" y="38"/>
      <point x="436" y="42" type="curve" smooth="yes"/>
      <point x="412" y="48" type="line" smooth="yes"/>
      <point x="393" y="53"/>
      <point x="387" y="66"/>
      <point x="392" y="92" type="curve" smooth="yes"/>
      <point x="436" y="322"/>
      <point x="481" y="489"/>
      <point x="539" y="659" type="curve"/>
    </contour>
  </outline>
</glyph>
<glyph name="U" format="2">
  <advance width="651"/>
  <unicode hex="0055"/>
  <outline>
    <contour>
      <point x="547" y="195" type="curve" smooth="yes"/>
      <point x="665" y="599" type="line" smooth="yes"/>
      <point x="666" y="604"/>
      <point x="666" y="608"/>
      <point x="666" y="612" type="curve" smooth="yes"/>
      <point x="666" y="626"/>
      <point x="660" y="636"/>
      <point x="642" y="644" type="curve" smooth="yes"/>
      <point x="618" y="655" type="line" smooth="yes"/>
      <point x="603" y="662"/>
      <point x="594" y="669"/>
      <point x="594" y="678" type="curve" smooth="yes"/>
      <point x="594" y="678"/>
      <point x="594" y="679"/>
      <point x="594" y="680" type="curve" smooth="yes"/>
      <point x="598" y="694"/>
      <point x="610" y="699"/>
      <point x="628" y="699" type="curve" smooth="yes"/>
      <point x="806" y="699" type="line" smooth="yes"/>
      <point x="822" y="699"/>
      <point x="833" y="691"/>
      <point x="833" y="680" type="curve" smooth="yes"/>
      <point x="833" y="679"/>
      <point x="833" y="677"/>
      <point x="833" y="676" type="curve" smooth="yes"/>
      <point x="830" y="666"/>
      <point x="825" y="662"/>
      <point x="804" y="656" type="curve" smooth="yes"/>
      <point x="764" y="644" type="line" smooth="yes"/>
      <point x="745" y="638"/>
      <point x="733" y="618"/>
      <point x="727" y="599" type="curve" smooth="yes"/>
      <point x="614" y="209" type="line" smooth="yes"/>
      <point x="570.4475999603033" y="58.68640694263951"/>
      <point x="486.73118279569894" y="-15.0"/>
      <point x="345" y="-15" type="curve" smooth="yes"/>
      <point x="225.96491228070172" y="-15.0"/>
      <point x="168.0" y="49.0"/>
      <point x="168" y="137" type="curve" smooth="yes"/>
      <point x="168.0" y="180.0"/>
      <point x="191.2817195434573" y="269.2770976698144"/>
      <point x="207" y="324" type="curve" smooth="yes"/>
      <point x="288" y="606" type="line" smooth="yes"/>
      <point x="290" y="612"/>
      <point x="291" y="618"/>
      <point x="291" y="622" type="curve" smooth="yes"/>
      <point x="291" y="638"/>
      <point x="280" y="645"/>
      <point x="263" y="651" type="curve" smooth="yes"/>
      <point x="245" y="657" type="line" smooth="yes"/>
      <point x="231" y="662"/>
      <point x="222" y="665"/>
      <point x="222" y="674" type="curve" smooth="yes"/>
      <point x="222" y="676"/>
      <point x="222" y="678"/>
      <point x="223" y="680" type="curve" smooth="yes"/>
      <point x="227" y="693"/>
      <point x="237" y="699"/>
      <point x="258" y="699" type="curve" smooth="yes"/>
      <point x="471" y="699" type="line" smooth="yes"/>
      <point x="489" y="699"/>
      <point x="497" y="695"/>
      <point x="497" y="686" type="curve" smooth="yes"/>
      <point x="497" y="684"/>
      <point x="497" y="682"/>
      <point x="496" y="680" type="curve" smooth="yes"/>
      <point x="492" y="666"/>
      <point x="480" y="662"/>
      <point x="462" y="657" type="curve" smooth="yes"/>
      <point x="441" y="651" type="line" smooth="yes"/>
      <point x="416" y="644"/>
      <point x="400" y="633"/>
      <point x="392" y="606" type="curve" smooth="yes"/>
      <point x="311" y="324" type="line" smooth="yes"/>
      <point x="286.4473503491322" y="238.52040491920098"/>
      <point x="280.0" y="187.0"/>
      <point x="280" y="146" type="curve" smooth="yes"/>
      <point x="280.0" y="82.0"/>
      <point x="321.67647058823525" y="50.0"/>
      <point x="389" y="50" type="curve" smooth="yes"/>
      <point x="463.29761904761904" y="50.0"/>
      <point x="518.6424272950323" y="97.91136124739901"/>
    </contour>
  </outline>
</glyph>
<glyph name="V" format="2">
  <advance width="681"/>
  <unicode hex="0056"/>
  <outline>
    <contour>
      <point x="627" y="678" type="curve" smooth="yes"/>
      <point x="623" y="665"/>
      <point x="631" y="655"/>
      <point x="647" y="647" type="curve" smooth="yes"/>
      <point x="687" y="624" type="line" smooth="yes"/>
      <point x="699" y="617"/>
      <point x="697" y="592"/>
      <point x="678" y="564" type="curve" smooth="yes"/>
      <point x="353" y="61" type="line"/>
      <point x="413" y="79" type="line"/>
      <point x="343" y="587" type="line" smooth="yes"/>
      <point x="338" y="619"/>
      <point x="360" y="640"/>
      <point x="387" y="646" type="curve" smooth="yes"/>
      <point x="411" y="651" type="line" smooth="yes"/>
      <point x="426" y="655"/>
      <point x="437" y="662"/>
      <point x="441" y="678" type="curve" smooth="yes"/>
      <point x="445" y="692"/>
      <point x="437" y="700"/>
      <point x="422" y="700" type="curve" smooth="yes"/>
      <point x="215" y="700" type="line" smooth="yes"/>
      <point x="196" y="700"/>
      <point x="183" y="693"/>
      <point x="179" y="680" type="curve" smooth="yes"/>
      <point x="176" y="668"/>
      <point x="182" y="662"/>
      <point x="197" y="651" type="curve" smooth="yes"/>
      <point x="208" y="643"/>
      <point x="224" y="628"/>
      <point x="230" y="591" type="curve" smooth="yes"/>
      <point x="306" y="93" type="line" smooth="yes"/>
      <point x="310" y="68"/>
      <point x="297" y="48"/>
      <point x="291" y="23" type="curve" smooth="yes"/>
      <point x="288" y="9"/>
      <point x="298" y="0"/>
      <point x="315" y="0" type="curve" smooth="yes"/>
      <point x="380" y="0" type="line" smooth="yes"/>
      <point x="397" y="0"/>
      <point x="414" y="9"/>
      <point x="417" y="23" type="curve" smooth="yes"/>
      <point x="425" y="53"/>
      <point x="420" y="70"/>
      <point x="434" y="90" type="curve" smooth="yes"/>
      <point x="745" y="566" type="line" smooth="yes"/>
      <point x="778" y="616"/>
      <point x="795" y="627"/>
      <point x="817" y="639" type="curve" smooth="yes"/>
      <point x="840" y="653"/>
      <point x="855" y="661"/>
      <point x="858" y="677" type="curve" smooth="yes"/>
      <point x="863" y="693"/>
      <point x="854" y="700"/>
      <point x="831" y="700" type="curve" smooth="yes"/>
      <point x="661" y="700" type="line" smooth="yes"/>
      <point x="642" y="700"/>
      <point x="630" y="691"/>
    </contour>
  </outline>
</glyph>
<glyph name="W" format="2">
  <advance width="1016"/>
  <unicode hex="0057"/>
  <outline>
    <contour>
      <point x="586" y="539" type="line"/>
      <point x="331" y="70" type="line"/>
      <point x="376" y="79" type="line"/>
      <point x="291" y="587" type="line" smooth="yes"/>
      <point x="283" y="620"/>
      <point x="303" y="644"/>
      <point x="328" y="649" type="curve" smooth="yes"/>
      <point x="349" y="654" type="line" smooth="yes"/>
      <point x="364" y="657"/>
      <point x="374" y="664"/>
      <point x="377" y="678" type="curve" smooth="yes"/>
      <point x="379" y="692"/>
      <point x="370" y="700"/>
      <point x="356" y="700" type="curve" smooth="yes"/>
      <point x="152" y="700" type="line" smooth="yes"/>
      <point x="134" y="700"/>
      <point x="122" y="693"/>
      <point x="120" y="680" type="curve" smooth="yes"/>
      <point x="117" y="664"/>
      <point x="120" y="654"/>
      <point x="146" y="643" type="curve" smooth="yes"/>
      <point x="165" y="634"/>
      <point x="176" y="623"/>
      <point x="182" y="591" type="curve" smooth="yes"/>
      <point x="274" y="93" type="line" smooth="yes"/>
      <point x="279" y="66"/>
      <point x="267" y="52"/>
      <point x="262" y="23" type="curve" smooth="yes"/>
      <point x="260" y="9"/>
      <point x="271" y="0"/>
      <point x="287" y="0" type="curve" smooth="yes"/>
      <point x="358" y="0" type="line" smooth="yes"/>
      <point x="375" y="0"/>
      <point x="390" y="9"/>
      <point x="392" y="23" type="curve" smooth="yes"/>
      <point x="397" y="50"/>
      <point x="389" y="69"/>
      <point x="405" y="99" type="curve" smooth="yes"/>
      <point x="613" y="483" type="line"/>
    </contour>
    <contour>
      <point x="906" y="675" type="curve" smooth="yes"/>
      <point x="904" y="661"/>
      <point x="912" y="651"/>
      <point x="927" y="644" type="curve" smooth="yes"/>
      <point x="972" y="622" type="line" smooth="yes"/>
      <point x="988" y="615"/>
      <point x="985" y="592"/>
      <point x="969" y="562" type="curve" smooth="yes"/>
      <point x="708" y="61" type="line"/>
      <point x="764" y="79" type="line"/>
      <point x="678" y="587" type="line" smooth="yes"/>
      <point x="672" y="619"/>
      <point x="689" y="646"/>
      <point x="704" y="649" type="curve" smooth="yes"/>
      <point x="725" y="654" type="line" smooth="yes"/>
      <point x="740" y="657"/>
      <point x="749" y="664"/>
      <point x="752" y="678" type="curve" smooth="yes"/>
      <point x="754" y="692"/>
      <point x="746" y="700"/>
      <point x="732" y="700" type="curve" smooth="yes"/>
      <point x="544" y="700" type="line" smooth="yes"/>
      <point x="526" y="700"/>
      <point x="514" y="693"/>
      <point x="512" y="680" type="curve" smooth="yes"/>
      <point x="510" y="668"/>
      <point x="516" y="662"/>
      <point x="531" y="651" type="curve" smooth="yes"/>
      <point x="543" y="642"/>
      <point x="564" y="629"/>
      <point x="570" y="591" type="curve" smooth="yes"/>
      <point x="661" y="93" type="line" smooth="yes"/>
      <point x="665" y="70"/>
      <point x="650" y="51"/>
      <point x="645" y="23" type="curve" smooth="yes"/>
      <point x="643" y="9"/>
      <point x="653" y="0"/>
      <point x="670" y="0" type="curve" smooth="yes"/>
      <point x="744" y="0" type="line" smooth="yes"/>
      <point x="760" y="0"/>
      <point x="775" y="9"/>
      <point x="777" y="23" type="curve" smooth="yes"/>
      <point x="782" y="51"/>
      <point x="769" y="64"/>
      <point x="783" y="90" type="curve" smooth="yes"/>
      <point x="1034" y="566" type="line" smooth="yes"/>
      <point x="1064" y="622"/>
      <point x="1079" y="630"/>
      <point x="1107" y="648" type="curve" smooth="yes"/>
      <point x="1126" y="660"/>
      <point x="1132" y="664"/>
      <point x="1135" y="680" type="curve" smooth="yes"/>
      <point x="1137" y="694"/>
      <point x="1131" y="700"/>
      <point x="1115" y="700" type="curve" smooth="yes"/>
      <point x="946" y="700" type="line" smooth="yes"/>
      <point x="923" y="700"/>
      <point x="909" y="690"/>
    </contour>
  </outline>
</glyph>
<glyph name="X" format="2">
  <advance width="658"/>
  <unicode hex="0058"/>
  <outline>
    <contour>
      <point x="598" y="88" type="curve" smooth="yes"/>
      <point x="328" y="606" type="line" smooth="yes"/>
      <point x="312" y="636"/>
      <point x="336" y="645"/>
      <point x="357" y="649" type="curve" smooth="yes"/>
      <point x="379" y="654" type="line" smooth="yes"/>
      <point x="395" y="658"/>
      <point x="404" y="664"/>
      <point x="407" y="678" type="curve" smooth="yes"/>
      <point x="409" y="692"/>
      <point x="401" y="700"/>
      <point x="386" y="700" type="curve" smooth="yes"/>
      <point x="161" y="700" type="line" smooth="yes"/>
      <point x="143" y="700"/>
      <point x="129" y="693"/>
      <point x="127" y="680" type="curve" smooth="yes"/>
      <point x="125" y="668"/>
      <point x="133" y="661"/>
      <point x="157" y="651" type="curve" smooth="yes"/>
      <point x="181" y="642"/>
      <point x="185" y="637"/>
      <point x="199" y="609" type="curve" smooth="yes"/>
      <point x="479" y="84" type="line" smooth="yes"/>
      <point x="492" y="60"/>
      <point x="465" y="49"/>
      <point x="435" y="49" type="curve" smooth="yes"/>
      <point x="415" y="49"/>
      <point x="402" y="39"/>
      <point x="399" y="23" type="curve" smooth="yes"/>
      <point x="397" y="9"/>
      <point x="408" y="0"/>
      <point x="425" y="0" type="curve" smooth="yes"/>
      <point x="628" y="0" type="line" smooth="yes"/>
      <point x="646" y="0"/>
      <point x="661" y="9"/>
      <point x="663" y="23" type="curve" smooth="yes"/>
      <point x="666" y="39"/>
      <point x="656" y="47"/>
      <point x="637" y="49" type="curve" smooth="yes"/>
      <point x="617" y="50"/>
      <point x="610" y="64"/>
    </contour>
    <contour>
      <point x="389" y="311" type="line"/>
      <point x="612" y="566" type="line" smooth="yes"/>
      <point x="654" y="614"/>
      <point x="696" y="636"/>
      <point x="714" y="643" type="curve" smooth="yes"/>
      <point x="752" y="656"/>
      <point x="768" y="662"/>
      <point x="771" y="680" type="curve" smooth="yes"/>
      <point x="773" y="694"/>
      <point x="767" y="700"/>
      <point x="750" y="700" type="curve" smooth="yes"/>
      <point x="544" y="700" type="line" smooth="yes"/>
      <point x="525" y="700"/>
      <point x="514" y="692"/>
      <point x="512" y="678" type="curve" smooth="yes"/>
      <point x="509" y="663"/>
      <point x="519" y="655"/>
      <point x="542" y="649" type="curve" smooth="yes"/>
      <point x="567" y="644" type="line" smooth="yes"/>
      <point x="587" y="639"/>
      <point x="582" y="604"/>
      <point x="565" y="585" type="curve" smooth="yes"/>
      <point x="361" y="346" type="line"/>
    </contour>
    <contour>
      <point x="396" y="390" type="line"/>
      <point x="163" y="134" type="line" smooth="yes"/>
      <point x="130" y="99"/>
      <point x="91" y="70"/>
      <point x="63" y="61" type="curve" smooth="yes"/>
      <point x="24" y="49"/>
      <point x="6" y="35"/>
      <point x="4" y="21" type="curve" smooth="yes"/>
      <point x="1" y="7"/>
      <point x="7" y="1"/>
      <point x="24" y="1" type="curve" smooth="yes"/>
      <point x="230" y="1" type="line" smooth="yes"/>
      <point x="249" y="1"/>
      <point x="261" y="9"/>
      <point x="263" y="22" type="curve" smooth="yes"/>
      <point x="265" y="33"/>
      <point x="258" y="40"/>
      <point x="231" y="53" type="curve" smooth="yes"/>
      <point x="206" y="65" type="line" smooth="yes"/>
      <point x="188" y="74"/>
      <point x="189" y="92"/>
      <point x="209" y="116" type="curve" smooth="yes"/>
      <point x="423" y="355" type="line"/>
    </contour>
  </outline>
</glyph>
<glyph name="Y" format="2">
  <advance width="639"/>
  <unicode hex="0059"/>
  <outline>
    <contour>
      <point x="340" y="246" type="line"/>
      <point x="299" y="92" type="line" smooth="yes"/>
      <point x="293" y="66"/>
      <point x="277" y="53"/>
      <point x="251" y="48" type="curve" smooth="yes"/>
      <point x="225" y="42" type="line" smooth="yes"/>
      <point x="206" y="38"/>
      <point x="195" y="33"/>
      <point x="191" y="19" type="curve" smooth="yes"/>
      <point x="188" y="6"/>
      <point x="195" y="0"/>
      <point x="216" y="0" type="curve" smooth="yes"/>
      <point x="439" y="0" type="line" smooth="yes"/>
      <point x="460" y="0"/>
      <point x="471" y="6"/>
      <point x="474" y="19" type="curve" smooth="yes"/>
      <point x="478" y="33"/>
      <point x="469" y="38"/>
      <point x="452" y="42" type="curve" smooth="yes"/>
      <point x="428" y="48" type="line" smooth="yes"/>
      <point x="406" y="53"/>
      <point x="398" y="66"/>
      <point x="404" y="92" type="curve" smooth="yes"/>
      <point x="445" y="246" type="line"/>
    </contour>
    <contour>
      <point x="418" y="205" type="line"/>
      <point x="707" y="566" type="line" smooth="yes"/>
      <point x="748" y="618"/>
      <point x="769" y="628"/>
      <point x="788" y="638" type="curve" smooth="yes"/>
      <point x="814" y="651"/>
      <point x="828" y="663"/>
      <point x="831" y="677" type="curve" smooth="yes"/>
      <point x="836" y="693"/>
      <point x="827" y="700"/>
      <point x="804" y="700" type="curve" smooth="yes"/>
      <point x="625" y="700" type="line" smooth="yes"/>
      <point x="607" y="700"/>
      <point x="594" y="691"/>
      <point x="591" y="678" type="curve" smooth="yes"/>
      <point x="587" y="665"/>
      <point x="596" y="655"/>
      <point x="618" y="647" type="curve" smooth="yes"/>
      <point x="642" y="637" type="line" smooth="yes"/>
      <point x="660" y="631"/>
      <point x="670" y="620"/>
      <point x="668" y="605" type="curve" smooth="yes"/>
      <point x="665" y="594"/>
      <point x="658" y="580"/>
      <point x="644" y="564" type="curve" smooth="yes"/>
      <point x="401" y="253" type="line"/>
      <point x="430" y="273" type="line"/>
      <point x="338" y="587" type="line" smooth="yes"/>
      <point x="329" y="615"/>
      <point x="351" y="643"/>
      <point x="384" y="649" type="curve" smooth="yes"/>
      <point x="406" y="654" type="line" smooth="yes"/>
      <point x="423" y="658"/>
      <point x="433" y="664"/>
      <point x="437" y="678" type="curve" smooth="yes"/>
      <point x="441" y="692"/>
      <point x="432" y="700"/>
      <point x="417" y="700" type="curve" smooth="yes"/>
      <point x="201" y="700" type="line" smooth="yes"/>
      <point x="182" y="700"/>
      <point x="169" y="693"/>
      <point x="165" y="680" type="curve" smooth="yes"/>
      <point x="162" y="668"/>
      <point x="169" y="661"/>
      <point x="193" y="651" type="curve" smooth="yes"/>
      <point x="216" y="642"/>
      <point x="215" y="627"/>
      <point x="225" y="591" type="curve" smooth="yes"/>
      <point x="343" y="205" type="line"/>
      <point x="348" y="208" type="line"/>
      <point x="345" y="204" type="line"/>
    </contour>
  </outline>
</glyph>
<glyph name="Z" format="2">
  <advance width="590"/>
  <unicode hex="005A"/>
  <outline>
    <contour>
      <point x="711" y="641" type="line" smooth="yes"/>
      <point x="725" y="657"/>
      <point x="733" y="666"/>
      <point x="736" y="677" type="curve" smooth="yes"/>
      <point x="739" y="689"/>
      <point x="731" y="698"/>
      <point x="706" y="698" type="curve" smooth="yes"/>
      <point x="344" y="698" type="line" smooth="yes"/>
      <point x="320" y="698"/>
      <point x="305" y="721"/>
      <point x="283" y="721" type="curve" smooth="yes"/>
      <point x="269" y="721"/>
      <point x="260" y="708"/>
      <point x="248" y="684" type="curve" smooth="yes"/>
      <point x="196" y="579" type="line" smooth="yes"/>
      <point x="192" y="571"/>
      <point x="188" y="565"/>
      <point x="186" y="558" type="curve" smooth="yes"/>
      <point x="183" y="544"/>
      <point x="191" y="536"/>
      <point x="201" y="536" type="curve" smooth="yes"/>
      <point x="220" y="536"/>
      <point x="232" y="547"/>
      <point x="248" y="564" type="curve" smooth="yes"/>
      <point x="288" y="605" type="line" smooth="yes"/>
      <point x="314" y="633"/>
      <point x="326" y="647"/>
      <point x="359" y="647" type="curve" smooth="yes"/>
      <point x="621" y="647" type="line"/>
      <point x="614" y="664" type="line"/>
      <point x="59" y="60" type="line" smooth="yes"/>
      <point x="42" y="41"/>
      <point x="37" y="33"/>
      <point x="34" y="21" type="curve" smooth="yes"/>
      <point x="30" y="8"/>
      <point x="38" y="-3"/>
      <point x="64" y="-3" type="curve" smooth="yes"/>
      <point x="385" y="-3" type="line" smooth="yes"/>
      <point x="448" y="-3"/>
      <point x="472" y="-28"/>
      <point x="501" y="-28" type="curve" smooth="yes"/>
      <point x="515" y="-28"/>
      <point x="522" y="-18"/>
      <point x="536" y="9" type="curve" smooth="yes"/>
      <point x="594" y="136" type="line" smooth="yes"/>
      <point x="599" y="146"/>
      <point x="602" y="151"/>
      <point x="604" y="157" type="curve" smooth="yes"/>
      <point x="608" y="173"/>
      <point x="599" y="182"/>
      <point x="587" y="182" type="curve" smooth="yes"/>
      <point x="572" y="182"/>
      <point x="559" y="172"/>
      <point x="543" y="153" type="curve" smooth="yes"/>
      <point x="492" y="95" type="line" smooth="yes"/>
      <point x="463" y="62"/>
      <point x="433" y="48"/>
      <point x="398" y="48" type="curve" smooth="yes"/>
      <point x="141" y="48" type="line"/>
      <point x="150" y="30" type="line"/>
    </contour>
  </outline>
</glyph>
<glyph name="bracketleft" format="2">
  <advance width="348"/>
  <unicode hex="005B"/>
  <outline>
    <contour>
      <point x="381" y="685" type="line" smooth="yes"/>
      <point x="386" y="704"/>
      <point x="405" y="719"/>
      <point x="423" y="719" type="curve" smooth="yes"/>
      <point x="473" y="719" type="line" smooth="yes"/>
      <point x="490" y="719"/>
      <point x="497" y="724"/>
      <point x="500" y="736" type="curve" smooth="yes"/>
      <point x="503" y="746"/>
      <point x="500" y="756"/>
      <point x="485" y="756" type="curve" smooth="yes"/>
      <point x="363" y="756" type="line" smooth="yes"/>
      <point x="340" y="756"/>
      <point x="317" y="734"/>
      <point x="309" y="707" type="curve" smooth="yes"/>
      <point x="86" y="-128" type="line" smooth="yes"/>
      <point x="78" y="-155"/>
      <point x="90" y="-177"/>
      <point x="113" y="-177" type="curve" smooth="yes"/>
      <point x="235" y="-177" type="line" smooth="yes"/>
      <point x="250" y="-177"/>
      <point x="258" y="-167"/>
      <point x="261" y="-157" type="curve" smooth="yes"/>
      <point x="264" y="-145"/>
      <point x="259" y="-140"/>
      <point x="242" y="-140" type="curve" smooth="yes"/>
      <point x="192" y="-140" type="line" smooth="yes"/>
      <point x="174" y="-140"/>
      <point x="164" y="-125"/>
      <point x="169" y="-106" type="curve" smooth="yes"/>
    </contour>
    <contour>
      <point x="381" y="685" type="line" smooth="yes"/>
      <point x="386" y="704"/>
      <point x="405" y="719"/>
      <point x="423" y="719" type="curve" smooth="yes"/>
      <point x="473" y="719" type="line" smooth="yes"/>
      <point x="490" y="719"/>
      <point x="497" y="724"/>
      <point x="500" y="736" type="curve" smooth="yes"/>
      <point x="503" y="746"/>
      <point x="500" y="756"/>
      <point x="485" y="756" type="curve" smooth="yes"/>
      <point x="363" y="756" type="line" smooth="yes"/>
      <point x="340" y="756"/>
      <point x="317" y="734"/>
      <point x="309" y="707" type="curve" smooth="yes"/>
      <point x="86" y="-128" type="line" smooth="yes"/>
      <point x="78" y="-155"/>
      <point x="90" y="-177"/>
      <point x="113" y="-177" type="curve" smooth="yes"/>
      <point x="235" y="-177" type="line" smooth="yes"/>
      <point x="250" y="-177"/>
      <point x="258" y="-167"/>
      <point x="261" y="-157" type="curve" smooth="yes"/>
      <point x="264" y="-145"/>
      <point x="259" y="-140"/>
      <point x="242" y="-140" type="curve" smooth="yes"/>
      <point x="192" y="-140" type="line" smooth="yes"/>
      <point x="174" y="-140"/>
      <point x="164" y="-125"/>
      <point x="169" y="-106" type="curve" smooth="yes"/>
    </contour>
  </outline>
</glyph>
<glyph name="backslash" format="2">
  <advance width="420"/>
  <unicode hex="005C"/>
  <outline>
    <contour>
      <point x="237" y="734" type="line" smooth="yes"/>
      <point x="235" y="750"/>
      <point x="227" y="766"/>
      <point x="210" y="766" type="curve" smooth="yes"/>
      <point x="187" y="766"/>
      <point x="176" y="751"/>
      <point x="181" y="721" type="curve" smooth="yes"/>
      <point x="299" y="-74" type="line" smooth="yes"/>
      <point x="301" y="-91"/>
      <point x="310" y="-107"/>
      <point x="328" y="-106" type="curve" smooth="yes"/>
      <point x="350" y="-105"/>
      <point x="359" y="-90"/>
      <point x="355" y="-66" type="curve" smooth="yes"/>
    </contour>
  </outline>
</glyph>
<glyph name="a" format="2">
  <advance width="540"/>
  <unicode hex="0061"/>
  <outline>
    <contour>
      <point x="468" y="63"/>
      <point x="458.0" y="111.31468531468532"/>
      <point x="458" y="204" type="curve" smooth="yes"/>
      <point x="458.0" y="297.8157894736842"/>
      <point x="494.0" y="373.73262032085563"/>
      <point x="494" y="434" type="curve" smooth="yes"/>
      <point x="494.0" y="465.3953488372093"/>
      <point x="461.728813559322" y="479.0"/>
      <point x="426" y="479" type="curve" smooth="yes"/>
      <point x="271" y="479"/>
      <point x="70" y="248"/>
      <point x="70" y="83" type="curve" smooth="yes"/>
      <point x="70.0" y="13"/>
      <point x="100" y="-15"/>
      <point x="155" y="-15.0" type="curve" smooth="yes"/>
      <point x="227.80072463768116" y="-15.0"/>
      <point x="282" y="27"/>
      <point x="438" y="307" type="curve"/>
      <point x="399" y="322" type="line"/>
      <point x="313" y="140"/>
      <point x="244.75879396984925" y="82.0"/>
      <point x="193" y="82" type="curve" smooth="yes"/>
      <point x="168" y="82"/>
      <point x="150.0" y="97.26153846153846"/>
      <point x="150.0" y="144" type="curve" smooth="yes"/>
      <point x="150.0" y="262.4166666666667"/>
      <point x="262" y="389"/>
      <point x="332" y="389.0" type="curve" smooth="yes"/>
      <point x="383.0" y="389.0"/>
      <point x="399.0" y="342.0"/>
      <point x="399.0" y="220" type="curve" smooth="yes"/>
      <point x="399" y="157"/>
      <point x="369.0" y="105"/>
      <point x="369.0" y="55" type="curve" smooth="yes"/>
      <point x="369" y="16"/>
      <point x="394" y="-15"/>
      <point x="440" y="-15.0" type="curve" smooth="yes"/>
      <point x="506" y="-15"/>
      <point x="555" y="46"/>
      <point x="555" y="92" type="curve" smooth="yes"/>
      <point x="555.0" y="114.22222222222223"/>
      <point x="545.7368421052631" y="122.0"/>
      <point x="533" y="122" type="curve" smooth="yes"/>
      <point x="523.5" y="122.0"/>
      <point x="516.2643274707833" y="113.98245603087473"/>
      <point x="514" y="97" type="curve" smooth="yes"/>
      <point x="511" y="74"/>
      <point x="502.0" y="63.0"/>
      <point x="493" y="63" type="curve" smooth="yes"/>
    </contour>
  </outline>
</glyph>
<glyph name="b" format="2">
  <advance width="483"/>
  <unicode hex="0062"/>
  <outline>
    <contour>
      <point x="278" y="535" type="line" smooth="yes"/>
      <point x="297" y="609"/>
      <point x="336" y="637"/>
      <point x="390" y="637" type="curve" smooth="yes"/>
      <point x="427" y="637"/>
      <point x="478" y="603"/>
      <point x="516" y="603" type="curve" smooth="yes"/>
      <point x="562" y="603"/>
      <point x="583" y="631"/>
      <point x="583" y="658" type="curve" smooth="yes"/>
      <point x="583" y="688"/>
      <point x="555" y="715"/>
      <point x="504" y="715" type="curve" smooth="yes"/>
      <point x="335" y="715"/>
      <point x="228" y="622"/>
      <point x="191" y="480" type="curve" smooth="yes"/>
      <point x="95" y="111" type="line" smooth="yes"/>
      <point x="81" y="57"/>
      <point x="73" y="33"/>
      <point x="73" y="10" type="curve" smooth="yes"/>
      <point x="73" y="-6"/>
      <point x="83" y="-16"/>
      <point x="97" y="-16" type="curve" smooth="yes"/>
      <point x="113" y="-16"/>
      <point x="125" y="-3"/>
      <point x="140" y="28" type="curve" smooth="yes"/>
      <point x="179" y="111" type="line"/>
      <point x="156" y="123" type="line"/>
      <point x="156.0" y="24.0"/>
      <point x="199.8095238095238" y="-15.0"/>
      <point x="271" y="-15" type="curve" smooth="yes"/>
      <point x="390.0" y="-15.0"/>
      <point x="519.0" y="132"/>
      <point x="519" y="349" type="curve" smooth="yes"/>
      <point x="519" y="446"/>
      <point x="471" y="480.0"/>
      <point x="416" y="480" type="curve" smooth="yes"/>
      <point x="344" y="480.0"/>
      <point x="264" y="421"/>
      <point x="195" y="287" type="curve"/>
      <point x="210" y="272" type="line"/>
    </contour>
    <contour>
      <point x="371" y="405" type="curve" smooth="yes"/>
      <point x="407" y="405.0"/>
      <point x="431.0" y="380"/>
      <point x="431" y="317" type="curve" smooth="yes"/>
      <point x="431.0" y="155.4360902255639"/>
      <point x="344.0" y="45.0"/>
      <point x="263" y="45" type="curve" smooth="yes"/>
      <point x="215.0" y="45.0"/>
      <point x="192.0" y="77.15789473684211"/>
      <point x="192" y="139" type="curve" smooth="yes"/>
      <point x="192.0" y="273.8732394366197"/>
      <point x="286.0508474576271" y="405.0"/>
    </contour>
  </outline>
</glyph>
<glyph name="c" format="2">
  <advance width="385"/>
  <unicode hex="0063"/>
  <outline>
    <contour>
      <point x="316" y="403" type="curve" smooth="yes"/>
      <point x="335.8421052631579" y="403.0"/>
      <point x="347.46091487513957" y="392.12487933407783"/>
      <point x="345" y="379" type="curve" smooth="yes"/>
      <point x="342" y="363" type="line" smooth="yes"/>
      <point x="335" y="328"/>
      <point x="356" y="303"/>
      <point x="387" y="303" type="curve" smooth="yes"/>
      <point x="417" y="303"/>
      <point x="448" y="329"/>
      <point x="454" y="362" type="curve" smooth="yes"/>
      <point x="466.04895226521813" y="428.2692374586997"/>
      <point x="433.8313253012048" y="480.0"/>
      <point x="361" y="480" type="curve" smooth="yes"/>
      <point x="219.25" y="480.0"/>
      <point x="85.00027793206766" y="283.9923568681395"/>
      <point x="91" y="119" type="curve" smooth="yes"/>
      <point x="94" y="48"/>
      <point x="140" y="-15"/>
      <point x="214" y="-15" type="curve" smooth="yes"/>
      <point x="302.5" y="-15.0"/>
      <point x="391.0" y="60.77142857142857"/>
      <point x="391" y="121" type="curve" smooth="yes"/>
      <point x="391" y="135"/>
      <point x="384" y="145"/>
      <point x="377" y="145" type="curve" smooth="yes"/>
      <point x="362" y="145"/>
      <point x="351" y="132"/>
      <point x="342" y="118" type="curve" smooth="yes"/>
      <point x="324.399226422643" y="89.28294837378589"/>
      <point x="295.7053571428571" y="67.0"/>
      <point x="257" y="67" type="curve" smooth="yes"/>
      <point x="201" y="67"/>
      <point x="166" y="111"/>
      <point x="164" y="176" type="curve" smooth="yes"/>
      <point x="161.00011025638358" y="296.9955529925288"/>
      <point x="240.0" y="403.0"/>
    </contour>
  </outline>
</glyph>
<glyph name="d" format="2">
  <advance width="511"/>
  <unicode hex="0064"/>
  <outline>
    <contour>
      <point x="493" y="466" type="line"/>
      <point x="482" y="472"/>
      <point x="447" y="479"/>
      <point x="396" y="479" type="curve" smooth="yes"/>
      <point x="247" y="479"/>
      <point x="70" y="260"/>
      <point x="70" y="83" type="curve" smooth="yes"/>
      <point x="70" y="17"/>
      <point x="103" y="-15"/>
      <point x="152" y="-15" type="curve" smooth="yes"/>
      <point x="219" y="-15"/>
      <point x="282" y="46"/>
      <point x="444" y="337" type="curve"/>
      <point x="405" y="352" type="line"/>
      <point x="310" y="150"/>
      <point x="243" y="83"/>
      <point x="187" y="83" type="curve" smooth="yes"/>
      <point x="163" y="83"/>
      <point x="146" y="98"/>
      <point x="146" y="143" type="curve" smooth="yes"/>
      <point x="146" y="264"/>
      <point x="245" y="394"/>
      <point x="329" y="394" type="curve" smooth="yes"/>
      <point x="378" y="394"/>
      <point x="406" y="360"/>
      <point x="406" y="313" type="curve"/>
    </contour>
    <contour>
      <point x="580" y="715" type="curve" smooth="yes"/>
      <point x="498" y="715"/>
      <point x="468" y="649"/>
      <point x="444" y="549" type="curve" smooth="yes"/>
      <point x="355" y="184" type="line" smooth="yes"/>
      <point x="340" y="124"/>
      <point x="333" y="103"/>
      <point x="333" y="60" type="curve" smooth="yes"/>
      <point x="333" y="16"/>
      <point x="361" y="-15"/>
      <point x="410" y="-15" type="curve" smooth="yes"/>
      <point x="476" y="-15"/>
      <point x="525" y="46"/>
      <point x="525" y="92" type="curve" smooth="yes"/>
      <point x="525" y="114"/>
      <point x="516" y="122"/>
      <point x="505" y="122" type="curve" smooth="yes"/>
      <point x="495" y="122"/>
      <point x="488" y="115"/>
      <point x="485" y="100" type="curve" smooth="yes"/>
      <point x="482" y="83"/>
      <point x="471" y="73"/>
      <point x="454" y="73" type="curve" smooth="yes"/>
      <point x="438" y="73"/>
      <point x="424" y="93"/>
      <point x="424" y="130" type="curve" smooth="yes"/>
      <point x="424" y="149"/>
      <point x="426" y="177"/>
      <point x="432" y="202" type="curve" smooth="yes"/>
      <point x="499" y="502" type="line" smooth="yes"/>
      <point x="515" y="572"/>
      <point x="537" y="603"/>
      <point x="565" y="608" type="curve" smooth="yes"/>
      <point x="611" y="616"/>
      <point x="626" y="638"/>
      <point x="628" y="668" type="curve" smooth="yes"/>
      <point x="630" y="698"/>
      <point x="610" y="715"/>
    </contour>
  </outline>
</glyph>
<glyph name="e" format="2">
  <advance width="409"/>
  <unicode hex="0065"/>
  <outline>
    <contour>
      <point x="128" y="176" type="line"/>
      <point x="374.0" y="236.0"/>
      <point x="461.0" y="302"/>
      <point x="465" y="404" type="curve" smooth="yes"/>
      <point x="467" y="456"/>
      <point x="426.6842105263158" y="480.0"/>
      <point x="374" y="480" type="curve" smooth="yes"/>
      <point x="241" y="480"/>
      <point x="77.83627932856152" y="281.7151553374281"/>
      <point x="83" y="133" type="curve" smooth="yes"/>
      <point x="85.8101917265544" y="44.01059532577733"/>
      <point x="133.03508771929825" y="-15.0"/>
      <point x="207" y="-15" type="curve" smooth="yes"/>
      <point x="309.0" y="-15.0"/>
      <point x="411.0" y="63.0"/>
      <point x="411" y="125" type="curve" smooth="yes"/>
      <point x="411" y="139"/>
      <point x="404" y="149"/>
      <point x="397" y="149" type="curve" smooth="yes"/>
      <point x="382" y="149"/>
      <point x="371" y="136"/>
      <point x="362" y="122" type="curve" smooth="yes"/>
      <point x="341.46090500958144" y="88.74622715837"/>
      <point x="300.4918032786885" y="67.0"/>
      <point x="250" y="67" type="curve" smooth="yes"/>
      <point x="194.04761904761904" y="67.0"/>
      <point x="158.77455216492146" y="107.68828577399566"/>
      <point x="156" y="190" type="curve" smooth="yes"/>
      <point x="152.83336942831608" y="300.8320700089371"/>
      <point x="251.4074074074074" y="399.0"/>
      <point x="324" y="399" type="curve" smooth="yes"/>
      <point x="356.82352941176475" y="399.0"/>
      <point x="377.2168756735762" y="388.05997844556157"/>
      <point x="378" y="363" type="curve" smooth="yes"/>
      <point x="380.1387873913776" y="309.5303152155603"/>
      <point x="331.73135818240564" y="262.0015191233639"/>
      <point x="127" y="209" type="curve"/>
    </contour>
  </outline>
</glyph>
<glyph name="f" format="2">
  <advance width="271"/>
  <unicode hex="0066"/>
  <outline>
    <contour>
      <point x="245" y="418" type="line"/>
      <point x="356" y="418" type="line" smooth="yes"/>
      <point x="378" y="418"/>
      <point x="393" y="429"/>
      <point x="393" y="447" type="curve" smooth="yes"/>
      <point x="393" y="459"/>
      <point x="385" y="465"/>
      <point x="370" y="465" type="curve" smooth="yes"/>
      <point x="251" y="465" type="line"/>
    </contour>
    <contour>
      <point x="119" y="441" type="curve" smooth="yes"/>
      <point x="119" y="431"/>
      <point x="127" y="421"/>
      <point x="147" y="414" type="curve" smooth="yes"/>
      <point x="177" y="403"/>
      <point x="188" y="375"/>
      <point x="178" y="343" type="curve" smooth="yes"/>
      <point x="53" y="-61" type="line" smooth="yes"/>
      <point x="43" y="-93"/>
      <point x="39" y="-116"/>
      <point x="40" y="-147" type="curve" smooth="yes"/>
      <point x="42" y="-175"/>
      <point x="59" y="-190"/>
      <point x="89" y="-190" type="curve" smooth="yes"/>
      <point x="121" y="-190"/>
      <point x="153" y="-163"/>
      <point x="153" y="-128" type="curve" smooth="yes"/>
      <point x="153" y="-91"/>
      <point x="141" y="-86"/>
      <point x="141" y="-53" type="curve" smooth="yes"/>
      <point x="141" y="-41"/>
      <point x="142" y="-25"/>
      <point x="148" y="-3" type="curve" smooth="yes"/>
      <point x="284" y="479" type="line" smooth="yes"/>
      <point x="299" y="533"/>
      <point x="279.0" y="577.7368421052631"/>
      <point x="279" y="613" type="curve" smooth="yes"/>
      <point x="279.0" y="643.6666666666667"/>
      <point x="295.5952380952381" y="659.0"/>
      <point x="320" y="659" type="curve" smooth="yes"/>
      <point x="357.1590909090909" y="659.0"/>
      <point x="388.5842696629213" y="609.0"/>
      <point x="429" y="609" type="curve" smooth="yes"/>
      <point x="461.0" y="609.0"/>
      <point x="478.0" y="631"/>
      <point x="478" y="658" type="curve" smooth="yes"/>
      <point x="478.0" y="689.0"/>
      <point x="448.04761904761904" y="716.0"/>
      <point x="393" y="716" type="curve" smooth="yes"/>
      <point x="296.961038961039" y="716.0"/>
      <point x="231.0761165515829" y="650.922666987536"/>
      <point x="219" y="568" type="curve" smooth="yes"/>
      <point x="204" y="465" type="line"/>
      <point x="149" y="465" type="line" smooth="yes"/>
      <point x="131" y="465"/>
      <point x="119" y="455"/>
    </contour>
  </outline>
</glyph>
<glyph name="g" format="2">
  <advance width="480"/>
  <unicode hex="0067"/>
  <outline>
    <contour>
      <point x="443" y="45" type="curve" smooth="yes"/>
      <point x="462" y="128"/>
      <point x="492" y="317"/>
      <point x="492" y="384" type="curve" smooth="yes"/>
      <point x="492.0" y="449.07253821135396"/>
      <point x="465.5615192254361" y="479.0"/>
      <point x="410" y="479" type="curve" smooth="yes"/>
      <point x="251" y="479"/>
      <point x="82" y="279"/>
      <point x="82" y="98" type="curve" smooth="yes"/>
      <point x="82.0" y="22.935743777586566"/>
      <point x="114.57457292862513" y="-15.0"/>
      <point x="166" y="-15" type="curve" smooth="yes"/>
      <point x="250" y="-15"/>
      <point x="349" y="48"/>
      <point x="436" y="301" type="curve"/>
      <point x="396" y="271" type="line"/>
      <point x="396" y="268"/>
      <point x="396" y="265"/>
      <point x="396" y="262" type="curve" smooth="yes"/>
      <point x="396" y="222"/>
      <point x="385" y="141"/>
      <point x="355" y="17" type="curve" smooth="yes"/>
      <point x="318" y="-137"/>
      <point x="273" y="-177"/>
      <point x="211" y="-177" type="curve" smooth="yes"/>
      <point x="183" y="-177"/>
      <point x="156" y="-163"/>
      <point x="137" y="-144" type="curve" smooth="yes"/>
      <point x="115" y="-122"/>
      <point x="95" y="-109"/>
      <point x="78" y="-109" type="curve" smooth="yes"/>
      <point x="50" y="-109"/>
      <point x="34" y="-130"/>
      <point x="34" y="-157" type="curve" smooth="yes"/>
      <point x="34.0" y="-203.04543109109048"/>
      <point x="60.6408645518096" y="-245.0"/>
      <point x="161" y="-245" type="curve" smooth="yes"/>
      <point x="269" y="-245"/>
      <point x="397" y="-159"/>
    </contour>
    <contour>
      <point x="172.7296169540675" y="71.0"/>
      <point x="154.0" y="92.95456890890955"/>
      <point x="154" y="141" type="curve" smooth="yes"/>
      <point x="154" y="281"/>
      <point x="275" y="401"/>
      <point x="365" y="401" type="curve" smooth="yes"/>
      <point x="396.0" y="401.0"/>
      <point x="414.0" y="379.0"/>
      <point x="414" y="348" type="curve" smooth="yes"/>
      <point x="414" y="255"/>
      <point x="294" y="71"/>
      <point x="200" y="71" type="curve" smooth="yes"/>
    </contour>
  </outline>
</glyph>
<glyph name="h" format="2">
  <advance width="521"/>
  <unicode hex="0068"/>
  <outline>
    <contour>
      <point x="216" y="203" type="curve" smooth="yes"/>
      <point x="203" y="167"/>
      <point x="192" y="139"/>
      <point x="192" y="120" type="curve" smooth="yes"/>
      <point x="192" y="84"/>
      <point x="198" y="70"/>
      <point x="198" y="47" type="curve" smooth="yes"/>
      <point x="198" y="10"/>
      <point x="164" y="-15"/>
      <point x="128" y="-15" type="curve" smooth="yes"/>
      <point x="105" y="-15"/>
      <point x="90" y="5"/>
      <point x="90" y="39" type="curve" smooth="yes"/>
      <point x="90" y="58"/>
      <point x="99" y="77"/>
      <point x="118" y="141" type="curve" smooth="yes"/>
      <point x="226" y="504" type="line" smooth="yes"/>
      <point x="265.46062580822365" y="636.6315478554184"/>
      <point x="355.1118421052632" y="715.0"/>
      <point x="540" y="715.0" type="curve" smooth="yes"/>
      <point x="604.9411764705883" y="715.0"/>
      <point x="632.0" y="690.0"/>
      <point x="632" y="661" type="curve" smooth="yes"/>
      <point x="632.0" y="633.0"/>
      <point x="612.0" y="610.0"/>
      <point x="576" y="610" type="curve" smooth="yes"/>
      <point x="539.0" y="610.0"/>
      <point x="491.0" y="661.0"/>
      <point x="431" y="661.0" type="curve" smooth="yes"/>
      <point x="377.0" y="661.0"/>
      <point x="333.05316481153784" y="622.9054861761196"/>
      <point x="308" y="530" type="curve" smooth="yes"/>
      <point x="266" y="374"/>
      <point x="244.0" y="332.1111111111111"/>
      <point x="244" y="287" type="curve"/>
      <point x="232" y="291" type="line"/>
      <point x="281" y="410"/>
      <point x="391.6058091286307" y="480.0"/>
      <point x="477" y="480" type="curve" smooth="yes"/>
      <point x="515" y="480"/>
      <point x="536.0" y="454.0"/>
      <point x="536" y="417" type="curve" smooth="yes"/>
      <point x="536" y="375"/>
      <point x="524" y="346"/>
      <point x="506" y="299" type="curve" smooth="yes"/>
      <point x="457" y="170" type="line" smooth="yes"/>
      <point x="448" y="146"/>
      <point x="439" y="121"/>
      <point x="441" y="98" type="curve" smooth="yes"/>
      <point x="442" y="78"/>
      <point x="453" y="66"/>
      <point x="467" y="66" type="curve" smooth="yes"/>
      <point x="480" y="66"/>
      <point x="495" y="74"/>
      <point x="505" y="88" type="curve" smooth="yes"/>
      <point x="514" y="101"/>
      <point x="520" y="106"/>
      <point x="527" y="106" type="curve" smooth="yes"/>
      <point x="536" y="106"/>
      <point x="543" y="101"/>
      <point x="544" y="87" type="curve" smooth="yes"/>
      <point x="546" y="43"/>
      <point x="488" y="-15"/>
      <point x="411" y="-15" type="curve" smooth="yes"/>
      <point x="370" y="-15"/>
      <point x="350" y="14"/>
      <point x="348" y="50" type="curve" smooth="yes"/>
      <point x="347" y="79"/>
      <point x="360" y="106"/>
      <point x="373" y="140" type="curve" smooth="yes"/>
      <point x="432" y="293" type="line" smooth="yes"/>
      <point x="440.7956013762619" y="315.80893238250974"/>
      <point x="446.0" y="340.3"/>
      <point x="446" y="359" type="curve" smooth="yes"/>
      <point x="444.2772959930573" y="381.39515209025546"/>
      <point x="434.85714285714283" y="396.0"/>
      <point x="407" y="396" type="curve" smooth="yes"/>
      <point x="353.18232044198896" y="396.0"/>
      <point x="262.29775171136777" y="331.8285265011972"/>
    </contour>
  </outline>
</glyph>
<glyph name="i" format="2">
  <advance width="309"/>
  <unicode hex="0069"/>
  <outline>
    <contour>
      <point x="221" y="90" type="curve" smooth="yes"/>
      <point x="222" y="71"/>
      <point x="233" y="63"/>
      <point x="243" y="63" type="curve" smooth="yes"/>
      <point x="260" y="63"/>
      <point x="277" y="75"/>
      <point x="289" y="88" type="curve" smooth="yes"/>
      <point x="298" y="99"/>
      <point x="302" y="105"/>
      <point x="310" y="105" type="curve" smooth="yes"/>
      <point x="320" y="105"/>
      <point x="327" y="99"/>
      <point x="328" y="85" type="curve" smooth="yes"/>
      <point x="330" y="49"/>
      <point x="256" y="-15"/>
      <point x="192" y="-15" type="curve" smooth="yes"/>
      <point x="147" y="-15"/>
      <point x="126" y="9"/>
      <point x="124" y="40" type="curve" smooth="yes"/>
      <point x="122" y="84"/>
      <point x="141" y="120"/>
      <point x="160" y="166" type="curve" smooth="yes"/>
      <point x="221" y="317" type="line" smooth="yes"/>
      <point x="231" y="341"/>
      <point x="231" y="356"/>
      <point x="230" y="374" type="curve" smooth="yes"/>
      <point x="230" y="387"/>
      <point x="222" y="394"/>
      <point x="208" y="394" type="curve" smooth="yes"/>
      <point x="193" y="394"/>
      <point x="184" y="386"/>
      <point x="172" y="373" type="curve" smooth="yes"/>
      <point x="161" y="360"/>
      <point x="152" y="352"/>
      <point x="143" y="352" type="curve" smooth="yes"/>
      <point x="131" y="352"/>
      <point x="122" y="358"/>
      <point x="121" y="375" type="curve" smooth="yes"/>
      <point x="120" y="409"/>
      <point x="210" y="480"/>
      <point x="281" y="480" type="curve" smooth="yes"/>
      <point x="314" y="480"/>
      <point x="330" y="462"/>
      <point x="331" y="436" type="curve" smooth="yes"/>
      <point x="333" y="398"/>
      <point x="309" y="343"/>
      <point x="291" y="299" type="curve" smooth="yes"/>
      <point x="242" y="181" type="line" smooth="yes"/>
      <point x="225" y="139"/>
      <point x="220" y="108"/>
    </contour>
    <contour>
      <point x="304" y="558" type="curve" smooth="yes"/>
      <point x="351" y="558"/>
      <point x="409" y="618"/>
      <point x="406" y="673" type="curve" smooth="yes"/>
      <point x="405" y="697"/>
      <point x="390" y="714"/>
      <point x="370" y="714" type="curve" smooth="yes"/>
      <point x="321" y="714"/>
      <point x="264" y="652"/>
      <point x="266" y="600" type="curve" smooth="yes"/>
      <point x="268" y="576"/>
      <point x="284" y="558"/>
    </contour>
  </outline>
</glyph>
<glyph name="j" format="2">
  <advance width="284"/>
  <unicode hex="006A"/>
  <outline>
    <contour>
      <point x="294" y="299" type="curve" smooth="yes"/>
      <point x="212" y="-35" type="line" smooth="yes"/>
      <point x="185" y="-146"/>
      <point x="107" y="-245"/>
      <point x="22" y="-245" type="curve" smooth="yes"/>
      <point x="-20" y="-245"/>
      <point x="-43" y="-218"/>
      <point x="-43" y="-188" type="curve" smooth="yes"/>
      <point x="-43" y="-152"/>
      <point x="-21" y="-122"/>
      <point x="18" y="-122" type="curve" smooth="yes"/>
      <point x="43" y="-122"/>
      <point x="63" y="-170"/>
      <point x="86" y="-170" type="curve" smooth="yes"/>
      <point x="101" y="-170"/>
      <point x="112" y="-160"/>
      <point x="112" y="-139" type="curve" smooth="yes"/>
      <point x="112" y="-113"/>
      <point x="112" y="-98"/>
      <point x="125" y="-49" type="curve" smooth="yes"/>
      <point x="219" y="317" type="line" smooth="yes"/>
      <point x="225" y="342"/>
      <point x="229" y="356"/>
      <point x="228" y="374" type="curve" smooth="yes"/>
      <point x="228" y="387"/>
      <point x="220" y="394"/>
      <point x="206" y="394" type="curve" smooth="yes"/>
      <point x="191" y="394"/>
      <point x="182" y="386"/>
      <point x="170" y="373" type="curve" smooth="yes"/>
      <point x="159" y="360"/>
      <point x="150" y="352"/>
      <point x="141" y="352" type="curve" smooth="yes"/>
      <point x="129" y="352"/>
      <point x="120" y="358"/>
      <point x="119" y="375" type="curve" smooth="yes"/>
      <point x="118" y="409"/>
      <point x="208" y="480"/>
      <point x="279" y="480" type="curve" smooth="yes"/>
      <point x="312" y="480"/>
      <point x="328" y="462"/>
      <point x="329" y="436" type="curve" smooth="yes"/>
      <point x="331" y="398"/>
      <point x="305" y="345"/>
    </contour>
    <contour>
      <point x="311" y="562" type="curve" smooth="yes"/>
      <point x="348" y="562"/>
      <point x="386" y="605"/>
      <point x="386" y="654" type="curve" smooth="yes"/>
      <point x="386" y="690"/>
      <point x="364" y="715"/>
      <point x="336" y="715" type="curve" smooth="yes"/>
      <point x="297" y="715"/>
      <point x="260" y="669"/>
      <point x="260" y="624" type="curve" smooth="yes"/>
      <point x="260" y="588"/>
      <point x="282" y="562"/>
    </contour>
  </outline>
</glyph>
<glyph name="k" format="2">
  <advance width="500"/>
  <unicode hex="006B"/>
  <outline>
    <contour>
      <point x="201" y="238" type="line"/>
      <point x="263" y="388"/>
      <point x="372" y="480"/>
      <point x="475" y="480" type="curve" smooth="yes"/>
      <point x="521" y="480"/>
      <point x="549" y="454"/>
      <point x="549" y="405" type="curve" smooth="yes"/>
      <point x="549" y="318"/>
      <point x="481" y="258"/>
      <point x="192" y="175" type="curve"/>
      <point x="190" y="204" type="line"/>
      <point x="434" y="287"/>
      <point x="469" y="322"/>
      <point x="469" y="367" type="curve" smooth="yes"/>
      <point x="469" y="391"/>
      <point x="454" y="404"/>
      <point x="422" y="404" type="curve" smooth="yes"/>
      <point x="346" y="404"/>
      <point x="254" y="333"/>
      <point x="212" y="185" type="curve" smooth="yes"/>
      <point x="205" y="160"/>
      <point x="202" y="142"/>
      <point x="202" y="129" type="curve" smooth="yes"/>
      <point x="202" y="91"/>
      <point x="220" y="75"/>
      <point x="220" y="51" type="curve" smooth="yes"/>
      <point x="220" y="12"/>
      <point x="184" y="-15"/>
      <point x="144" y="-15" type="curve" smooth="yes"/>
      <point x="115" y="-15"/>
      <point x="96" y="4"/>
      <point x="96" y="37" type="curve" smooth="yes"/>
      <point x="96" y="56"/>
      <point x="101" y="78"/>
      <point x="109" y="106" type="curve" smooth="yes"/>
      <point x="203" y="435" type="line" smooth="yes"/>
      <point x="250" y="601"/>
      <point x="345" y="718"/>
      <point x="461" y="718" type="curve" smooth="yes"/>
      <point x="504" y="718"/>
      <point x="525" y="690"/>
      <point x="525" y="661" type="curve" smooth="yes"/>
      <point x="525" y="636"/>
      <point x="506" y="612"/>
      <point x="471" y="612" type="curve" smooth="yes"/>
      <point x="444" y="612"/>
      <point x="409" y="636"/>
      <point x="383" y="636" type="curve" smooth="yes"/>
      <point x="351" y="636"/>
      <point x="323" y="596"/>
      <point x="287" y="463" type="curve" smooth="yes"/>
      <point x="258" y="364"/>
      <point x="239" y="329"/>
      <point x="239" y="289" type="curve"/>
    </contour>
    <contour>
      <point x="296" y="208" type="curve"/>
      <point x="342" y="235" type="line"/>
      <point x="397" y="108"/>
      <point x="419" y="86"/>
      <point x="448" y="86" type="curve" smooth="yes"/>
      <point x="475" y="86"/>
      <point x="482" y="115"/>
      <point x="501" y="115" type="curve" smooth="yes"/>
      <point x="512" y="115"/>
      <point x="518" y="108"/>
      <point x="518" y="93" type="curve" smooth="yes"/>
      <point x="518" y="32"/>
      <point x="463" y="-16"/>
      <point x="409" y="-16" type="curve" smooth="yes"/>
      <point x="369" y="-16"/>
      <point x="346" y="23"/>
    </contour>
  </outline>
</glyph>
<glyph name="l" format="2">
  <advance width="261"/>
  <unicode hex="006C"/>
  <outline>
    <contour>
      <point x="326" y="715" type="curve" smooth="yes"/>
      <point x="240" y="715"/>
      <point x="222" y="668"/>
      <point x="174" y="489" type="curve" smooth="yes"/>
      <point x="108" y="245" type="line" smooth="yes"/>
      <point x="93" y="191"/>
      <point x="68" y="125"/>
      <point x="68" y="68" type="curve" smooth="yes"/>
      <point x="68" y="12"/>
      <point x="98" y="-15"/>
      <point x="152" y="-15" type="curve" smooth="yes"/>
      <point x="218" y="-15"/>
      <point x="269" y="41"/>
      <point x="269" y="80" type="curve" smooth="yes"/>
      <point x="269" y="102"/>
      <point x="268" y="107"/>
      <point x="257" y="107" type="curve" smooth="yes"/>
      <point x="247" y="107"/>
      <point x="240" y="108"/>
      <point x="232" y="95" type="curve" smooth="yes"/>
      <point x="227" y="87"/>
      <point x="217" y="73"/>
      <point x="200" y="73" type="curve" smooth="yes"/>
      <point x="180" y="73"/>
      <point x="160" y="94"/>
      <point x="160" y="134" type="curve" smooth="yes"/>
      <point x="160" y="158"/>
      <point x="164" y="199"/>
      <point x="176" y="246" type="curve" smooth="yes"/>
      <point x="235" y="474" type="line" smooth="yes"/>
      <point x="254" y="546"/>
      <point x="277" y="594"/>
      <point x="315" y="602" type="curve" smooth="yes"/>
      <point x="353" y="610"/>
      <point x="374" y="634"/>
      <point x="374" y="668" type="curve" smooth="yes"/>
      <point x="374" y="698"/>
      <point x="356" y="715"/>
    </contour>
  </outline>
</glyph>
<glyph name="m" format="2">
  <advance width="808"/>
  <unicode hex="006D"/>
  <outline>
    <contour>
      <point x="384" y="100" type="line" smooth="yes"/>
      <point x="375" y="78"/>
      <point x="368" y="53"/>
      <point x="370" y="29" type="curve" smooth="yes"/>
      <point x="371" y="0"/>
      <point x="388" y="-15"/>
      <point x="419" y="-15" type="curve" smooth="yes"/>
      <point x="451" y="-15"/>
      <point x="482" y="9"/>
      <point x="480" y="43" type="curve" smooth="yes"/>
      <point x="479" y="62"/>
      <point x="474" y="80"/>
      <point x="472" y="98" type="curve" smooth="yes"/>
      <point x="471" y="116"/>
      <point x="474" y="145"/>
      <point x="484" y="170" type="curve" smooth="yes"/>
      <point x="533" y="299" type="line" smooth="yes"/>
      <point x="551" y="346"/>
      <point x="563" y="375"/>
      <point x="563" y="417" type="curve" smooth="yes"/>
      <point x="563" y="454"/>
      <point x="539" y="480"/>
      <point x="494" y="480" type="curve" smooth="yes"/>
      <point x="400.53846153846155" y="480.0"/>
      <point x="302.87319170787816" y="390.7000496167118"/>
      <point x="251" y="268" type="curve"/>
      <point x="277" y="300" type="line"/>
      <point x="274" y="351"/>
      <point x="312" y="405"/>
      <point x="310" y="444" type="curve" smooth="yes"/>
      <point x="309" y="465"/>
      <point x="292" y="479"/>
      <point x="265" y="479" type="curve" smooth="yes"/>
      <point x="195" y="479"/>
      <point x="107" y="413"/>
      <point x="110" y="367" type="curve" smooth="yes"/>
      <point x="110" y="356"/>
      <point x="116" y="349"/>
      <point x="126" y="349" type="curve" smooth="yes"/>
      <point x="138" y="349"/>
      <point x="147" y="356"/>
      <point x="156" y="367" type="curve" smooth="yes"/>
      <point x="170" y="383"/>
      <point x="186" y="392"/>
      <point x="202" y="392" type="curve" smooth="yes"/>
      <point x="220" y="392"/>
      <point x="227" y="381"/>
      <point x="228" y="369" type="curve" smooth="yes"/>
      <point x="229" y="350"/>
      <point x="225" y="329"/>
      <point x="217" y="308" type="curve" smooth="yes"/>
      <point x="131" y="100" type="line" smooth="yes"/>
      <point x="122" y="77"/>
      <point x="115" y="53"/>
      <point x="117" y="29" type="curve" smooth="yes"/>
      <point x="118" y="0"/>
      <point x="135" y="-15"/>
      <point x="166" y="-15" type="curve" smooth="yes"/>
      <point x="198" y="-15"/>
      <point x="229" y="9"/>
      <point x="227" y="43" type="curve" smooth="yes"/>
      <point x="226" y="62"/>
      <point x="221" y="80"/>
      <point x="219" y="98" type="curve" smooth="yes"/>
      <point x="218" y="116"/>
      <point x="225" y="144"/>
      <point x="232" y="162" type="curve" smooth="yes"/>
      <point x="257" y="225" type="line" smooth="yes"/>
      <point x="302.06466836541233" y="338.5629642808391"/>
      <point x="372.2397660818713" y="396.0"/>
      <point x="424" y="396" type="curve" smooth="yes"/>
      <point x="459" y="396"/>
      <point x="471" y="379"/>
      <point x="473" y="353" type="curve" smooth="yes"/>
      <point x="473" y="336"/>
      <point x="467" y="314"/>
      <point x="459" y="293" type="curve" smooth="yes"/>
    </contour>
    <contour>
      <point x="504" y="225" type="line"/>
      <point x="549" y="339"/>
      <point x="619" y="396.0"/>
      <point x="670" y="396" type="curve" smooth="yes"/>
      <point x="705" y="396"/>
      <point x="717" y="379"/>
      <point x="719" y="353" type="curve" smooth="yes"/>
      <point x="719" y="336"/>
      <point x="713" y="314"/>
      <point x="705" y="293" type="curve" smooth="yes"/>
      <point x="646" y="140" type="line" smooth="yes"/>
      <point x="633" y="106"/>
      <point x="620" y="79"/>
      <point x="621" y="50" type="curve" smooth="yes"/>
      <point x="623" y="14"/>
      <point x="647" y="-15"/>
      <point x="694" y="-15" type="curve" smooth="yes"/>
      <point x="765" y="-15"/>
      <point x="819" y="38"/>
      <point x="817" y="79" type="curve" smooth="yes"/>
      <point x="816" y="93"/>
      <point x="809" y="98"/>
      <point x="800" y="98" type="curve" smooth="yes"/>
      <point x="793" y="98"/>
      <point x="787" y="93"/>
      <point x="778" y="80" type="curve" smooth="yes"/>
      <point x="768" y="66"/>
      <point x="753" y="58"/>
      <point x="740" y="58" type="curve" smooth="yes"/>
      <point x="726" y="58"/>
      <point x="715" y="70"/>
      <point x="714" y="90" type="curve" smooth="yes"/>
      <point x="712" y="115"/>
      <point x="720" y="144"/>
      <point x="730" y="170" type="curve" smooth="yes"/>
      <point x="779" y="299" type="line" smooth="yes"/>
      <point x="797" y="346"/>
      <point x="809" y="375"/>
      <point x="809" y="417" type="curve" smooth="yes"/>
      <point x="809" y="454"/>
      <point x="785" y="480"/>
      <point x="740" y="480" type="curve" smooth="yes"/>
      <point x="648" y="480.0"/>
      <point x="552" y="390"/>
      <point x="500" y="268" type="curve"/>
    </contour>
  </outline>
</glyph>
<glyph name="n" format="2">
  <advance width="541"/>
  <unicode hex="006E"/>
  <outline>
    <contour>
      <point x="112" y="326" type="curve" smooth="yes"/>
      <point x="122" y="326"/>
      <point x="132" y="334"/>
      <point x="139" y="348" type="curve" smooth="yes"/>
      <point x="154" y="375"/>
      <point x="169" y="383"/>
      <point x="184" y="383" type="curve" smooth="yes"/>
      <point x="194" y="383"/>
      <point x="198" y="376"/>
      <point x="198" y="368" type="curve" smooth="yes"/>
      <point x="198.0" y="269.63692307692304"/>
      <point x="86.0" y="149.75692307692307"/>
      <point x="86" y="35" type="curve" smooth="yes"/>
      <point x="86.0" y="2.2413793103448256"/>
      <point x="99.3913043478261" y="-15.0"/>
      <point x="130" y="-15" type="curve" smooth="yes"/>
      <point x="163.97058823529412" y="-15.0"/>
      <point x="200.0" y="8.356164383561644"/>
      <point x="200" y="40" type="curve" smooth="yes"/>
      <point x="200.0" y="78.34210526315789"/>
      <point x="199.0" y="106.78947368421052"/>
      <point x="199" y="134" type="curve" smooth="yes"/>
      <point x="199" y="187"/>
      <point x="241" y="279"/>
      <point x="337" y="364" type="curve" smooth="yes"/>
      <point x="356" y="381"/>
      <point x="378.94117647058823" y="391.0"/>
      <point x="399" y="391" type="curve" smooth="yes"/>
      <point x="431" y="391"/>
      <point x="443" y="374"/>
      <point x="443" y="349" type="curve" smooth="yes"/>
      <point x="443" y="314"/>
      <point x="431" y="265"/>
      <point x="408" y="219" type="curve" smooth="yes"/>
      <point x="379" y="160"/>
      <point x="332" y="104"/>
      <point x="332" y="50" type="curve" smooth="yes"/>
      <point x="332" y="14"/>
      <point x="355" y="-15"/>
      <point x="404" y="-15" type="curve" smooth="yes"/>
      <point x="473" y="-15"/>
      <point x="526" y="46"/>
      <point x="526" y="92" type="curve" smooth="yes"/>
      <point x="526" y="112"/>
      <point x="518" y="119"/>
      <point x="507" y="119" type="curve" smooth="yes"/>
      <point x="500" y="119"/>
      <point x="492" y="112"/>
      <point x="485" y="97" type="curve" smooth="yes"/>
      <point x="473" y="69"/>
      <point x="465" y="63"/>
      <point x="454" y="63" type="curve" smooth="yes"/>
      <point x="444" y="63"/>
      <point x="436" y="77"/>
      <point x="436" y="105" type="curve" smooth="yes"/>
      <point x="436" y="134"/>
      <point x="445" y="174"/>
      <point x="461" y="214" type="curve" smooth="yes"/>
      <point x="489" y="282"/>
      <point x="535" y="347"/>
      <point x="535" y="399" type="curve" smooth="yes"/>
      <point x="535" y="440"/>
      <point x="514" y="480"/>
      <point x="470" y="480" type="curve" smooth="yes"/>
      <point x="378" y="480"/>
      <point x="310" y="366"/>
      <point x="284" y="366" type="curve" smooth="yes"/>
      <point x="274" y="366"/>
      <point x="273" y="372"/>
      <point x="274" y="378" type="curve" smooth="yes"/>
      <point x="277" y="396"/>
      <point x="302" y="436"/>
      <point x="302" y="454" type="curve" smooth="yes"/>
      <point x="302" y="470"/>
      <point x="285" y="481"/>
      <point x="259" y="481" type="curve" smooth="yes"/>
      <point x="171" y="481"/>
      <point x="90" y="417"/>
      <point x="90" y="358" type="curve" smooth="yes"/>
      <point x="90" y="336"/>
      <point x="98" y="326"/>
    </contour>
    <component base="dotlessi" xScale="0.9329999999999999" yxScale="0.16451307300099782" yScale="0.9329999999999999" xOffset="37"/>
  </outline>
</glyph>
<glyph name="o" format="2">
  <advance width="435"/>
  <unicode hex="006F"/>
  <outline>
    <contour>
      <point x="366" y="480" type="curve" smooth="yes"/>
      <point x="220" y="480"/>
      <point x="92" y="291"/>
      <point x="101" y="97" type="curve" smooth="yes"/>
      <point x="104" y="32"/>
      <point x="147" y="-15"/>
      <point x="207" y="-15" type="curve" smooth="yes"/>
      <point x="355" y="-15"/>
      <point x="486" y="169"/>
      <point x="476" y="371" type="curve" smooth="yes"/>
      <point x="473" y="436"/>
      <point x="428" y="480"/>
    </contour>
    <contour>
      <point x="414" y="167"/>
      <point x="341" y="72"/>
      <point x="255" y="72" type="curve" smooth="yes"/>
      <point x="201" y="72"/>
      <point x="171" y="105"/>
      <point x="168" y="163" type="curve" smooth="yes"/>
      <point x="161" y="290"/>
      <point x="234" y="393"/>
      <point x="322" y="393" type="curve" smooth="yes"/>
      <point x="374" y="393"/>
      <point x="404" y="359"/>
      <point x="407" y="303" type="curve" smooth="yes"/>
    </contour>
  </outline>
</glyph>
<glyph name="p" format="2">
  <advance width="507"/>
  <unicode hex="0070"/>
  <outline>
    <contour>
      <point x="339" y="511" type="line" smooth="yes"/>
      <point x="344" y="529"/>
      <point x="346" y="540"/>
      <point x="346" y="552" type="curve" smooth="yes"/>
      <point x="346" y="572"/>
      <point x="335" y="586"/>
      <point x="318" y="586" type="curve" smooth="yes"/>
      <point x="299" y="586"/>
      <point x="283" y="570"/>
      <point x="276" y="548" type="curve" smooth="yes"/>
      <point x="64" y="-135" type="line" smooth="yes"/>
      <point x="58" y="-153"/>
      <point x="45" y="-165"/>
      <point x="23" y="-178" type="curve" smooth="yes"/>
      <point x="-1" y="-191"/>
      <point x="-10" y="-201"/>
      <point x="-10" y="-211" type="curve" smooth="yes"/>
      <point x="-10" y="-227"/>
      <point x="3" y="-236"/>
      <point x="20" y="-235" type="curve" smooth="yes"/>
      <point x="176" y="-230" type="line" smooth="yes"/>
      <point x="195" y="-229"/>
      <point x="208" y="-220"/>
      <point x="208" y="-207" type="curve" smooth="yes"/>
      <point x="208" y="-195"/>
      <point x="199" y="-187"/>
      <point x="178" y="-178" type="curve" smooth="yes"/>
      <point x="156" y="-168"/>
      <point x="148" y="-158"/>
      <point x="148" y="-141" type="curve" smooth="yes"/>
      <point x="148" y="-125"/>
      <point x="154" y="-104"/>
      <point x="160" y="-85" type="curve" smooth="yes"/>
    </contour>
    <contour>
      <point x="127" y="342" type="curve" smooth="yes"/>
      <point x="137" y="342"/>
      <point x="145" y="350"/>
      <point x="153" y="357" type="curve" smooth="yes"/>
      <point x="192" y="391"/>
      <point x="237" y="411"/>
      <point x="319" y="411" type="curve" smooth="yes"/>
      <point x="406" y="411"/>
      <point x="456" y="357"/>
      <point x="456" y="254" type="curve" smooth="yes"/>
      <point x="456" y="128"/>
      <point x="378" y="52"/>
      <point x="298" y="52" type="curve" smooth="yes"/>
      <point x="245" y="52"/>
      <point x="213" y="80"/>
      <point x="211" y="127" type="curve"/>
      <point x="147" y="91" type="line"/>
      <point x="147" y="35"/>
      <point x="194" y="-16"/>
      <point x="271" y="-16" type="curve" smooth="yes"/>
      <point x="405" y="-16"/>
      <point x="536" y="137"/>
      <point x="536" y="313" type="curve" smooth="yes"/>
      <point x="536" y="420"/>
      <point x="477" y="480"/>
      <point x="358" y="480" type="curve" smooth="yes"/>
      <point x="249" y="480"/>
      <point x="186" y="451"/>
      <point x="125" y="393" type="curve" smooth="yes"/>
      <point x="118" y="386"/>
      <point x="107" y="374"/>
      <point x="107" y="360" type="curve" smooth="yes"/>
      <point x="107" y="348"/>
      <point x="116" y="342"/>
    </contour>
  </outline>
</glyph>
<glyph name="q" format="2">
  <advance width="552"/>
  <unicode hex="0071"/>
  <outline>
    <contour>
      <point x="456" y="-149" type="line" smooth="yes"/>
      <point x="452" y="-169"/>
      <point x="457" y="-191"/>
      <point x="474" y="-195" type="curve" smooth="yes"/>
      <point x="492" y="-199" type="line" smooth="yes"/>
      <point x="506" y="-202"/>
      <point x="516" y="-207"/>
      <point x="514" y="-221" type="curve" smooth="yes"/>
      <point x="512" y="-236"/>
      <point x="502" y="-245"/>
      <point x="479" y="-245" type="curve" smooth="yes"/>
      <point x="284" y="-245" type="line" smooth="yes"/>
      <point x="268" y="-245"/>
      <point x="262" y="-235"/>
      <point x="264" y="-222" type="curve" smooth="yes"/>
      <point x="266" y="-210"/>
      <point x="276" y="-205"/>
      <point x="291" y="-202" type="curve" smooth="yes"/>
      <point x="314" y="-198" type="line" smooth="yes"/>
      <point x="342" y="-193"/>
      <point x="360" y="-178"/>
      <point x="365" y="-147" type="curve" smooth="yes"/>
      <point x="466" y="424" type="line" smooth="yes"/>
      <point x="509" y="450" type="line" smooth="yes"/>
      <point x="523" y="457"/>
      <point x="532" y="461"/>
      <point x="544" y="461" type="curve" smooth="yes"/>
      <point x="555" y="461"/>
      <point x="562" y="452"/>
      <point x="559" y="436" type="curve" smooth="yes"/>
    </contour>
    <contour>
      <point x="432" y="90" type="curve"/>
      <point x="443" y="64" type="line"/>
      <point x="373" y="5"/>
      <point x="300" y="-29"/>
      <point x="233" y="-29" type="curve" smooth="yes"/>
      <point x="114" y="-29"/>
      <point x="44" y="62"/>
      <point x="66" y="189" type="curve" smooth="yes"/>
      <point x="95" y="351"/>
      <point x="220" y="465"/>
      <point x="369" y="465" type="curve" smooth="yes"/>
      <point x="435" y="465"/>
      <point x="489" y="438"/>
      <point x="524" y="394" type="curve"/>
      <point x="488" y="349" type="line"/>
      <point x="457" y="390"/>
      <point x="408" y="413"/>
      <point x="346" y="413" type="curve" smooth="yes"/>
      <point x="258" y="413"/>
      <point x="183" y="338"/>
      <point x="163" y="228" type="curve" smooth="yes"/>
      <point x="144" y="118"/>
      <point x="199" y="40"/>
      <point x="295" y="40" type="curve" smooth="yes"/>
      <point x="338" y="40"/>
      <point x="383" y="58"/>
    </contour>
  </outline>
</glyph>
<glyph name="r" format="2">
  <advance width="381"/>
  <unicode hex="0072"/>
  <outline>
    <contour>
      <point x="112" y="326" type="curve" smooth="yes"/>
      <point x="122" y="326"/>
      <point x="132" y="334"/>
      <point x="139" y="348" type="curve" smooth="yes"/>
      <point x="154" y="375"/>
      <point x="169" y="383"/>
      <point x="184" y="383" type="curve" smooth="yes"/>
      <point x="194" y="383"/>
      <point x="198" y="376"/>
      <point x="198" y="368" type="curve" smooth="yes"/>
      <point x="198" y="270"/>
      <point x="86" y="150"/>
      <point x="86" y="35" type="curve" smooth="yes"/>
      <point x="86.0" y="2.0"/>
      <point x="99.0" y="-15.0"/>
      <point x="130" y="-15" type="curve" smooth="yes"/>
      <point x="174.0" y="-15.0"/>
      <point x="210.0" y="8"/>
      <point x="210" y="40" type="curve" smooth="yes"/>
      <point x="210.0" y="75.0"/>
      <point x="199.0" y="107.0"/>
      <point x="199.0" y="138" type="curve" smooth="yes"/>
      <point x="199.0" y="174.0"/>
      <point x="211.28321488230037" y="213.96782943051252"/>
      <point x="237" y="251" type="curve" smooth="yes"/>
      <point x="271.72158286021227" y="300.6022612288747"/>
      <point x="306.9130292937904" y="322.9565214436206"/>
      <point x="357" y="324.0" type="curve" smooth="yes"/>
      <point x="420.23695302819624" y="325.6641303428473"/>
      <point x="456.0" y="378.2413793103448"/>
      <point x="456" y="445" type="curve" smooth="yes"/>
      <point x="456.0" y="467.75"/>
      <point x="442.1818181818182" y="480.0"/>
      <point x="424" y="480.0" type="curve" smooth="yes"/>
      <point x="368.0" y="480.0"/>
      <point x="291.7755102040816" y="330.0"/>
      <point x="261" y="330" type="curve" smooth="yes"/>
      <point x="254" y="330"/>
      <point x="251" y="336"/>
      <point x="251" y="342" type="curve" smooth="yes"/>
      <point x="251.0" y="364.41346153846155"/>
      <point x="282.0" y="426.57142857142856"/>
      <point x="282" y="453" type="curve" smooth="yes"/>
      <point x="282" y="469"/>
      <point x="265" y="480"/>
      <point x="239" y="480" type="curve" smooth="yes"/>
      <point x="156.53459119496856" y="480.0"/>
      <point x="90.0" y="416.520325203252"/>
      <point x="90" y="358" type="curve" smooth="yes"/>
      <point x="90" y="336"/>
      <point x="98" y="326"/>
    </contour>
  </outline>
</glyph>
<glyph name="s" format="2">
  <advance width="386"/>
  <unicode hex="0073"/>
  <outline>
    <contour>
      <point x="242" y="42" type="curve" smooth="yes"/>
      <point x="215" y="42"/>
      <point x="188" y="58"/>
      <point x="172" y="88" type="curve" smooth="yes"/>
      <point x="155" y="122"/>
      <point x="138" y="134"/>
      <point x="117" y="134" type="curve" smooth="yes"/>
      <point x="96" y="134"/>
      <point x="81" y="114"/>
      <point x="81" y="75" type="curve" smooth="yes"/>
      <point x="81" y="30"/>
      <point x="112" y="-15"/>
      <point x="197" y="-15" type="curve" smooth="yes"/>
      <point x="297" y="-15"/>
      <point x="369" y="50"/>
      <point x="369" y="136" type="curve" smooth="yes"/>
      <point x="369" y="182"/>
      <point x="347" y="217"/>
      <point x="297" y="254" type="curve" smooth="yes"/>
      <point x="228" y="305"/>
      <point x="209" y="336"/>
      <point x="209" y="355" type="curve" smooth="yes"/>
      <point x="209" y="390"/>
      <point x="244" y="416"/>
      <point x="283" y="416" type="curve" smooth="yes"/>
      <point x="312" y="416"/>
      <point x="329" y="403"/>
      <point x="348" y="375" type="curve" smooth="yes"/>
      <point x="368" y="344"/>
      <point x="382" y="336"/>
      <point x="403" y="336" type="curve" smooth="yes"/>
      <point x="426" y="336"/>
      <point x="442" y="358"/>
      <point x="442" y="396" type="curve" smooth="yes"/>
      <point x="442" y="443"/>
      <point x="409" y="480"/>
      <point x="346" y="480" type="curve" smooth="yes"/>
      <point x="235" y="480"/>
      <point x="141" y="403"/>
      <point x="141" y="321" type="curve" smooth="yes"/>
      <point x="141" y="281"/>
      <point x="168" y="243"/>
      <point x="236" y="187" type="curve" smooth="yes"/>
      <point x="284" y="148"/>
      <point x="295" y="121"/>
      <point x="295" y="90" type="curve" smooth="yes"/>
      <point x="295" y="63"/>
      <point x="280" y="42"/>
    </contour>
  </outline>
</glyph>
<glyph name="t" format="2">
  <advance width="330"/>
  <unicode hex="0074"/>
  <outline>
    <contour>
      <point x="123" y="410" type="line" smooth="yes"/>
      <point x="144" y="402"/>
      <point x="149" y="388"/>
      <point x="146" y="367" type="curve" smooth="yes"/>
      <point x="98" y="97" type="line" smooth="yes"/>
      <point x="86" y="29"/>
      <point x="124" y="-10"/>
      <point x="193" y="-10" type="curve" smooth="yes"/>
      <point x="221" y="-10"/>
      <point x="259" y="3"/>
      <point x="282" y="19" type="curve" smooth="yes"/>
      <point x="310" y="36"/>
      <point x="320" y="46"/>
      <point x="323" y="60" type="curve" smooth="yes"/>
      <point x="324" y="68"/>
      <point x="320" y="75"/>
      <point x="312" y="75" type="curve" smooth="yes"/>
      <point x="304" y="75"/>
      <point x="297" y="73"/>
      <point x="286" y="67" type="curve" smooth="yes"/>
      <point x="272" y="60"/>
      <point x="261" y="57"/>
      <point x="249" y="57" type="curve" smooth="yes"/>
      <point x="208" y="57"/>
      <point x="184" y="80"/>
      <point x="192" y="122" type="curve" smooth="yes"/>
      <point x="267" y="549" type="line" smooth="yes"/>
      <point x="270" y="565"/>
      <point x="262" y="575"/>
      <point x="250" y="575" type="curve" smooth="yes"/>
      <point x="240" y="575"/>
      <point x="227" y="568"/>
      <point x="214" y="550" type="curve" smooth="yes"/>
      <point x="167" y="486" type="line" smooth="yes"/>
      <point x="156" y="472"/>
      <point x="144" y="465"/>
      <point x="128" y="465" type="curve" smooth="yes"/>
      <point x="112" y="465" type="line" smooth="yes"/>
      <point x="96" y="465"/>
      <point x="85" y="455"/>
      <point x="83" y="444" type="curve" smooth="yes"/>
      <point x="81" y="433"/>
      <point x="89" y="424"/>
      <point x="106" y="417" type="curve" smooth="yes"/>
    </contour>
    <contour>
      <point x="174" y="418" type="line"/>
      <point x="174" y="418"/>
      <point x="322" y="418"/>
      <point x="350" y="418" type="curve" smooth="yes"/>
      <point x="368" y="418"/>
      <point x="381" y="425"/>
      <point x="384" y="442" type="curve" smooth="yes"/>
      <point x="387" y="457"/>
      <point x="376" y="465"/>
      <point x="356" y="465" type="curve" smooth="yes"/>
      <point x="337" y="465"/>
      <point x="189" y="465"/>
      <point x="189" y="465" type="curve"/>
    </contour>
  </outline>
</glyph>
<glyph name="v" format="2">
  <advance width="515"/>
  <unicode hex="0076"/>
  <outline>
    <contour>
      <point x="412" y="-15"/>
      <point x="571" y="179"/>
      <point x="571" y="404" type="curve" smooth="yes"/>
      <point x="571" y="455"/>
      <point x="545" y="480"/>
      <point x="508" y="480" type="curve" smooth="yes"/>
      <point x="474" y="480"/>
      <point x="448" y="453"/>
      <point x="448" y="420" type="curve" smooth="yes"/>
      <point x="448" y="395"/>
      <point x="460" y="376"/>
      <point x="479" y="357" type="curve" smooth="yes"/>
      <point x="493" y="343"/>
      <point x="501" y="330"/>
      <point x="501" y="315" type="curve" smooth="yes"/>
      <point x="501" y="178"/>
      <point x="409" y="68"/>
      <point x="333" y="68" type="curve" smooth="yes"/>
      <point x="283" y="68"/>
      <point x="261" y="98"/>
      <point x="261" y="142" type="curve" smooth="yes"/>
      <point x="261" y="208"/>
      <point x="278" y="268"/>
      <point x="354" y="393" type="curve" smooth="yes"/>
      <point x="373" y="425"/>
      <point x="381" y="444"/>
      <point x="381" y="461" type="curve" smooth="yes"/>
      <point x="381" y="474"/>
      <point x="375" y="480"/>
      <point x="364" y="480" type="curve" smooth="yes"/>
      <point x="346" y="480"/>
      <point x="334" y="463"/>
      <point x="312" y="463" type="curve" smooth="yes"/>
      <point x="291" y="463"/>
      <point x="250" y="471"/>
      <point x="232" y="471" type="curve" smooth="yes"/>
      <point x="161" y="471"/>
      <point x="114" y="401"/>
      <point x="114" y="331" type="curve" smooth="yes"/>
      <point x="114" y="296"/>
      <point x="130" y="276"/>
      <point x="154" y="276" type="curve" smooth="yes"/>
      <point x="174" y="276"/>
      <point x="193" y="289"/>
      <point x="193" y="314" type="curve" smooth="yes"/>
      <point x="193" y="327"/>
      <point x="185" y="340"/>
      <point x="168" y="347" type="curve" smooth="yes"/>
      <point x="156" y="352"/>
      <point x="152" y="360"/>
      <point x="152" y="367" type="curve" smooth="yes"/>
      <point x="152" y="378"/>
      <point x="161" y="387"/>
      <point x="181" y="387" type="curve" smooth="yes"/>
      <point x="214" y="387"/>
      <point x="270" y="374"/>
      <point x="309" y="374" type="curve" smooth="yes"/>
      <point x="338" y="374"/>
      <point x="345" y="411"/>
      <point x="329" y="427" type="curve"/>
      <point x="329" y="408"/>
      <point x="321" y="387"/>
      <point x="280" y="332" type="curve" smooth="yes"/>
      <point x="196" y="220"/>
      <point x="170" y="146"/>
      <point x="170" y="87" type="curve" smooth="yes"/>
      <point x="170" y="26"/>
      <point x="209" y="-15"/>
      <point x="274" y="-15" type="curve" smooth="yes"/>
    </contour>
  </outline>
</glyph>
<glyph name="w" format="2">
  <advance width="720"/>
  <unicode hex="0077"/>
  <outline>
    <contour>
      <point x="522" y="480" type="curve" smooth="yes"/>
      <point x="487" y="480"/>
      <point x="438" y="407"/>
      <point x="438.0" y="201" type="curve" smooth="yes"/>
      <point x="438.0" y="64.0"/>
      <point x="476" y="-15"/>
      <point x="548" y="-15" type="curve" smooth="yes"/>
      <point x="644" y="-15"/>
      <point x="774" y="184"/>
      <point x="774" y="399" type="curve" smooth="yes"/>
      <point x="774.0" y="459"/>
      <point x="749" y="481"/>
      <point x="714" y="481" type="curve" smooth="yes"/>
      <point x="677" y="481"/>
      <point x="647" y="456"/>
      <point x="647" y="425" type="curve" smooth="yes"/>
      <point x="647" y="398"/>
      <point x="654" y="385"/>
      <point x="679" y="354" type="curve" smooth="yes"/>
      <point x="693" y="336"/>
      <point x="707" y="308"/>
      <point x="707" y="276" type="curve" smooth="yes"/>
      <point x="707" y="162"/>
      <point x="625" y="68"/>
      <point x="559" y="68" type="curve" smooth="yes"/>
      <point x="510.0" y="68.0"/>
      <point x="480.0" y="100.0"/>
      <point x="467" y="199" type="curve"/>
      <point x="415.0" y="99.0"/>
      <point x="372.0" y="68.0"/>
      <point x="328" y="68" type="curve" smooth="yes"/>
      <point x="283" y="68"/>
      <point x="261" y="98"/>
      <point x="261" y="142" type="curve" smooth="yes"/>
      <point x="261.0" y="203.0"/>
      <point x="283.0" y="259.0"/>
      <point x="364" y="393" type="curve" smooth="yes"/>
      <point x="387" y="431"/>
      <point x="401.0" y="444.0"/>
      <point x="401" y="461" type="curve" smooth="yes"/>
      <point x="401" y="474"/>
      <point x="395" y="480"/>
      <point x="384" y="480" type="curve" smooth="yes"/>
      <point x="366" y="480"/>
      <point x="354" y="463"/>
      <point x="332" y="463" type="curve" smooth="yes"/>
      <point x="305.75" y="463.0"/>
      <point x="254.5" y="471.0"/>
      <point x="232" y="471" type="curve" smooth="yes"/>
      <point x="161" y="471"/>
      <point x="114" y="401"/>
      <point x="114" y="331" type="curve" smooth="yes"/>
      <point x="114" y="296"/>
      <point x="130" y="276"/>
      <point x="154" y="276" type="curve" smooth="yes"/>
      <point x="174" y="276"/>
      <point x="193" y="289"/>
      <point x="193" y="314" type="curve" smooth="yes"/>
      <point x="193" y="327"/>
      <point x="185" y="340"/>
      <point x="168" y="347" type="curve" smooth="yes"/>
      <point x="156" y="352"/>
      <point x="152" y="360"/>
      <point x="152" y="367" type="curve" smooth="yes"/>
      <point x="152" y="378"/>
      <point x="161" y="387"/>
      <point x="181" y="387" type="curve" smooth="yes"/>
      <point x="219.15625" y="387.0"/>
      <point x="283.90625" y="374.0"/>
      <point x="329" y="374" type="curve" smooth="yes"/>
      <point x="358" y="374"/>
      <point x="365" y="411"/>
      <point x="349" y="427" type="curve"/>
      <point x="349.0" y="408.0"/>
      <point x="336" y="393"/>
      <point x="290" y="332" type="curve" smooth="yes"/>
      <point x="199.0" y="210.0"/>
      <point x="170" y="140.0"/>
      <point x="170" y="87" type="curve" smooth="yes"/>
      <point x="170" y="26"/>
      <point x="209" y="-15"/>
      <point x="274" y="-15" type="curve" smooth="yes"/>
      <point x="411.0" y="-15.0"/>
      <point x="554" y="216"/>
      <point x="554" y="425" type="curve" smooth="yes"/>
      <point x="554.0" y="463"/>
      <point x="541.0" y="480.0"/>
    </contour>
  </outline>
</glyph>
<glyph name="x" format="2">
  <advance width="525"/>
  <unicode hex="0078"/>
  <outline>
    <contour>
      <point x="179" y="56" type="curve" smooth="yes"/>
      <point x="162" y="56.0"/>
      <point x="152.0" y="66.0"/>
      <point x="152" y="78" type="curve" smooth="yes"/>
      <point x="152" y="90"/>
      <point x="155" y="104"/>
      <point x="155" y="114" type="curve" smooth="yes"/>
      <point x="155" y="138"/>
      <point x="137" y="153"/>
      <point x="111" y="153" type="curve" smooth="yes"/>
      <point x="81" y="153"/>
      <point x="56" y="125"/>
      <point x="56" y="77" type="curve" smooth="yes"/>
      <point x="56" y="31"/>
      <point x="88" y="-16"/>
      <point x="151" y="-16" type="curve" smooth="yes"/>
      <point x="207" y="-16.0"/>
      <point x="268" y="17"/>
      <point x="314" y="165" type="curve"/>
      <point x="285" y="166" type="line"/>
      <point x="285.0" y="38.0"/>
      <point x="321" y="-15.0"/>
      <point x="400" y="-15.0" type="curve" smooth="yes"/>
      <point x="457" y="-15.0"/>
      <point x="527.0" y="57.0"/>
      <point x="527" y="112" type="curve" smooth="yes"/>
      <point x="527" y="126"/>
      <point x="518" y="136"/>
      <point x="511" y="136" type="curve" smooth="yes"/>
      <point x="495" y="136"/>
      <point x="484" y="123"/>
      <point x="475" y="109" type="curve" smooth="yes"/>
      <point x="461.4929507792894" y="85.84505847878187"/>
      <point x="444.29411764705884" y="65.0"/>
      <point x="417" y="65" type="curve" smooth="yes"/>
      <point x="385.6938775510204" y="65.0"/>
      <point x="358.0" y="93.0"/>
      <point x="358.0" y="175" type="curve" smooth="yes"/>
      <point x="358.0" y="308.0"/>
      <point x="415.6" y="408.0"/>
      <point x="478" y="408" type="curve" smooth="yes"/>
      <point x="494.7837837837838" y="408.0"/>
      <point x="505.0" y="398.0"/>
      <point x="505" y="386" type="curve" smooth="yes"/>
      <point x="505" y="374"/>
      <point x="502" y="360"/>
      <point x="502" y="350" type="curve" smooth="yes"/>
      <point x="502" y="326"/>
      <point x="520" y="311"/>
      <point x="546" y="311" type="curve" smooth="yes"/>
      <point x="576" y="311"/>
      <point x="601" y="339"/>
      <point x="601" y="387" type="curve" smooth="yes"/>
      <point x="601" y="433"/>
      <point x="569" y="480"/>
      <point x="506" y="480" type="curve" smooth="yes"/>
      <point x="435" y="480"/>
      <point x="377" y="425"/>
      <point x="357" y="309" type="curve"/>
      <point x="374" y="311" type="line"/>
      <point x="374.98255558206114" y="433.8194477576403"/>
      <point x="343.6144578313253" y="480.0"/>
      <point x="277" y="480.0" type="curve" smooth="yes"/>
      <point x="194.0" y="480"/>
      <point x="130" y="407.0"/>
      <point x="130" y="352" type="curve" smooth="yes"/>
      <point x="130" y="338"/>
      <point x="139" y="328"/>
      <point x="146" y="328" type="curve" smooth="yes"/>
      <point x="162" y="328"/>
      <point x="173" y="341"/>
      <point x="182" y="355" type="curve" smooth="yes"/>
      <point x="195.50704922071057" y="378.1549415212181"/>
      <point x="212.7058823529412" y="399.0"/>
      <point x="240" y="399" type="curve" smooth="yes"/>
      <point x="273.4901960784314" y="399.0"/>
      <point x="301.0" y="373.0"/>
      <point x="301.0" y="297" type="curve" smooth="yes"/>
      <point x="301.0" y="146"/>
      <point x="240.0" y="56.0"/>
    </contour>
  </outline>
</glyph>
<glyph name="y" format="2">
  <advance width="500"/>
  <unicode hex="0079"/>
  <outline>
    <contour>
      <point x="300" y="80" type="line"/>
      <point x="225" y="362" type="line" smooth="yes"/>
      <point x="221" y="375"/>
      <point x="218" y="384"/>
      <point x="220" y="396" type="curve" smooth="yes"/>
      <point x="222" y="408"/>
      <point x="232" y="413"/>
      <point x="253" y="418" type="curve" smooth="yes"/>
      <point x="280" y="423" type="line" smooth="yes"/>
      <point x="295" y="427"/>
      <point x="306" y="435"/>
      <point x="308" y="448" type="curve" smooth="yes"/>
      <point x="310" y="460"/>
      <point x="300" y="465"/>
      <point x="282" y="465" type="curve" smooth="yes"/>
      <point x="112" y="465" type="line" smooth="yes"/>
      <point x="90" y="465"/>
      <point x="80" y="455"/>
      <point x="77" y="439" type="curve" smooth="yes"/>
      <point x="75" y="423"/>
      <point x="81" y="417"/>
      <point x="96" y="412" type="curve" smooth="yes"/>
      <point x="107" y="406"/>
      <point x="112" y="399"/>
      <point x="119" y="378" type="curve"/>
      <point x="235" y="-37" type="line"/>
    </contour>
    <contour>
      <point x="174" y="-133" type="line" smooth="yes"/>
      <point x="159" y="-161"/>
      <point x="147" y="-167"/>
      <point x="136" y="-167" type="curve" smooth="yes"/>
      <point x="122" y="-167"/>
      <point x="114" y="-162"/>
      <point x="109" y="-149" type="curve" smooth="yes"/>
      <point x="102" y="-132" type="line" smooth="yes"/>
      <point x="92" y="-108"/>
      <point x="77" y="-101"/>
      <point x="55" y="-101" type="curve" smooth="yes"/>
      <point x="27" y="-101"/>
      <point x="3" y="-125"/>
      <point x="-4" y="-163" type="curve" smooth="yes"/>
      <point x="-12" y="-211"/>
      <point x="16" y="-245"/>
      <point x="81" y="-245" type="curve" smooth="yes"/>
      <point x="137" y="-245"/>
      <point x="180" y="-220"/>
      <point x="226" y="-137" type="curve" smooth="yes"/>
      <point x="491" y="347" type="line" smooth="yes"/>
      <point x="513" y="388"/>
      <point x="530" y="398"/>
      <point x="548" y="407" type="curve" smooth="yes"/>
      <point x="563" y="413"/>
      <point x="574" y="421"/>
      <point x="578" y="442" type="curve" smooth="yes"/>
      <point x="580" y="455"/>
      <point x="576" y="465"/>
      <point x="560" y="465" type="curve" smooth="yes"/>
      <point x="410" y="465" type="line" smooth="yes"/>
      <point x="393" y="465"/>
      <point x="380" y="459"/>
      <point x="377" y="445" type="curve" smooth="yes"/>
      <point x="375" y="433"/>
      <point x="385" y="429"/>
      <point x="398" y="423" type="curve" smooth="yes"/>
      <point x="417" y="414" type="line" smooth="yes"/>
      <point x="440" y="403"/>
      <point x="448" y="399"/>
      <point x="445" y="382" type="curve" smooth="yes"/>
      <point x="442" y="365"/>
      <point x="436" y="351"/>
      <point x="421" y="324" type="curve" smooth="yes"/>
    </contour>
  </outline>
</glyph>
<glyph name="z" format="2">
  <advance width="418"/>
  <unicode hex="007A"/>
  <outline>
    <contour>
      <point x="170" y="59" type="curve"/>
      <point x="153" y="91" type="line"/>
      <point x="186" y="91"/>
      <point x="281" y="78"/>
      <point x="328" y="78" type="curve" smooth="yes"/>
      <point x="358" y="78"/>
      <point x="375" y="90"/>
      <point x="387" y="120" type="curve" smooth="yes"/>
      <point x="394" y="139"/>
      <point x="405" y="147"/>
      <point x="415" y="147" type="curve" smooth="yes"/>
      <point x="426" y="147"/>
      <point x="432" y="139"/>
      <point x="432" y="122" type="curve" smooth="yes"/>
      <point x="432" y="40"/>
      <point x="373" y="-15"/>
      <point x="303" y="-15" type="curve" smooth="yes"/>
      <point x="237" y="-15"/>
      <point x="191" y="42"/>
      <point x="167" y="42" type="curve" smooth="yes"/>
      <point x="143" y="42"/>
      <point x="135" y="-15"/>
      <point x="83" y="-15" type="curve" smooth="yes"/>
      <point x="57" y="-15"/>
      <point x="40" y="0"/>
      <point x="40" y="28" type="curve" smooth="yes"/>
      <point x="40" y="54"/>
      <point x="62" y="76"/>
      <point x="91" y="91" type="curve" smooth="yes"/>
      <point x="114.0" y="103.0"/>
      <point x="198.0" y="161.0"/>
      <point x="312" y="262" type="curve" smooth="yes"/>
      <point x="373" y="314"/>
      <point x="398" y="349"/>
      <point x="398" y="378" type="curve"/>
      <point x="403" y="353" type="line"/>
      <point x="359" y="353"/>
      <point x="245" y="377"/>
      <point x="193" y="377" type="curve" smooth="yes"/>
      <point x="173" y="377"/>
      <point x="164" y="368"/>
      <point x="164" y="357" type="curve" smooth="yes"/>
      <point x="164" y="350"/>
      <point x="168" y="342"/>
      <point x="180" y="337" type="curve" smooth="yes"/>
      <point x="197" y="330"/>
      <point x="205" y="317"/>
      <point x="205" y="304" type="curve" smooth="yes"/>
      <point x="205" y="279"/>
      <point x="186" y="266"/>
      <point x="166" y="266" type="curve" smooth="yes"/>
      <point x="142" y="266"/>
      <point x="126" y="286"/>
      <point x="126" y="321" type="curve" smooth="yes"/>
      <point x="126" y="402"/>
      <point x="182" y="480"/>
      <point x="266" y="480" type="curve" smooth="yes"/>
      <point x="334" y="480"/>
      <point x="354" y="397"/>
      <point x="387" y="397" type="curve" smooth="yes"/>
      <point x="398" y="397"/>
      <point x="406" y="402"/>
      <point x="409" y="428" type="curve" smooth="yes"/>
      <point x="413" y="459"/>
      <point x="433" y="480"/>
      <point x="462" y="480" type="curve" smooth="yes"/>
      <point x="488" y="480"/>
      <point x="501" y="462"/>
      <point x="501" y="430" type="curve" smooth="yes"/>
      <point x="501" y="387"/>
      <point x="465" y="337"/>
      <point x="306" y="206" type="curve" smooth="yes"/>
      <point x="195.0" y="114.0"/>
      <point x="170.0" y="76.0"/>
    </contour>
  </outline>
</glyph>
